<?xml version="1.0" encoding="utf-8" standalone="no"?>
<!DOCTYPE svg PUBLIC "-//W3C//DTD SVG 1.1//EN"
  "http://www.w3.org/Graphics/SVG/1.1/DTD/svg11.dtd">
<svg xmlns:xlink="http://www.w3.org/1999/xlink" width="460.8pt" height="345.6pt" viewBox="0 0 460.8 345.6" xmlns="http://www.w3.org/2000/svg" version="1.1">
 <metadata>
  <rdf:RDF xmlns:dc="http://purl.org/dc/elements/1.1/" xmlns:cc="http://creativecommons.org/ns#" xmlns:rdf="http://www.w3.org/1999/02/22-rdf-syntax-ns#">
   <cc:Work>
    <dc:type rdf:resource="http://purl.org/dc/dcmitype/StillImage"/>
    <dc:date>2025-04-07T21:59:33.497702</dc:date>
    <dc:format>image/svg+xml</dc:format>
    <dc:creator>
     <cc:Agent>
      <dc:title>Matplotlib v3.10.1, https://matplotlib.org/</dc:title>
     </cc:Agent>
    </dc:creator>
   </cc:Work>
  </rdf:RDF>
 </metadata>
 <defs>
  <style type="text/css">*{stroke-linejoin: round; stroke-linecap: butt}</style>
 </defs>
 <g id="figure_1">
  <g id="patch_1">
   <path d="M 0 345.6 
L 460.8 345.6 
L 460.8 0 
L 0 0 
z
" style="fill: #ffffff"/>
  </g>
  <g id="axes_1">
   <g id="patch_2">
    <path d="M 57.6 307.584 
L 414.72 307.584 
L 414.72 41.472 
L 57.6 41.472 
z
" style="fill: #ffffff"/>
   </g>
   <g id="matplotlib.axis_1">
    <g id="xtick_1">
     <g id="line2d_1">
      <path d="M 77.44 307.584 
L 77.44 41.472 
" clip-path="url(#p2eb2a53ef2)" style="fill: none; stroke: #b0b0b0; stroke-width: 0.8; stroke-linecap: square"/>
     </g>
     <g id="line2d_2">
      <defs>
       <path id="m1006f22dd8" d="M 0 0 
L 0 3.5 
" style="stroke: #000000; stroke-width: 0.8"/>
      </defs>
      <g>
       <use xlink:href="#m1006f22dd8" x="77.44" y="307.584" style="stroke: #000000; stroke-width: 0.8"/>
      </g>
     </g>
     <g id="text_1">
      <!-- −80 -->
      <g transform="translate(66.887656 322.182437) scale(0.1 -0.1)">
       <defs>
        <path id="DejaVuSans-2212" d="M 678 2272 
L 4684 2272 
L 4684 1741 
L 678 1741 
L 678 2272 
z
" transform="scale(0.015625)"/>
        <path id="DejaVuSans-38" d="M 2034 2216 
Q 1584 2216 1326 1975 
Q 1069 1734 1069 1313 
Q 1069 891 1326 650 
Q 1584 409 2034 409 
Q 2484 409 2743 651 
Q 3003 894 3003 1313 
Q 3003 1734 2745 1975 
Q 2488 2216 2034 2216 
z
M 1403 2484 
Q 997 2584 770 2862 
Q 544 3141 544 3541 
Q 544 4100 942 4425 
Q 1341 4750 2034 4750 
Q 2731 4750 3128 4425 
Q 3525 4100 3525 3541 
Q 3525 3141 3298 2862 
Q 3072 2584 2669 2484 
Q 3125 2378 3379 2068 
Q 3634 1759 3634 1313 
Q 3634 634 3220 271 
Q 2806 -91 2034 -91 
Q 1263 -91 848 271 
Q 434 634 434 1313 
Q 434 1759 690 2068 
Q 947 2378 1403 2484 
z
M 1172 3481 
Q 1172 3119 1398 2916 
Q 1625 2713 2034 2713 
Q 2441 2713 2670 2916 
Q 2900 3119 2900 3481 
Q 2900 3844 2670 4047 
Q 2441 4250 2034 4250 
Q 1625 4250 1398 4047 
Q 1172 3844 1172 3481 
z
" transform="scale(0.015625)"/>
        <path id="DejaVuSans-30" d="M 2034 4250 
Q 1547 4250 1301 3770 
Q 1056 3291 1056 2328 
Q 1056 1369 1301 889 
Q 1547 409 2034 409 
Q 2525 409 2770 889 
Q 3016 1369 3016 2328 
Q 3016 3291 2770 3770 
Q 2525 4250 2034 4250 
z
M 2034 4750 
Q 2819 4750 3233 4129 
Q 3647 3509 3647 2328 
Q 3647 1150 3233 529 
Q 2819 -91 2034 -91 
Q 1250 -91 836 529 
Q 422 1150 422 2328 
Q 422 3509 836 4129 
Q 1250 4750 2034 4750 
z
" transform="scale(0.015625)"/>
       </defs>
       <use xlink:href="#DejaVuSans-2212"/>
       <use xlink:href="#DejaVuSans-38" transform="translate(83.789062 0)"/>
       <use xlink:href="#DejaVuSans-30" transform="translate(147.412109 0)"/>
      </g>
     </g>
    </g>
    <g id="xtick_2">
     <g id="line2d_3">
      <path d="M 117.12 307.584 
L 117.12 41.472 
" clip-path="url(#p2eb2a53ef2)" style="fill: none; stroke: #b0b0b0; stroke-width: 0.8; stroke-linecap: square"/>
     </g>
     <g id="line2d_4">
      <g>
       <use xlink:href="#m1006f22dd8" x="117.12" y="307.584" style="stroke: #000000; stroke-width: 0.8"/>
      </g>
     </g>
     <g id="text_2">
      <!-- −60 -->
      <g transform="translate(106.567656 322.182437) scale(0.1 -0.1)">
       <defs>
        <path id="DejaVuSans-36" d="M 2113 2584 
Q 1688 2584 1439 2293 
Q 1191 2003 1191 1497 
Q 1191 994 1439 701 
Q 1688 409 2113 409 
Q 2538 409 2786 701 
Q 3034 994 3034 1497 
Q 3034 2003 2786 2293 
Q 2538 2584 2113 2584 
z
M 3366 4563 
L 3366 3988 
Q 3128 4100 2886 4159 
Q 2644 4219 2406 4219 
Q 1781 4219 1451 3797 
Q 1122 3375 1075 2522 
Q 1259 2794 1537 2939 
Q 1816 3084 2150 3084 
Q 2853 3084 3261 2657 
Q 3669 2231 3669 1497 
Q 3669 778 3244 343 
Q 2819 -91 2113 -91 
Q 1303 -91 875 529 
Q 447 1150 447 2328 
Q 447 3434 972 4092 
Q 1497 4750 2381 4750 
Q 2619 4750 2861 4703 
Q 3103 4656 3366 4563 
z
" transform="scale(0.015625)"/>
       </defs>
       <use xlink:href="#DejaVuSans-2212"/>
       <use xlink:href="#DejaVuSans-36" transform="translate(83.789062 0)"/>
       <use xlink:href="#DejaVuSans-30" transform="translate(147.412109 0)"/>
      </g>
     </g>
    </g>
    <g id="xtick_3">
     <g id="line2d_5">
      <path d="M 156.8 307.584 
L 156.8 41.472 
" clip-path="url(#p2eb2a53ef2)" style="fill: none; stroke: #b0b0b0; stroke-width: 0.8; stroke-linecap: square"/>
     </g>
     <g id="line2d_6">
      <g>
       <use xlink:href="#m1006f22dd8" x="156.8" y="307.584" style="stroke: #000000; stroke-width: 0.8"/>
      </g>
     </g>
     <g id="text_3">
      <!-- −40 -->
      <g transform="translate(146.247656 322.182437) scale(0.1 -0.1)">
       <defs>
        <path id="DejaVuSans-34" d="M 2419 4116 
L 825 1625 
L 2419 1625 
L 2419 4116 
z
M 2253 4666 
L 3047 4666 
L 3047 1625 
L 3713 1625 
L 3713 1100 
L 3047 1100 
L 3047 0 
L 2419 0 
L 2419 1100 
L 313 1100 
L 313 1709 
L 2253 4666 
z
" transform="scale(0.015625)"/>
       </defs>
       <use xlink:href="#DejaVuSans-2212"/>
       <use xlink:href="#DejaVuSans-34" transform="translate(83.789062 0)"/>
       <use xlink:href="#DejaVuSans-30" transform="translate(147.412109 0)"/>
      </g>
     </g>
    </g>
    <g id="xtick_4">
     <g id="line2d_7">
      <path d="M 196.48 307.584 
L 196.48 41.472 
" clip-path="url(#p2eb2a53ef2)" style="fill: none; stroke: #b0b0b0; stroke-width: 0.8; stroke-linecap: square"/>
     </g>
     <g id="line2d_8">
      <g>
       <use xlink:href="#m1006f22dd8" x="196.48" y="307.584" style="stroke: #000000; stroke-width: 0.8"/>
      </g>
     </g>
     <g id="text_4">
      <!-- −20 -->
      <g transform="translate(185.927656 322.182437) scale(0.1 -0.1)">
       <defs>
        <path id="DejaVuSans-32" d="M 1228 531 
L 3431 531 
L 3431 0 
L 469 0 
L 469 531 
Q 828 903 1448 1529 
Q 2069 2156 2228 2338 
Q 2531 2678 2651 2914 
Q 2772 3150 2772 3378 
Q 2772 3750 2511 3984 
Q 2250 4219 1831 4219 
Q 1534 4219 1204 4116 
Q 875 4013 500 3803 
L 500 4441 
Q 881 4594 1212 4672 
Q 1544 4750 1819 4750 
Q 2544 4750 2975 4387 
Q 3406 4025 3406 3419 
Q 3406 3131 3298 2873 
Q 3191 2616 2906 2266 
Q 2828 2175 2409 1742 
Q 1991 1309 1228 531 
z
" transform="scale(0.015625)"/>
       </defs>
       <use xlink:href="#DejaVuSans-2212"/>
       <use xlink:href="#DejaVuSans-32" transform="translate(83.789062 0)"/>
       <use xlink:href="#DejaVuSans-30" transform="translate(147.412109 0)"/>
      </g>
     </g>
    </g>
    <g id="xtick_5">
     <g id="line2d_9">
      <path d="M 236.16 307.584 
L 236.16 41.472 
" clip-path="url(#p2eb2a53ef2)" style="fill: none; stroke: #b0b0b0; stroke-width: 0.8; stroke-linecap: square"/>
     </g>
     <g id="line2d_10">
      <g>
       <use xlink:href="#m1006f22dd8" x="236.16" y="307.584" style="stroke: #000000; stroke-width: 0.8"/>
      </g>
     </g>
     <g id="text_5">
      <!-- 0 -->
      <g transform="translate(232.97875 322.182437) scale(0.1 -0.1)">
       <use xlink:href="#DejaVuSans-30"/>
      </g>
     </g>
    </g>
    <g id="xtick_6">
     <g id="line2d_11">
      <path d="M 275.84 307.584 
L 275.84 41.472 
" clip-path="url(#p2eb2a53ef2)" style="fill: none; stroke: #b0b0b0; stroke-width: 0.8; stroke-linecap: square"/>
     </g>
     <g id="line2d_12">
      <g>
       <use xlink:href="#m1006f22dd8" x="275.84" y="307.584" style="stroke: #000000; stroke-width: 0.8"/>
      </g>
     </g>
     <g id="text_6">
      <!-- 20 -->
      <g transform="translate(269.4775 322.182437) scale(0.1 -0.1)">
       <use xlink:href="#DejaVuSans-32"/>
       <use xlink:href="#DejaVuSans-30" transform="translate(63.623047 0)"/>
      </g>
     </g>
    </g>
    <g id="xtick_7">
     <g id="line2d_13">
      <path d="M 315.52 307.584 
L 315.52 41.472 
" clip-path="url(#p2eb2a53ef2)" style="fill: none; stroke: #b0b0b0; stroke-width: 0.8; stroke-linecap: square"/>
     </g>
     <g id="line2d_14">
      <g>
       <use xlink:href="#m1006f22dd8" x="315.52" y="307.584" style="stroke: #000000; stroke-width: 0.8"/>
      </g>
     </g>
     <g id="text_7">
      <!-- 40 -->
      <g transform="translate(309.1575 322.182437) scale(0.1 -0.1)">
       <use xlink:href="#DejaVuSans-34"/>
       <use xlink:href="#DejaVuSans-30" transform="translate(63.623047 0)"/>
      </g>
     </g>
    </g>
    <g id="xtick_8">
     <g id="line2d_15">
      <path d="M 355.2 307.584 
L 355.2 41.472 
" clip-path="url(#p2eb2a53ef2)" style="fill: none; stroke: #b0b0b0; stroke-width: 0.8; stroke-linecap: square"/>
     </g>
     <g id="line2d_16">
      <g>
       <use xlink:href="#m1006f22dd8" x="355.2" y="307.584" style="stroke: #000000; stroke-width: 0.8"/>
      </g>
     </g>
     <g id="text_8">
      <!-- 60 -->
      <g transform="translate(348.8375 322.182437) scale(0.1 -0.1)">
       <use xlink:href="#DejaVuSans-36"/>
       <use xlink:href="#DejaVuSans-30" transform="translate(63.623047 0)"/>
      </g>
     </g>
    </g>
    <g id="xtick_9">
     <g id="line2d_17">
      <path d="M 394.88 307.584 
L 394.88 41.472 
" clip-path="url(#p2eb2a53ef2)" style="fill: none; stroke: #b0b0b0; stroke-width: 0.8; stroke-linecap: square"/>
     </g>
     <g id="line2d_18">
      <g>
       <use xlink:href="#m1006f22dd8" x="394.88" y="307.584" style="stroke: #000000; stroke-width: 0.8"/>
      </g>
     </g>
     <g id="text_9">
      <!-- 80 -->
      <g transform="translate(388.5175 322.182437) scale(0.1 -0.1)">
       <use xlink:href="#DejaVuSans-38"/>
       <use xlink:href="#DejaVuSans-30" transform="translate(63.623047 0)"/>
      </g>
     </g>
    </g>
    <g id="text_10">
     <!-- Einfallswinkel (in °) -->
     <g transform="translate(188.271719 335.860562) scale(0.1 -0.1)">
      <defs>
       <path id="DejaVuSans-45" d="M 628 4666 
L 3578 4666 
L 3578 4134 
L 1259 4134 
L 1259 2753 
L 3481 2753 
L 3481 2222 
L 1259 2222 
L 1259 531 
L 3634 531 
L 3634 0 
L 628 0 
L 628 4666 
z
" transform="scale(0.015625)"/>
       <path id="DejaVuSans-69" d="M 603 3500 
L 1178 3500 
L 1178 0 
L 603 0 
L 603 3500 
z
M 603 4863 
L 1178 4863 
L 1178 4134 
L 603 4134 
L 603 4863 
z
" transform="scale(0.015625)"/>
       <path id="DejaVuSans-6e" d="M 3513 2113 
L 3513 0 
L 2938 0 
L 2938 2094 
Q 2938 2591 2744 2837 
Q 2550 3084 2163 3084 
Q 1697 3084 1428 2787 
Q 1159 2491 1159 1978 
L 1159 0 
L 581 0 
L 581 3500 
L 1159 3500 
L 1159 2956 
Q 1366 3272 1645 3428 
Q 1925 3584 2291 3584 
Q 2894 3584 3203 3211 
Q 3513 2838 3513 2113 
z
" transform="scale(0.015625)"/>
       <path id="DejaVuSans-66" d="M 2375 4863 
L 2375 4384 
L 1825 4384 
Q 1516 4384 1395 4259 
Q 1275 4134 1275 3809 
L 1275 3500 
L 2222 3500 
L 2222 3053 
L 1275 3053 
L 1275 0 
L 697 0 
L 697 3053 
L 147 3053 
L 147 3500 
L 697 3500 
L 697 3744 
Q 697 4328 969 4595 
Q 1241 4863 1831 4863 
L 2375 4863 
z
" transform="scale(0.015625)"/>
       <path id="DejaVuSans-61" d="M 2194 1759 
Q 1497 1759 1228 1600 
Q 959 1441 959 1056 
Q 959 750 1161 570 
Q 1363 391 1709 391 
Q 2188 391 2477 730 
Q 2766 1069 2766 1631 
L 2766 1759 
L 2194 1759 
z
M 3341 1997 
L 3341 0 
L 2766 0 
L 2766 531 
Q 2569 213 2275 61 
Q 1981 -91 1556 -91 
Q 1019 -91 701 211 
Q 384 513 384 1019 
Q 384 1609 779 1909 
Q 1175 2209 1959 2209 
L 2766 2209 
L 2766 2266 
Q 2766 2663 2505 2880 
Q 2244 3097 1772 3097 
Q 1472 3097 1187 3025 
Q 903 2953 641 2809 
L 641 3341 
Q 956 3463 1253 3523 
Q 1550 3584 1831 3584 
Q 2591 3584 2966 3190 
Q 3341 2797 3341 1997 
z
" transform="scale(0.015625)"/>
       <path id="DejaVuSans-6c" d="M 603 4863 
L 1178 4863 
L 1178 0 
L 603 0 
L 603 4863 
z
" transform="scale(0.015625)"/>
       <path id="DejaVuSans-73" d="M 2834 3397 
L 2834 2853 
Q 2591 2978 2328 3040 
Q 2066 3103 1784 3103 
Q 1356 3103 1142 2972 
Q 928 2841 928 2578 
Q 928 2378 1081 2264 
Q 1234 2150 1697 2047 
L 1894 2003 
Q 2506 1872 2764 1633 
Q 3022 1394 3022 966 
Q 3022 478 2636 193 
Q 2250 -91 1575 -91 
Q 1294 -91 989 -36 
Q 684 19 347 128 
L 347 722 
Q 666 556 975 473 
Q 1284 391 1588 391 
Q 1994 391 2212 530 
Q 2431 669 2431 922 
Q 2431 1156 2273 1281 
Q 2116 1406 1581 1522 
L 1381 1569 
Q 847 1681 609 1914 
Q 372 2147 372 2553 
Q 372 3047 722 3315 
Q 1072 3584 1716 3584 
Q 2034 3584 2315 3537 
Q 2597 3491 2834 3397 
z
" transform="scale(0.015625)"/>
       <path id="DejaVuSans-77" d="M 269 3500 
L 844 3500 
L 1563 769 
L 2278 3500 
L 2956 3500 
L 3675 769 
L 4391 3500 
L 4966 3500 
L 4050 0 
L 3372 0 
L 2619 2869 
L 1863 0 
L 1184 0 
L 269 3500 
z
" transform="scale(0.015625)"/>
       <path id="DejaVuSans-6b" d="M 581 4863 
L 1159 4863 
L 1159 1991 
L 2875 3500 
L 3609 3500 
L 1753 1863 
L 3688 0 
L 2938 0 
L 1159 1709 
L 1159 0 
L 581 0 
L 581 4863 
z
" transform="scale(0.015625)"/>
       <path id="DejaVuSans-65" d="M 3597 1894 
L 3597 1613 
L 953 1613 
Q 991 1019 1311 708 
Q 1631 397 2203 397 
Q 2534 397 2845 478 
Q 3156 559 3463 722 
L 3463 178 
Q 3153 47 2828 -22 
Q 2503 -91 2169 -91 
Q 1331 -91 842 396 
Q 353 884 353 1716 
Q 353 2575 817 3079 
Q 1281 3584 2069 3584 
Q 2775 3584 3186 3129 
Q 3597 2675 3597 1894 
z
M 3022 2063 
Q 3016 2534 2758 2815 
Q 2500 3097 2075 3097 
Q 1594 3097 1305 2825 
Q 1016 2553 972 2059 
L 3022 2063 
z
" transform="scale(0.015625)"/>
       <path id="DejaVuSans-20" transform="scale(0.015625)"/>
       <path id="DejaVuSans-28" d="M 1984 4856 
Q 1566 4138 1362 3434 
Q 1159 2731 1159 2009 
Q 1159 1288 1364 580 
Q 1569 -128 1984 -844 
L 1484 -844 
Q 1016 -109 783 600 
Q 550 1309 550 2009 
Q 550 2706 781 3412 
Q 1013 4119 1484 4856 
L 1984 4856 
z
" transform="scale(0.015625)"/>
       <path id="DejaVuSans-b0" d="M 1600 4347 
Q 1350 4347 1178 4173 
Q 1006 4000 1006 3750 
Q 1006 3503 1178 3333 
Q 1350 3163 1600 3163 
Q 1850 3163 2022 3333 
Q 2194 3503 2194 3750 
Q 2194 3997 2020 4172 
Q 1847 4347 1600 4347 
z
M 1600 4750 
Q 1800 4750 1984 4673 
Q 2169 4597 2303 4453 
Q 2447 4313 2519 4134 
Q 2591 3956 2591 3750 
Q 2591 3338 2302 3052 
Q 2013 2766 1594 2766 
Q 1172 2766 890 3047 
Q 609 3328 609 3750 
Q 609 4169 896 4459 
Q 1184 4750 1600 4750 
z
" transform="scale(0.015625)"/>
       <path id="DejaVuSans-29" d="M 513 4856 
L 1013 4856 
Q 1481 4119 1714 3412 
Q 1947 2706 1947 2009 
Q 1947 1309 1714 600 
Q 1481 -109 1013 -844 
L 513 -844 
Q 928 -128 1133 580 
Q 1338 1288 1338 2009 
Q 1338 2731 1133 3434 
Q 928 4138 513 4856 
z
" transform="scale(0.015625)"/>
      </defs>
      <use xlink:href="#DejaVuSans-45"/>
      <use xlink:href="#DejaVuSans-69" transform="translate(63.183594 0)"/>
      <use xlink:href="#DejaVuSans-6e" transform="translate(90.966797 0)"/>
      <use xlink:href="#DejaVuSans-66" transform="translate(154.345703 0)"/>
      <use xlink:href="#DejaVuSans-61" transform="translate(189.550781 0)"/>
      <use xlink:href="#DejaVuSans-6c" transform="translate(250.830078 0)"/>
      <use xlink:href="#DejaVuSans-6c" transform="translate(278.613281 0)"/>
      <use xlink:href="#DejaVuSans-73" transform="translate(306.396484 0)"/>
      <use xlink:href="#DejaVuSans-77" transform="translate(358.496094 0)"/>
      <use xlink:href="#DejaVuSans-69" transform="translate(440.283203 0)"/>
      <use xlink:href="#DejaVuSans-6e" transform="translate(468.066406 0)"/>
      <use xlink:href="#DejaVuSans-6b" transform="translate(531.445312 0)"/>
      <use xlink:href="#DejaVuSans-65" transform="translate(585.730469 0)"/>
      <use xlink:href="#DejaVuSans-6c" transform="translate(647.253906 0)"/>
      <use xlink:href="#DejaVuSans-20" transform="translate(675.037109 0)"/>
      <use xlink:href="#DejaVuSans-28" transform="translate(706.824219 0)"/>
      <use xlink:href="#DejaVuSans-69" transform="translate(745.837891 0)"/>
      <use xlink:href="#DejaVuSans-6e" transform="translate(773.621094 0)"/>
      <use xlink:href="#DejaVuSans-20" transform="translate(837 0)"/>
      <use xlink:href="#DejaVuSans-b0" transform="translate(868.787109 0)"/>
      <use xlink:href="#DejaVuSans-29" transform="translate(918.787109 0)"/>
     </g>
    </g>
   </g>
   <g id="matplotlib.axis_2">
    <g id="ytick_1">
     <g id="line2d_19">
      <path d="M 57.6 307.584 
L 414.72 307.584 
" clip-path="url(#p2eb2a53ef2)" style="fill: none; stroke: #b0b0b0; stroke-width: 0.8; stroke-linecap: square"/>
     </g>
     <g id="line2d_20">
      <defs>
       <path id="m75e13a618d" d="M 0 0 
L -3.5 0 
" style="stroke: #000000; stroke-width: 0.8"/>
      </defs>
      <g>
       <use xlink:href="#m75e13a618d" x="57.6" y="307.584" style="stroke: #000000; stroke-width: 0.8"/>
      </g>
     </g>
     <g id="text_11">
      <!-- −50 -->
      <g transform="translate(29.495313 311.383219) scale(0.1 -0.1)">
       <defs>
        <path id="DejaVuSans-35" d="M 691 4666 
L 3169 4666 
L 3169 4134 
L 1269 4134 
L 1269 2991 
Q 1406 3038 1543 3061 
Q 1681 3084 1819 3084 
Q 2600 3084 3056 2656 
Q 3513 2228 3513 1497 
Q 3513 744 3044 326 
Q 2575 -91 1722 -91 
Q 1428 -91 1123 -41 
Q 819 9 494 109 
L 494 744 
Q 775 591 1075 516 
Q 1375 441 1709 441 
Q 2250 441 2565 725 
Q 2881 1009 2881 1497 
Q 2881 1984 2565 2268 
Q 2250 2553 1709 2553 
Q 1456 2553 1204 2497 
Q 953 2441 691 2322 
L 691 4666 
z
" transform="scale(0.015625)"/>
       </defs>
       <use xlink:href="#DejaVuSans-2212"/>
       <use xlink:href="#DejaVuSans-35" transform="translate(83.789062 0)"/>
       <use xlink:href="#DejaVuSans-30" transform="translate(147.412109 0)"/>
      </g>
     </g>
    </g>
    <g id="ytick_2">
     <g id="line2d_21">
      <path d="M 57.6 259.2 
L 414.72 259.2 
" clip-path="url(#p2eb2a53ef2)" style="fill: none; stroke: #b0b0b0; stroke-width: 0.8; stroke-linecap: square"/>
     </g>
     <g id="line2d_22">
      <g>
       <use xlink:href="#m75e13a618d" x="57.6" y="259.2" style="stroke: #000000; stroke-width: 0.8"/>
      </g>
     </g>
     <g id="text_12">
      <!-- −40 -->
      <g transform="translate(29.495313 262.999219) scale(0.1 -0.1)">
       <use xlink:href="#DejaVuSans-2212"/>
       <use xlink:href="#DejaVuSans-34" transform="translate(83.789062 0)"/>
       <use xlink:href="#DejaVuSans-30" transform="translate(147.412109 0)"/>
      </g>
     </g>
    </g>
    <g id="ytick_3">
     <g id="line2d_23">
      <path d="M 57.6 210.816 
L 414.72 210.816 
" clip-path="url(#p2eb2a53ef2)" style="fill: none; stroke: #b0b0b0; stroke-width: 0.8; stroke-linecap: square"/>
     </g>
     <g id="line2d_24">
      <g>
       <use xlink:href="#m75e13a618d" x="57.6" y="210.816" style="stroke: #000000; stroke-width: 0.8"/>
      </g>
     </g>
     <g id="text_13">
      <!-- −30 -->
      <g transform="translate(29.495313 214.615219) scale(0.1 -0.1)">
       <defs>
        <path id="DejaVuSans-33" d="M 2597 2516 
Q 3050 2419 3304 2112 
Q 3559 1806 3559 1356 
Q 3559 666 3084 287 
Q 2609 -91 1734 -91 
Q 1441 -91 1130 -33 
Q 819 25 488 141 
L 488 750 
Q 750 597 1062 519 
Q 1375 441 1716 441 
Q 2309 441 2620 675 
Q 2931 909 2931 1356 
Q 2931 1769 2642 2001 
Q 2353 2234 1838 2234 
L 1294 2234 
L 1294 2753 
L 1863 2753 
Q 2328 2753 2575 2939 
Q 2822 3125 2822 3475 
Q 2822 3834 2567 4026 
Q 2313 4219 1838 4219 
Q 1578 4219 1281 4162 
Q 984 4106 628 3988 
L 628 4550 
Q 988 4650 1302 4700 
Q 1616 4750 1894 4750 
Q 2613 4750 3031 4423 
Q 3450 4097 3450 3541 
Q 3450 3153 3228 2886 
Q 3006 2619 2597 2516 
z
" transform="scale(0.015625)"/>
       </defs>
       <use xlink:href="#DejaVuSans-2212"/>
       <use xlink:href="#DejaVuSans-33" transform="translate(83.789062 0)"/>
       <use xlink:href="#DejaVuSans-30" transform="translate(147.412109 0)"/>
      </g>
     </g>
    </g>
    <g id="ytick_4">
     <g id="line2d_25">
      <path d="M 57.6 162.432 
L 414.72 162.432 
" clip-path="url(#p2eb2a53ef2)" style="fill: none; stroke: #b0b0b0; stroke-width: 0.8; stroke-linecap: square"/>
     </g>
     <g id="line2d_26">
      <g>
       <use xlink:href="#m75e13a618d" x="57.6" y="162.432" style="stroke: #000000; stroke-width: 0.8"/>
      </g>
     </g>
     <g id="text_14">
      <!-- −20 -->
      <g transform="translate(29.495313 166.231219) scale(0.1 -0.1)">
       <use xlink:href="#DejaVuSans-2212"/>
       <use xlink:href="#DejaVuSans-32" transform="translate(83.789062 0)"/>
       <use xlink:href="#DejaVuSans-30" transform="translate(147.412109 0)"/>
      </g>
     </g>
    </g>
    <g id="ytick_5">
     <g id="line2d_27">
      <path d="M 57.6 114.048 
L 414.72 114.048 
" clip-path="url(#p2eb2a53ef2)" style="fill: none; stroke: #b0b0b0; stroke-width: 0.8; stroke-linecap: square"/>
     </g>
     <g id="line2d_28">
      <g>
       <use xlink:href="#m75e13a618d" x="57.6" y="114.048" style="stroke: #000000; stroke-width: 0.8"/>
      </g>
     </g>
     <g id="text_15">
      <!-- −10 -->
      <g transform="translate(29.495313 117.847219) scale(0.1 -0.1)">
       <defs>
        <path id="DejaVuSans-31" d="M 794 531 
L 1825 531 
L 1825 4091 
L 703 3866 
L 703 4441 
L 1819 4666 
L 2450 4666 
L 2450 531 
L 3481 531 
L 3481 0 
L 794 0 
L 794 531 
z
" transform="scale(0.015625)"/>
       </defs>
       <use xlink:href="#DejaVuSans-2212"/>
       <use xlink:href="#DejaVuSans-31" transform="translate(83.789062 0)"/>
       <use xlink:href="#DejaVuSans-30" transform="translate(147.412109 0)"/>
      </g>
     </g>
    </g>
    <g id="ytick_6">
     <g id="line2d_29">
      <path d="M 57.6 65.664 
L 414.72 65.664 
" clip-path="url(#p2eb2a53ef2)" style="fill: none; stroke: #b0b0b0; stroke-width: 0.8; stroke-linecap: square"/>
     </g>
     <g id="line2d_30">
      <g>
       <use xlink:href="#m75e13a618d" x="57.6" y="65.664" style="stroke: #000000; stroke-width: 0.8"/>
      </g>
     </g>
     <g id="text_16">
      <!-- 0 -->
      <g transform="translate(44.2375 69.463219) scale(0.1 -0.1)">
       <use xlink:href="#DejaVuSans-30"/>
      </g>
     </g>
    </g>
    <g id="text_17">
     <!-- Verstärkung (in dB) -->
     <g transform="translate(23.415625 222.870187) rotate(-90) scale(0.1 -0.1)">
      <defs>
       <path id="DejaVuSans-56" d="M 1831 0 
L 50 4666 
L 709 4666 
L 2188 738 
L 3669 4666 
L 4325 4666 
L 2547 0 
L 1831 0 
z
" transform="scale(0.015625)"/>
       <path id="DejaVuSans-72" d="M 2631 2963 
Q 2534 3019 2420 3045 
Q 2306 3072 2169 3072 
Q 1681 3072 1420 2755 
Q 1159 2438 1159 1844 
L 1159 0 
L 581 0 
L 581 3500 
L 1159 3500 
L 1159 2956 
Q 1341 3275 1631 3429 
Q 1922 3584 2338 3584 
Q 2397 3584 2469 3576 
Q 2541 3569 2628 3553 
L 2631 2963 
z
" transform="scale(0.015625)"/>
       <path id="DejaVuSans-74" d="M 1172 4494 
L 1172 3500 
L 2356 3500 
L 2356 3053 
L 1172 3053 
L 1172 1153 
Q 1172 725 1289 603 
Q 1406 481 1766 481 
L 2356 481 
L 2356 0 
L 1766 0 
Q 1100 0 847 248 
Q 594 497 594 1153 
L 594 3053 
L 172 3053 
L 172 3500 
L 594 3500 
L 594 4494 
L 1172 4494 
z
" transform="scale(0.015625)"/>
       <path id="DejaVuSans-e4" d="M 2194 1759 
Q 1497 1759 1228 1600 
Q 959 1441 959 1056 
Q 959 750 1161 570 
Q 1363 391 1709 391 
Q 2188 391 2477 730 
Q 2766 1069 2766 1631 
L 2766 1759 
L 2194 1759 
z
M 3341 1997 
L 3341 0 
L 2766 0 
L 2766 531 
Q 2569 213 2275 61 
Q 1981 -91 1556 -91 
Q 1019 -91 701 211 
Q 384 513 384 1019 
Q 384 1609 779 1909 
Q 1175 2209 1959 2209 
L 2766 2209 
L 2766 2266 
Q 2766 2663 2505 2880 
Q 2244 3097 1772 3097 
Q 1472 3097 1187 3025 
Q 903 2953 641 2809 
L 641 3341 
Q 956 3463 1253 3523 
Q 1550 3584 1831 3584 
Q 2591 3584 2966 3190 
Q 3341 2797 3341 1997 
z
M 2150 4850 
L 2784 4850 
L 2784 4219 
L 2150 4219 
L 2150 4850 
z
M 928 4850 
L 1562 4850 
L 1562 4219 
L 928 4219 
L 928 4850 
z
" transform="scale(0.015625)"/>
       <path id="DejaVuSans-75" d="M 544 1381 
L 544 3500 
L 1119 3500 
L 1119 1403 
Q 1119 906 1312 657 
Q 1506 409 1894 409 
Q 2359 409 2629 706 
Q 2900 1003 2900 1516 
L 2900 3500 
L 3475 3500 
L 3475 0 
L 2900 0 
L 2900 538 
Q 2691 219 2414 64 
Q 2138 -91 1772 -91 
Q 1169 -91 856 284 
Q 544 659 544 1381 
z
M 1991 3584 
L 1991 3584 
z
" transform="scale(0.015625)"/>
       <path id="DejaVuSans-67" d="M 2906 1791 
Q 2906 2416 2648 2759 
Q 2391 3103 1925 3103 
Q 1463 3103 1205 2759 
Q 947 2416 947 1791 
Q 947 1169 1205 825 
Q 1463 481 1925 481 
Q 2391 481 2648 825 
Q 2906 1169 2906 1791 
z
M 3481 434 
Q 3481 -459 3084 -895 
Q 2688 -1331 1869 -1331 
Q 1566 -1331 1297 -1286 
Q 1028 -1241 775 -1147 
L 775 -588 
Q 1028 -725 1275 -790 
Q 1522 -856 1778 -856 
Q 2344 -856 2625 -561 
Q 2906 -266 2906 331 
L 2906 616 
Q 2728 306 2450 153 
Q 2172 0 1784 0 
Q 1141 0 747 490 
Q 353 981 353 1791 
Q 353 2603 747 3093 
Q 1141 3584 1784 3584 
Q 2172 3584 2450 3431 
Q 2728 3278 2906 2969 
L 2906 3500 
L 3481 3500 
L 3481 434 
z
" transform="scale(0.015625)"/>
       <path id="DejaVuSans-64" d="M 2906 2969 
L 2906 4863 
L 3481 4863 
L 3481 0 
L 2906 0 
L 2906 525 
Q 2725 213 2448 61 
Q 2172 -91 1784 -91 
Q 1150 -91 751 415 
Q 353 922 353 1747 
Q 353 2572 751 3078 
Q 1150 3584 1784 3584 
Q 2172 3584 2448 3432 
Q 2725 3281 2906 2969 
z
M 947 1747 
Q 947 1113 1208 752 
Q 1469 391 1925 391 
Q 2381 391 2643 752 
Q 2906 1113 2906 1747 
Q 2906 2381 2643 2742 
Q 2381 3103 1925 3103 
Q 1469 3103 1208 2742 
Q 947 2381 947 1747 
z
" transform="scale(0.015625)"/>
       <path id="DejaVuSans-42" d="M 1259 2228 
L 1259 519 
L 2272 519 
Q 2781 519 3026 730 
Q 3272 941 3272 1375 
Q 3272 1813 3026 2020 
Q 2781 2228 2272 2228 
L 1259 2228 
z
M 1259 4147 
L 1259 2741 
L 2194 2741 
Q 2656 2741 2882 2914 
Q 3109 3088 3109 3444 
Q 3109 3797 2882 3972 
Q 2656 4147 2194 4147 
L 1259 4147 
z
M 628 4666 
L 2241 4666 
Q 2963 4666 3353 4366 
Q 3744 4066 3744 3513 
Q 3744 3084 3544 2831 
Q 3344 2578 2956 2516 
Q 3422 2416 3680 2098 
Q 3938 1781 3938 1306 
Q 3938 681 3513 340 
Q 3088 0 2303 0 
L 628 0 
L 628 4666 
z
" transform="scale(0.015625)"/>
      </defs>
      <use xlink:href="#DejaVuSans-56"/>
      <use xlink:href="#DejaVuSans-65" transform="translate(60.658203 0)"/>
      <use xlink:href="#DejaVuSans-72" transform="translate(122.181641 0)"/>
      <use xlink:href="#DejaVuSans-73" transform="translate(163.294922 0)"/>
      <use xlink:href="#DejaVuSans-74" transform="translate(215.394531 0)"/>
      <use xlink:href="#DejaVuSans-e4" transform="translate(254.603516 0)"/>
      <use xlink:href="#DejaVuSans-72" transform="translate(315.882812 0)"/>
      <use xlink:href="#DejaVuSans-6b" transform="translate(356.996094 0)"/>
      <use xlink:href="#DejaVuSans-75" transform="translate(411.78125 0)"/>
      <use xlink:href="#DejaVuSans-6e" transform="translate(475.160156 0)"/>
      <use xlink:href="#DejaVuSans-67" transform="translate(538.539062 0)"/>
      <use xlink:href="#DejaVuSans-20" transform="translate(602.015625 0)"/>
      <use xlink:href="#DejaVuSans-28" transform="translate(633.802734 0)"/>
      <use xlink:href="#DejaVuSans-69" transform="translate(672.816406 0)"/>
      <use xlink:href="#DejaVuSans-6e" transform="translate(700.599609 0)"/>
      <use xlink:href="#DejaVuSans-20" transform="translate(763.978516 0)"/>
      <use xlink:href="#DejaVuSans-64" transform="translate(795.765625 0)"/>
      <use xlink:href="#DejaVuSans-42" transform="translate(859.242188 0)"/>
      <use xlink:href="#DejaVuSans-29" transform="translate(927.845703 0)"/>
     </g>
    </g>
   </g>
   <g id="line2d_31">
    <path d="M 57.6 123.433901 
L 60.637039 123.538824 
L 63.674077 123.855205 
L 66.711116 124.387965 
L 69.748154 125.145575 
L 72.785193 126.140505 
L 75.643582 127.308993 
L 78.501971 128.721746 
L 81.181711 130.289702 
L 83.861451 132.119579 
L 86.362541 134.092703 
L 88.863632 136.356761 
L 91.186073 138.757715 
L 93.508514 141.492397 
L 95.652306 144.363555 
L 97.796098 147.629893 
L 99.761241 151.040001 
L 101.547734 154.557584 
L 103.334227 158.560765 
L 104.942071 162.675602 
L 106.549915 167.399592 
L 107.97911 172.248534 
L 109.408304 177.893017 
L 110.658849 183.693889 
L 111.909395 190.591222 
L 112.981291 197.718722 
L 114.053187 206.481853 
L 114.946433 215.669438 
L 115.661031 224.944508 
L 116.375628 237.02148 
L 116.911576 249.231608 
L 117.447524 266.690321 
L 117.804822 284.516489 
L 118.162121 316.352303 
L 118.314989 346.6 
M 118.656628 346.6 
L 118.698069 330.694504 
L 119.055368 290.294929 
L 119.591316 262.608403 
L 120.127264 245.954811 
L 120.841861 230.626653 
L 121.735108 216.898404 
L 122.628354 206.455167 
L 123.70025 196.492578 
L 124.950795 187.115851 
L 126.201341 179.343543 
L 127.630535 171.817055 
L 129.238379 164.585585 
L 131.024872 157.665402 
L 132.811366 151.61969 
L 134.776508 145.739665 
L 136.9203 140.041662 
L 139.242741 134.533225 
L 141.565183 129.578011 
L 144.066273 124.744722 
L 146.746013 120.043823 
L 149.604402 115.482876 
L 152.641441 111.067727 
L 155.857129 106.803377 
L 159.072816 102.901731 
L 162.467154 99.125357 
L 166.04014 95.483845 
L 169.791776 91.986836 
L 173.543412 88.789621 
L 177.473697 85.731226 
L 181.582631 82.824883 
L 185.691566 80.192968 
L 189.8005 77.816609 
L 194.088084 75.592914 
L 198.375668 73.61682 
L 202.663252 71.87695 
L 207.129485 70.305869 
L 211.595718 68.972752 
L 216.061951 67.870954 
L 220.528184 66.995284 
L 224.994417 66.341801 
L 229.46065 65.90767 
L 233.926883 65.691056 
L 238.393117 65.691056 
L 242.85935 65.90767 
L 247.325583 66.341801 
L 251.791816 66.995284 
L 256.258049 67.870954 
L 260.724282 68.972752 
L 265.190515 70.305869 
L 269.656748 71.87695 
L 273.944332 73.61682 
L 278.231916 75.592914 
L 282.5195 77.816609 
L 286.628434 80.192968 
L 290.737369 82.824883 
L 294.667654 85.598857 
L 298.597939 88.644348 
L 302.349575 91.828037 
L 306.101211 95.310034 
L 309.674197 98.9355 
L 313.068534 102.694615 
L 316.284222 106.577589 
L 319.49991 110.820345 
L 322.536948 115.211585 
L 325.395338 119.745894 
L 328.075078 124.416949 
L 330.576168 129.216646 
L 332.898609 134.13391 
L 335.221051 139.595376 
L 337.364842 145.238688 
L 339.329985 151.054754 
L 341.116478 157.025486 
L 342.724322 163.1187 
L 344.332166 170.111165 
L 345.761361 177.344399 
L 347.011906 184.757489 
L 348.262451 193.609462 
L 349.334347 202.88163 
L 350.227594 212.420708 
L 351.12084 224.608551 
L 351.835438 237.614843 
L 352.371386 250.820968 
L 352.907334 269.998803 
L 353.264632 290.294929 
L 353.621931 330.694504 
L 353.663372 346.6 
M 354.005011 346.6 
L 354.336528 297.468894 
L 354.693827 274.653365 
L 355.229775 254.27114 
L 355.944372 237.02148 
L 356.658969 224.944508 
L 357.552216 213.652787 
L 358.624112 203.335344 
L 359.696008 195.191224 
L 360.946553 187.476885 
L 362.197099 181.092923 
L 363.626293 174.957203 
L 365.055488 169.737375 
L 366.663332 164.691158 
L 368.271176 160.32304 
L 370.057669 156.094844 
L 372.022811 152.049883 
L 373.987954 148.517166 
L 376.131746 145.140328 
L 378.275538 142.176746 
L 380.597979 139.357285 
L 382.92042 136.883755 
L 385.421511 134.55204 
L 387.922601 132.519735 
L 390.602341 130.633785 
L 393.282081 129.015709 
L 396.14047 127.554625 
L 398.998859 126.341926 
L 402.035898 125.303483 
L 405.072936 124.505022 
L 408.109975 123.933305 
L 411.147014 123.579194 
L 414.184052 123.437164 
L 414.72 123.433901 
L 414.72 123.433901 
" clip-path="url(#p2eb2a53ef2)" style="fill: none; stroke: #1f77b4; stroke-width: 1.5; stroke-linecap: square"/>
   </g>
   <g id="line2d_32">
    <path d="M 57.6 129.18762 
L 61.351636 129.301025 
L 64.924622 129.624476 
L 68.497609 130.171511 
L 71.891946 130.918702 
L 75.107634 131.856643 
L 78.144672 132.977145 
L 81.003062 134.271531 
L 83.682801 135.729318 
L 86.183892 137.337158 
L 88.506333 139.077977 
L 90.828774 141.096389 
L 92.972566 143.246974 
L 95.116358 145.721905 
L 97.081501 148.326796 
L 99.046643 151.314752 
L 100.833137 154.42913 
L 102.61963 158.002982 
L 104.227474 161.698959 
L 105.835318 165.958039 
L 107.264512 170.335297 
L 108.693707 175.422874 
L 109.944252 180.627087 
L 111.194797 186.762437 
L 112.266693 193.019623 
L 113.338589 200.56291 
L 114.231836 208.251147 
L 115.125083 217.854381 
L 115.83968 227.680117 
L 116.554277 240.720508 
L 117.090225 254.281768 
L 117.626173 274.657393 
L 117.983472 297.470254 
L 118.162121 316.352856 
L 118.314988 346.6 
M 118.656628 346.6 
L 118.698069 330.694784 
L 119.055368 290.296843 
L 119.591316 262.61555 
L 120.127264 245.970601 
L 120.841861 230.659408 
L 121.735108 216.961378 
L 122.628354 206.558731 
L 123.70025 196.659089 
L 124.950795 187.376302 
L 126.201341 179.721087 
L 127.630535 172.358269 
L 129.05973 166.074882 
L 130.667574 159.974314 
L 132.454067 154.122479 
L 134.24056 149.039895 
L 136.027054 144.582137 
L 137.992196 140.281079 
L 139.957339 136.520036 
L 141.922481 133.231699 
L 143.887624 130.367775 
L 145.852766 127.89373 
L 147.817909 125.785461 
L 149.604402 124.172833 
L 151.390895 122.842537 
L 153.177389 121.792039 
L 154.785233 121.087017 
L 156.393077 120.613809 
L 158.00092 120.37924 
L 159.430115 120.379053 
L 160.85931 120.584619 
L 162.288504 121.007938 
L 163.717699 121.664163 
L 165.146893 122.572313 
L 166.576088 123.75629 
L 168.005283 125.246286 
L 169.434477 127.080818 
L 170.863672 129.309721 
L 172.292866 131.998674 
L 173.543412 134.797815 
L 174.793957 138.097017 
L 176.044502 142.006759 
L 177.295048 146.684343 
L 178.366943 151.479592 
L 179.438839 157.233383 
L 180.510735 164.298615 
L 181.403982 171.610858 
L 182.297229 180.864647 
L 183.011826 190.43957 
L 183.726423 203.276405 
L 184.262371 216.753352 
L 184.798319 237.219106 
L 185.155618 260.468495 
L 185.334267 280.075958 
L 185.684535 346.6 
M 185.695092 346.6 
L 186.048864 265.521448 
L 186.406163 239.246483 
L 186.942111 216.771127 
L 187.656708 198.007557 
L 188.371306 184.851328 
L 189.264552 172.445607 
L 190.336448 160.95527 
L 191.408344 151.737718 
L 192.658889 142.852659 
L 194.088084 134.383453 
L 195.517279 127.189079 
L 197.125123 120.213075 
L 198.911616 113.511525 
L 200.698109 107.666566 
L 202.663252 102.022666 
L 204.628394 97.050624 
L 206.593537 92.639977 
L 208.737329 88.374754 
L 210.881121 84.605027 
L 213.024912 81.272915 
L 215.168704 78.334176 
L 217.312496 75.754456 
L 219.456288 73.50677 
L 221.60008 71.569771 
L 223.743872 69.926533 
L 225.887664 68.56368 
L 228.031456 67.470758 
L 230.175248 66.639777 
L 232.31904 66.064889 
L 234.284182 65.759485 
L 236.249325 65.664216 
L 238.214467 65.778549 
L 240.17961 66.103123 
L 242.144752 66.639777 
L 244.109895 67.391599 
L 246.253687 68.462419 
L 248.397479 69.802415 
L 250.541271 71.421821 
L 252.685063 73.333747 
L 254.828854 75.554795 
L 256.972646 78.105902 
L 259.116438 81.013526 
L 261.26023 84.311324 
L 263.404022 88.042592 
L 265.369165 91.891709 
L 267.334307 96.209616 
L 269.29945 101.072423 
L 271.085943 106.052788 
L 272.872436 111.677222 
L 274.658929 118.099429 
L 276.266773 124.747995 
L 277.695968 131.557343 
L 279.125163 139.498824 
L 280.375708 147.725311 
L 281.447604 156.121519 
L 282.5195 166.346115 
L 283.412746 177.012097 
L 284.127344 187.797323 
L 284.841941 202.005239 
L 285.377889 216.771127 
L 285.913837 239.246483 
L 286.271136 265.521448 
L 286.449785 289.18884 
L 286.624908 346.6 
M 286.635465 346.6 
L 287.343032 247.221003 
L 287.878979 222.494268 
L 288.414927 207.278819 
L 289.129525 193.269471 
L 290.022771 180.864647 
L 290.916018 171.610858 
L 291.987914 163.008875 
L 293.05981 156.195068 
L 294.310355 149.787684 
L 295.5609 144.572871 
L 296.811446 140.247649 
L 298.24064 136.144916 
L 299.669835 132.752538 
L 301.09903 129.935829 
L 302.528224 127.59882 
L 303.957419 125.670893 
L 305.386613 124.098757 
L 306.815808 122.84139 
L 308.245003 121.866741 
L 309.674197 121.149489 
L 311.103392 120.669501 
L 312.532586 120.410734 
L 313.961781 120.360458 
L 315.569625 120.540761 
L 317.177469 120.961632 
L 318.785313 121.61558 
L 320.393157 122.498017 
L 322.17965 123.744295 
L 323.966143 125.271708 
L 325.752636 127.085758 
L 327.53913 129.196539 
L 329.504272 131.879653 
L 331.469415 134.97001 
L 333.434557 138.509137 
L 335.3997 142.554881 
L 337.186193 146.740008 
L 338.972686 151.495326 
L 340.75918 156.940874 
L 342.367024 162.575413 
L 343.974867 169.100695 
L 345.404062 175.883311 
L 346.654607 182.839227 
L 347.905153 191.116883 
L 348.977049 199.717042 
L 349.870295 208.450382 
L 350.763542 219.37685 
L 351.478139 230.659408 
L 352.192736 245.970601 
L 352.728684 262.61555 
L 353.085983 278.94958 
L 353.443282 305.84188 
L 353.663372 346.6 
M 354.005012 346.6 
L 354.336528 297.470254 
L 354.693827 274.657393 
L 355.229775 254.281768 
L 355.944372 237.045638 
L 356.658969 224.987438 
L 357.552216 213.726289 
L 358.445463 204.988484 
L 359.517359 196.601033 
L 360.767904 188.730325 
L 362.018449 182.272885 
L 363.447644 176.118647 
L 364.876838 170.928725 
L 366.484682 165.958039 
L 368.092526 161.698959 
L 369.87902 157.622175 
L 371.665513 154.098487 
L 373.630655 150.739755 
L 375.595798 147.826653 
L 377.73959 145.069729 
L 379.883382 142.680959 
L 382.205823 140.443127 
L 384.528264 138.514707 
L 387.029355 136.733206 
L 389.530445 135.214877 
L 392.210185 133.839937 
L 395.068574 132.621973 
L 398.105613 131.571923 
L 401.321301 130.699135 
L 404.715638 130.012726 
L 408.288624 129.523323 
L 411.861611 129.253348 
L 414.72 129.18762 
L 414.72 129.18762 
" clip-path="url(#p2eb2a53ef2)" style="fill: none; stroke: #ff7f0e; stroke-width: 1.5; stroke-linecap: square"/>
   </g>
   <g id="line2d_33">
    <path d="M 57.6 156.59348 
L 60.815688 156.476085 
L 64.031376 156.134635 
L 67.604362 155.5315 
L 72.427894 154.470107 
L 79.752516 152.849994 
L 82.968204 152.383613 
L 85.469295 152.228959 
L 87.791736 152.307015 
L 89.756878 152.581642 
L 91.722021 153.087429 
L 93.508514 153.784069 
L 95.116358 154.635777 
L 96.724202 155.733309 
L 98.332046 157.114211 
L 99.93989 158.82364 
L 101.369085 160.663571 
L 102.798279 162.855347 
L 104.227474 165.46011 
L 105.656668 168.55696 
L 107.085863 172.25147 
L 108.336408 176.088029 
L 109.586953 180.631159 
L 110.837499 186.080324 
L 111.909395 191.699123 
L 112.981291 198.506363 
L 113.874537 205.436292 
L 114.767784 214.02081 
L 115.661031 225.159334 
L 116.375628 237.142325 
L 116.911576 249.299174 
L 117.447524 266.719751 
L 117.804822 284.529087 
L 118.162121 316.355071 
L 118.314984 346.6 
M 118.65663 346.6 
L 118.698069 330.695904 
L 119.055368 290.304498 
L 119.591316 262.644144 
L 120.127264 246.033784 
L 120.841861 230.790527 
L 121.735108 217.213652 
L 122.628354 206.974015 
L 123.70025 197.327792 
L 124.772146 189.576409 
L 126.022691 182.185821 
L 127.273237 176.097775 
L 128.523782 171.008367 
L 129.774327 166.72496 
L 131.024872 163.119774 
L 132.275418 160.105765 
L 133.525963 157.623158 
L 134.776508 155.631558 
L 135.848404 154.295415 
L 136.9203 153.291663 
L 137.992196 152.616683 
L 138.885443 152.306384 
L 139.778689 152.229203 
L 140.671936 152.391547 
L 141.565183 152.802736 
L 142.458429 153.475401 
L 143.351676 154.42608 
L 144.244922 155.67607 
L 145.316818 157.610074 
L 146.388714 160.077086 
L 147.46061 163.162394 
L 148.532506 166.985457 
L 149.604402 171.719375 
L 150.676298 177.627056 
L 151.569545 183.746324 
L 152.462791 191.380377 
L 153.356038 201.250961 
L 154.070635 211.691754 
L 154.785233 226.094243 
L 155.321181 241.876567 
L 155.678479 257.335135 
L 156.035778 282.350786 
L 156.214427 304.465 
L 156.365279 346.6 
M 156.524354 346.6 
L 156.571726 343.798251 
L 156.929025 279.932215 
L 157.286323 255.582633 
L 157.822271 234.22134 
L 158.536868 216.273009 
L 159.251466 203.750777 
L 160.144712 192.095796 
L 161.037959 183.115428 
L 162.109855 174.609566 
L 163.181751 167.826477 
L 164.253647 162.314261 
L 165.325543 157.80183 
L 166.397439 154.116701 
L 167.469335 151.145443 
L 168.541231 148.812901 
L 169.434477 147.321456 
L 170.327724 146.222469 
L 171.22097 145.507029 
L 171.935568 145.209608 
L 172.650165 145.159187 
L 173.364762 145.361444 
L 174.07936 145.8254 
L 174.793957 146.563865 
L 175.508554 147.594113 
L 176.401801 149.327522 
L 177.295048 151.613048 
L 178.188294 154.534833 
L 179.081541 158.212551 
L 179.974787 162.821655 
L 180.868034 168.631286 
L 181.761281 176.08211 
L 182.475878 183.736551 
L 183.190475 193.688365 
L 183.905073 207.488714 
L 184.441021 222.594259 
L 184.798319 237.268169 
L 185.155618 260.484546 
L 185.334267 280.082237 
L 185.684533 346.6 
M 185.695093 346.6 
L 186.048864 265.533745 
L 186.406163 239.288998 
L 186.942111 216.893276 
L 187.656708 198.300607 
L 188.371306 185.390393 
L 189.264552 173.400152 
L 190.157799 164.177329 
L 191.229695 155.463385 
L 192.301591 148.544978 
L 193.373487 142.963357 
L 194.445383 138.446495 
L 195.517279 134.824677 
L 196.589175 131.990373 
L 197.482421 130.181487 
L 198.375668 128.851628 
L 199.090265 128.126207 
L 199.804862 127.70218 
L 200.51946 127.585167 
L 201.055408 127.705179 
L 201.591356 128.010547 
L 202.305953 128.72163 
L 203.02055 129.806204 
L 203.735148 131.302428 
L 204.449745 133.262064 
L 205.342991 136.473517 
L 206.236238 140.724344 
L 207.129485 146.336321 
L 207.844082 152.161865 
L 208.558679 159.686148 
L 209.273277 169.802439 
L 209.809225 180.173309 
L 210.345173 194.890109 
L 210.702471 209.373108 
L 211.05977 232.602269 
L 211.238419 252.517486 
L 211.595718 312.68496 
L 211.953017 235.133662 
L 212.310315 208.959093 
L 212.846263 186.245438 
L 213.56086 167.053941 
L 214.275458 153.474898 
L 215.168704 140.593211 
L 216.2406 128.62857 
L 217.312496 119.049465 
L 218.563042 109.887465 
L 219.813587 102.277707 
L 221.242781 94.997462 
L 222.671976 88.897466 
L 224.101171 83.754587 
L 225.530365 79.419035 
L 226.95956 75.786196 
L 228.388754 72.781043 
L 229.6393 70.623104 
L 230.889845 68.876523 
L 232.14039 67.520862 
L 233.212286 66.658529 
L 234.284182 66.065623 
L 235.356078 65.737654 
L 236.427974 65.672181 
L 237.49987 65.868721 
L 238.571766 66.328728 
L 239.643662 67.055653 
L 240.715558 68.055065 
L 241.787454 69.334874 
L 243.037999 71.196634 
L 244.288544 73.47676 
L 245.53909 76.204661 
L 246.789635 79.419035 
L 248.218829 83.754587 
L 249.648024 88.897466 
L 251.077219 94.997462 
L 252.327764 101.292816 
L 253.578309 108.716389 
L 254.828854 117.624857 
L 255.90075 126.893258 
L 256.972646 138.382719 
L 257.865893 150.608437 
L 258.58049 163.277613 
L 259.295088 180.650784 
L 259.831036 200.050384 
L 260.188334 220.120808 
L 260.545633 258.304307 
L 260.724282 312.68496 
L 260.902931 292.640329 
L 261.26023 232.602269 
L 261.617529 209.373108 
L 262.153477 189.302798 
L 262.689425 176.357566 
L 263.404022 164.336918 
L 264.118619 155.669483 
L 265.011866 147.664271 
L 265.905113 141.724555 
L 266.798359 137.232392 
L 267.691606 133.832149 
L 268.584852 131.302428 
L 269.478099 129.49816 
L 270.192696 128.510091 
L 270.907294 127.887665 
L 271.621891 127.60503 
L 272.157839 127.604749 
L 272.693787 127.779708 
L 273.408384 128.279418 
L 274.122981 129.079879 
L 275.016228 130.504443 
L 275.909475 132.411289 
L 276.802721 134.824677 
L 277.874617 138.446495 
L 278.946513 142.963357 
L 280.018409 148.544978 
L 281.090305 155.463385 
L 281.983552 162.571591 
L 282.876798 171.374108 
L 283.770045 182.697878 
L 284.484642 194.68681 
L 285.02059 206.597694 
L 285.556538 223.14352 
L 285.913837 239.288998 
L 286.271136 265.533745 
L 286.449785 289.192847 
L 286.624907 346.6 
M 286.635467 346.6 
L 287.343032 247.251317 
L 287.878979 222.594259 
L 288.414927 207.488714 
L 289.129525 193.688365 
L 289.844122 183.736551 
L 290.737369 174.43009 
L 291.630615 167.355615 
L 292.523862 161.814205 
L 293.595758 156.641098 
L 294.667654 152.699669 
L 295.5609 150.1714 
L 296.454147 148.225514 
L 297.347394 146.793286 
L 298.24064 145.8254 
L 298.955238 145.361444 
L 299.669835 145.159187 
L 300.384432 145.209608 
L 301.09903 145.507029 
L 301.813627 146.048848 
L 302.706873 147.070659 
L 303.60012 148.482521 
L 304.493367 150.299823 
L 305.565263 153.051323 
L 306.637159 156.488095 
L 307.709055 160.709084 
L 308.78095 165.863913 
L 309.852846 172.184541 
L 310.924742 180.048904 
L 311.817989 188.24791 
L 312.711236 198.677855 
L 313.425833 209.54119 
L 314.14043 224.298695 
L 314.676378 240.218995 
L 315.033677 255.582633 
L 315.390975 279.932215 
L 315.569625 300.783611 
L 315.795646 346.6 
M 315.954721 346.6 
L 316.284222 282.350786 
L 316.641521 257.335135 
L 317.177469 235.902595 
L 317.892066 218.232636 
L 318.606663 206.107907 
L 319.49991 195.002614 
L 320.393157 186.587388 
L 321.465053 178.752212 
L 322.536948 172.613547 
L 323.608844 167.705466 
L 324.68074 163.744465 
L 325.752636 160.545641 
L 326.824532 157.982255 
L 327.896428 155.964263 
L 328.968324 154.42608 
L 329.861571 153.475401 
L 330.754817 152.802736 
L 331.648064 152.391547 
L 332.541311 152.229203 
L 333.434557 152.306384 
L 334.327804 152.616683 
L 335.221051 153.156354 
L 336.292946 154.105205 
L 337.364842 155.385466 
L 338.436738 157.005397 
L 339.687284 159.344304 
L 340.937829 162.201346 
L 342.188374 165.630126 
L 343.438919 169.708831 
L 344.689465 174.551745 
L 345.94001 180.329542 
L 347.190555 187.307449 
L 348.262451 194.568241 
L 349.334347 203.497031 
L 350.227594 212.811008 
L 351.12084 224.826844 
L 351.835438 237.73232 
L 352.371386 250.883609 
L 352.907334 270.023945 
L 353.264632 290.304498 
L 353.621931 330.695904 
L 353.66337 346.6 
M 354.005016 346.6 
L 354.336528 297.475695 
L 354.693827 274.67351 
L 355.229775 254.324293 
L 355.944372 237.142325 
L 356.658969 225.159334 
L 357.552216 214.02081 
L 358.445463 205.436292 
L 359.517359 197.271612 
L 360.589255 190.690023 
L 361.8398 184.415814 
L 363.090345 179.25088 
L 364.34089 174.926702 
L 365.770085 170.787814 
L 367.19928 167.33198 
L 368.628474 164.430377 
L 370.057669 161.988644 
L 371.665513 159.702906 
L 373.273357 157.830374 
L 374.881201 156.309578 
L 376.489045 155.091138 
L 378.096888 154.13441 
L 379.883382 153.336906 
L 381.669875 152.780434 
L 383.635018 152.405714 
L 385.778809 152.235102 
L 388.101251 152.279155 
L 390.78099 152.55985 
L 393.996678 153.125826 
L 399.177509 154.301232 
L 405.430235 155.668097 
L 409.181871 156.250509 
L 412.397559 156.532022 
L 414.72 156.59348 
L 414.72 156.59348 
" clip-path="url(#p2eb2a53ef2)" style="fill: none; stroke: #2ca02c; stroke-width: 1.5; stroke-linecap: square"/>
   </g>
   <g id="line2d_34">
    <path d="M 57.6 189.480431 
L 59.386493 189.591831 
L 61.172986 189.930999 
L 62.95948 190.513095 
L 64.567324 191.266083 
L 66.175168 192.264635 
L 67.783012 193.546234 
L 69.212206 194.962784 
L 70.641401 196.686925 
L 72.070595 198.77647 
L 73.49979 201.306733 
L 74.750335 203.96027 
L 76.00088 207.117461 
L 77.251426 210.900622 
L 78.501971 215.482623 
L 79.573867 220.237181 
L 80.645763 226.01052 
L 81.717659 233.19116 
L 82.610905 240.720557 
L 83.504152 250.388036 
L 84.218749 260.564057 
L 84.933347 274.533512 
L 85.469295 289.731048 
L 85.826593 304.450391 
L 86.183892 327.700636 
L 86.356052 346.6 
M 86.972649 346.6 
L 87.255788 317.651941 
L 87.791736 290.341743 
L 88.327684 273.738722 
L 89.042281 258.379325 
L 89.935528 244.59755 
L 90.828774 234.138345 
L 91.90067 224.236683 
L 92.972566 216.25369 
L 94.223112 208.636622 
L 95.473657 202.381756 
L 96.724202 197.197867 
L 97.974747 192.905708 
L 99.225293 189.392426 
L 100.475838 186.588188 
L 101.547734 184.718366 
L 102.44098 183.527585 
L 103.334227 182.670231 
L 104.227474 182.15121 
L 104.942071 181.986265 
L 105.656668 182.052128 
L 106.371266 182.359283 
L 107.085863 182.921241 
L 107.80046 183.755119 
L 108.693707 185.213159 
L 109.586953 187.184793 
L 110.4802 189.743635 
L 111.373447 192.990739 
L 112.266693 197.068917 
L 113.15994 202.18831 
L 114.053187 208.675763 
L 114.946433 217.080631 
L 115.661031 225.849751 
L 116.375628 237.529965 
L 116.911576 249.515676 
L 117.447524 266.813981 
L 117.804822 284.569412 
L 118.162121 316.363932 
L 118.314971 346.6 
M 118.656639 346.6 
L 118.698069 330.700381 
L 119.055368 290.335125 
L 119.591316 262.758597 
L 120.127264 246.286899 
L 120.841861 231.316653 
L 121.556458 220.505464 
L 122.449705 210.360564 
L 123.342951 202.634835 
L 124.236198 196.604968 
L 125.129445 191.87243 
L 126.022691 188.200549 
L 126.915938 185.444079 
L 127.630535 183.837542 
L 128.345133 182.733861 
L 128.881081 182.227959 
L 129.417029 181.99647 
L 129.952976 182.041986 
L 130.488924 182.370796 
L 131.024872 182.99318 
L 131.56082 183.92394 
L 132.275418 185.680403 
L 132.990015 188.088524 
L 133.704612 191.244777 
L 134.41921 195.29 
L 135.133807 200.436149 
L 135.848404 207.018555 
L 136.563002 215.609352 
L 137.277599 227.304364 
L 137.813547 239.518639 
L 138.349495 257.481697 
L 138.706793 276.404051 
L 139.064092 312.3851 
L 139.191281 346.6 
M 139.454293 346.6 
L 139.778689 289.230116 
L 140.135988 264.757895 
L 140.671936 243.487392 
L 141.386533 225.874117 
L 142.101131 213.868097 
L 142.994377 203.099567 
L 143.887624 195.282474 
L 144.78087 189.519109 
L 145.674117 185.343742 
L 146.388714 182.969584 
L 147.103312 181.370053 
L 147.63926 180.653163 
L 148.175208 180.341626 
L 148.532506 180.359347 
L 148.889805 180.55983 
L 149.425753 181.212288 
L 149.961701 182.30611 
L 150.497649 183.872961 
L 151.212246 186.778719 
L 151.926843 190.769315 
L 152.641441 196.101453 
L 153.356038 203.202981 
L 154.070635 212.849971 
L 154.606583 222.666805 
L 155.142531 236.258049 
L 155.678479 257.461956 
L 156.035778 282.389132 
L 156.214427 304.478354 
L 156.365268 346.6 
M 156.524385 346.6 
L 156.571726 343.800297 
L 156.929025 279.974854 
L 157.286323 255.718276 
L 157.822271 234.596212 
L 158.536868 217.157494 
L 159.251466 205.370858 
L 159.966063 196.764414 
L 160.85931 188.915964 
L 161.573907 184.341173 
L 162.288504 180.97655 
L 163.003102 178.662877 
L 163.53905 177.561469 
L 164.074997 176.981087 
L 164.432296 176.88051 
L 164.789595 177.010537 
L 165.146893 177.375384 
L 165.682841 178.379055 
L 166.218789 179.964609 
L 166.754737 182.1891 
L 167.469335 186.29998 
L 168.183932 192.020567 
L 168.898529 199.913397 
L 169.613127 211.073655 
L 170.149075 223.005515 
L 170.685023 240.83033 
L 171.042321 259.829759 
L 171.39962 296.522609 
L 171.574318 346.6 
M 171.592769 346.6 
L 171.756918 333.777769 
L 172.114217 271.039298 
L 172.471516 246.903527 
L 173.007464 225.851067 
L 173.722061 208.499338 
L 174.436658 196.841737 
L 175.151256 188.421939 
L 175.865853 182.188031 
L 176.58045 177.603879 
L 177.295048 174.372271 
L 177.830995 172.732609 
L 178.366943 171.720044 
L 178.724242 171.383838 
L 179.081541 171.317335 
L 179.438839 171.523337 
L 179.796138 172.008308 
L 180.332086 173.282957 
L 180.868034 175.265491 
L 181.403982 178.042778 
L 182.118579 183.220182 
L 182.833177 190.586764 
L 183.369125 198.138138 
L 183.905073 208.332529 
L 184.441021 222.995179 
L 184.798319 237.464648 
L 185.155618 260.548772 
L 185.334267 280.107358 
L 185.684526 346.6 
M 185.695097 346.6 
L 186.048864 265.582943 
L 186.406163 239.459228 
L 186.942111 217.3833 
L 187.478059 203.227617 
L 188.192656 190.171078 
L 188.907254 180.940114 
L 189.621851 174.200977 
L 190.336448 169.30641 
L 191.051046 165.90998 
L 191.586993 164.22918 
L 192.122941 163.243304 
L 192.48024 162.963501 
L 192.837539 162.986195 
L 193.194837 163.316899 
L 193.552136 163.965947 
L 194.088084 165.572677 
L 194.624032 168.015009 
L 195.15998 171.422597 
L 195.695928 175.998779 
L 196.231876 182.072901 
L 196.767824 190.214742 
L 197.303772 201.525304 
L 197.83972 218.578945 
L 198.197019 236.727927 
L 198.554317 270.937543 
L 198.732966 313.877772 
L 198.911616 323.498144 
L 199.268914 251.369574 
L 199.626213 226.036981 
L 200.162161 204.260632 
L 200.876758 186.432304 
L 201.591356 174.517296 
L 202.305953 165.978271 
L 203.02055 159.74409 
L 203.735148 155.279578 
L 204.449745 152.300213 
L 204.985693 150.950655 
L 205.342991 150.456876 
L 205.70029 150.286839 
L 206.057589 150.44556 
L 206.414887 150.943596 
L 206.772186 151.797749 
L 207.308134 153.802205 
L 207.844082 156.788739 
L 208.38003 160.955288 
L 208.915978 166.624963 
L 209.451926 174.358382 
L 209.987874 185.238359 
L 210.523822 201.786671 
L 210.881121 219.454393 
L 211.238419 252.545168 
L 211.595718 312.686497 
L 211.953017 235.193673 
L 212.310315 209.162606 
L 212.846263 186.825381 
L 213.56086 168.443474 
L 214.275458 156.039934 
L 214.990055 147.038251 
L 215.704652 140.355375 
L 216.41925 135.452554 
L 217.133847 132.046083 
L 217.669795 130.38627 
L 218.205743 129.469365 
L 218.563042 129.274526 
L 218.92034 129.424089 
L 219.277639 129.935271 
L 219.634937 130.833427 
L 220.170885 132.987665 
L 220.706833 136.278371 
L 221.242781 141.005474 
L 221.778729 147.688089 
L 222.314677 157.317552 
L 222.850625 172.144597 
L 223.207924 187.887654 
L 223.565223 216.053732 
L 223.743872 245.299289 
L 223.874096 346.6 
M 223.969545 346.6 
L 224.101171 241.157754 
L 224.458469 194.809639 
L 224.994417 164.368758 
L 225.530365 146.026866 
L 226.244962 129.035665 
L 227.138209 113.80727 
L 228.031456 102.373061 
L 228.924702 93.391243 
L 229.996598 84.921969 
L 231.068494 78.379941 
L 231.961741 74.130018 
L 232.854987 70.827016 
L 233.748234 68.38115 
L 234.462831 67.000683 
L 235.177429 66.110135 
L 235.713377 65.756022 
L 236.249325 65.667679 
L 236.785273 65.844439 
L 237.321221 66.28764 
L 237.857169 67.000683 
L 238.571766 68.38115 
L 239.286363 70.271554 
L 240.17961 73.397056 
L 241.072856 77.44858 
L 241.966103 82.549294 
L 242.85935 88.884263 
L 243.752596 96.7417 
L 244.645843 106.599016 
L 245.53909 119.327838 
L 246.253687 132.759893 
L 246.968284 151.398903 
L 247.504232 172.480932 
L 247.861531 194.809639 
L 248.04018 212.165307 
L 248.218829 241.157754 
L 248.350455 346.6 
M 248.445904 346.6 
L 248.576128 245.299289 
L 248.933427 199.423076 
L 249.290725 179.135231 
L 249.826673 161.500548 
L 250.362621 150.498492 
L 251.077219 141.005474 
L 251.791816 135.039865 
L 252.327764 132.154148 
L 252.863712 130.334024 
L 253.221011 129.633103 
L 253.578309 129.305353 
L 253.935608 129.329694 
L 254.292906 129.69244 
L 254.650205 130.38627 
L 255.186153 132.046083 
L 255.722101 134.468051 
L 256.436698 138.977046 
L 257.151296 145.17724 
L 257.865893 153.526974 
L 258.58049 164.925975 
L 259.116438 176.603334 
L 259.652386 193.05596 
L 260.009685 209.162606 
L 260.366983 235.193673 
L 260.545633 258.324486 
L 260.724282 312.686497 
L 260.902931 292.644374 
L 261.26023 232.67472 
L 261.617529 209.598604 
L 262.153477 189.917607 
L 262.689425 177.556139 
L 263.404022 166.624963 
L 264.118619 159.418798 
L 264.833217 154.680684 
L 265.369165 152.36561 
L 265.905113 150.943596 
L 266.262411 150.44556 
L 266.61971 150.286839 
L 266.977009 150.456876 
L 267.334307 150.950655 
L 267.870255 152.300213 
L 268.406203 154.403017 
L 268.942151 157.312555 
L 269.656748 162.614403 
L 270.371346 169.91087 
L 271.085943 179.948804 
L 271.621891 190.173371 
L 272.157839 204.260632 
L 272.693787 226.036981 
L 273.051086 251.369574 
L 273.229735 273.64159 
L 273.408384 323.498144 
L 273.587034 313.877772 
L 273.944332 250.335221 
L 274.301631 226.604141 
L 274.837579 206.359785 
L 275.373527 193.552149 
L 276.088124 182.072901 
L 276.802721 174.326661 
L 277.517319 169.035446 
L 278.231916 165.572677 
L 278.767864 163.965947 
L 279.303812 163.112519 
L 279.661111 162.936799 
L 280.018409 163.065758 
L 280.375708 163.496152 
L 280.911656 164.710783 
L 281.447604 166.630872 
L 281.983552 169.30641 
L 282.698149 174.200977 
L 283.412746 180.940114 
L 284.127344 190.171078 
L 284.841941 203.227617 
L 285.377889 217.3833 
L 285.913837 239.459228 
L 286.271136 265.582943 
L 286.449785 289.208876 
L 286.624903 346.6 
M 286.635474 346.6 
L 287.343032 247.372659 
L 287.878979 222.995179 
L 288.414927 208.332529 
L 289.129525 195.38098 
L 289.844122 186.581969 
L 290.558719 180.398606 
L 291.273317 176.097533 
L 291.987914 173.282957 
L 292.523862 172.008308 
L 292.881161 171.523337 
L 293.238459 171.317335 
L 293.595758 171.383838 
L 293.953057 171.720044 
L 294.310355 172.32668 
L 294.846303 173.754136 
L 295.382251 175.831743 
L 296.096848 179.712211 
L 296.811446 185.072822 
L 297.526043 192.310322 
L 298.24064 202.164421 
L 298.776588 212.147911 
L 299.312536 225.851067 
L 299.848484 246.903527 
L 300.205783 271.039298 
L 300.384432 291.675115 
L 300.727231 346.6 
M 300.745682 346.6 
L 301.09903 274.225237 
L 301.456328 249.21482 
L 301.992276 228.068542 
L 302.528224 214.612146 
L 303.242821 202.334633 
L 303.957419 193.75998 
L 304.672016 187.562691 
L 305.386613 183.08616 
L 306.101211 179.964609 
L 306.637159 178.379055 
L 307.173107 177.375384 
L 307.530405 177.010537 
L 307.887704 176.88051 
L 308.245003 176.981087 
L 308.602301 177.310642 
L 309.138249 178.236985 
L 309.674197 179.695273 
L 310.388794 182.519513 
L 311.103392 186.463726 
L 311.817989 191.735322 
L 312.532586 198.68812 
L 313.247184 207.958895 
L 313.961781 220.830787 
L 314.497729 234.596212 
L 315.033677 255.718276 
L 315.390975 279.974854 
L 315.569625 300.799437 
L 315.795615 346.6 
M 315.954732 346.6 
L 316.284222 282.389132 
L 316.641521 257.461956 
L 317.177469 236.258049 
L 317.713417 222.666805 
L 318.428014 210.133925 
L 319.142611 201.227996 
L 319.857209 194.62328 
L 320.571806 189.658062 
L 321.286403 185.958139 
L 322.001001 183.295644 
L 322.715598 181.526534 
L 323.251546 180.729765 
L 323.787494 180.359347 
L 324.144792 180.341626 
L 324.502091 180.504386 
L 325.038039 181.085793 
L 325.573987 182.076236 
L 326.109935 183.488233 
L 326.824532 186.066192 
L 327.53913 189.519109 
L 328.253727 193.984578 
L 328.968324 199.682827 
L 329.682921 206.978067 
L 330.397519 216.516654 
L 331.112116 229.593863 
L 331.648064 243.487392 
L 332.184012 264.757895 
L 332.541311 289.230116 
L 332.71996 310.358682 
L 332.865707 346.6 
M 333.128719 346.6 
L 333.434557 290.6155 
L 333.791856 265.85613 
L 334.327804 244.647834 
L 335.042401 227.304364 
L 335.756998 215.609352 
L 336.471596 207.018555 
L 337.364842 199.030908 
L 338.258089 193.145124 
L 339.151336 188.802857 
L 340.044582 185.680403 
L 340.75918 183.92394 
L 341.473777 182.752286 
L 342.009725 182.229168 
L 342.545673 181.995726 
L 343.081621 182.043057 
L 343.617569 182.366127 
L 344.153517 182.963546 
L 344.868114 184.191259 
L 345.582711 185.92701 
L 346.297309 188.200549 
L 347.190555 191.87243 
L 348.083802 196.604968 
L 348.977049 202.634835 
L 349.870295 210.360564 
L 350.584892 218.228879 
L 351.29949 228.314336 
L 352.014087 241.992587 
L 352.550035 256.513015 
L 353.085983 279.015288 
L 353.443282 305.860146 
L 353.663361 346.6 
M 354.005029 346.6 
L 354.336528 297.497462 
L 354.693827 274.738002 
L 355.229775 254.494564 
L 355.944372 237.529965 
L 356.658969 225.849751 
L 357.552216 215.207268 
L 358.445463 207.247027 
L 359.338709 201.067725 
L 360.231956 196.177974 
L 361.303852 191.601328 
L 362.197099 188.643912 
L 363.090345 186.330301 
L 363.983592 184.57173 
L 364.876838 183.30296 
L 365.591436 182.607435 
L 366.306033 182.174777 
L 367.02063 181.989756 
L 367.735228 182.040435 
L 368.449825 182.317688 
L 369.164422 182.814867 
L 370.057669 183.739133 
L 370.950915 184.996466 
L 372.022811 186.947155 
L 373.094707 189.392426 
L 374.166603 192.358143 
L 375.417149 196.533315 
L 376.667694 201.580741 
L 377.918239 207.668102 
L 378.990135 213.914676 
L 380.062031 221.396706 
L 381.133927 230.574372 
L 382.027174 240.107338 
L 382.92042 252.337662 
L 383.635018 265.388658 
L 384.170965 278.600885 
L 384.706913 297.672126 
L 385.064212 317.651941 
L 385.347351 346.6 
M 385.963948 346.6 
L 386.314757 314.451777 
L 386.850705 289.731048 
L 387.386653 274.533512 
L 388.101251 260.564057 
L 388.994497 248.231829 
L 389.887744 239.072516 
L 390.95964 230.608045 
L 392.031536 223.952879 
L 393.103432 218.553394 
L 394.353977 213.407098 
L 395.604522 209.192982 
L 396.855068 205.695769 
L 398.284262 202.388653 
L 399.713457 199.66893 
L 401.142651 197.424082 
L 402.571846 195.570504 
L 404.001041 194.04449 
L 405.608884 192.658214 
L 407.216728 191.570016 
L 408.824572 190.7387 
L 410.611066 190.079153 
L 412.397559 189.669178 
L 414.184052 189.490423 
L 414.72 189.480431 
L 414.72 189.480431 
" clip-path="url(#p2eb2a53ef2)" style="fill: none; stroke: #d62728; stroke-width: 1.5; stroke-linecap: square"/>
   </g>
   <g id="patch_3">
    <path d="M 57.6 307.584 
L 57.6 41.472 
" style="fill: none; stroke: #000000; stroke-width: 0.8; stroke-linejoin: miter; stroke-linecap: square"/>
   </g>
   <g id="patch_4">
    <path d="M 414.72 307.584 
L 414.72 41.472 
" style="fill: none; stroke: #000000; stroke-width: 0.8; stroke-linejoin: miter; stroke-linecap: square"/>
   </g>
   <g id="patch_5">
    <path d="M 57.6 307.584 
L 414.72 307.584 
" style="fill: none; stroke: #000000; stroke-width: 0.8; stroke-linejoin: miter; stroke-linecap: square"/>
   </g>
   <g id="patch_6">
    <path d="M 57.6 41.472 
L 414.72 41.472 
" style="fill: none; stroke: #000000; stroke-width: 0.8; stroke-linejoin: miter; stroke-linecap: square"/>
   </g>
   <g id="legend_1">
    <g id="patch_7">
     <path d="M 342.02 108.1845 
L 407.72 108.1845 
Q 409.72 108.1845 409.72 106.1845 
L 409.72 48.472 
Q 409.72 46.472 407.72 46.472 
L 342.02 46.472 
Q 340.02 46.472 340.02 48.472 
L 340.02 106.1845 
Q 340.02 108.1845 342.02 108.1845 
z
" style="fill: #ffffff; opacity: 0.8; stroke: #cccccc; stroke-linejoin: miter"/>
    </g>
    <g id="line2d_35">
     <path d="M 344.02 54.570438 
L 354.02 54.570438 
L 364.02 54.570438 
" style="fill: none; stroke: #1f77b4; stroke-width: 1.5; stroke-linecap: square"/>
    </g>
    <g id="text_18">
     <!-- $M=2$ -->
     <g transform="translate(372.02 58.070438) scale(0.1 -0.1)">
      <defs>
       <path id="DejaVuSans-Oblique-4d" d="M 1081 4666 
L 2028 4666 
L 2572 1522 
L 4378 4666 
L 5350 4666 
L 4441 0 
L 3828 0 
L 4622 4091 
L 2791 897 
L 2175 897 
L 1581 4103 
L 788 0 
L 172 0 
L 1081 4666 
z
" transform="scale(0.015625)"/>
       <path id="DejaVuSans-3d" d="M 678 2906 
L 4684 2906 
L 4684 2381 
L 678 2381 
L 678 2906 
z
M 678 1631 
L 4684 1631 
L 4684 1100 
L 678 1100 
L 678 1631 
z
" transform="scale(0.015625)"/>
      </defs>
      <use xlink:href="#DejaVuSans-Oblique-4d" transform="translate(0 0.78125)"/>
      <use xlink:href="#DejaVuSans-3d" transform="translate(105.761719 0.78125)"/>
      <use xlink:href="#DejaVuSans-32" transform="translate(209.033203 0.78125)"/>
     </g>
    </g>
    <g id="line2d_36">
     <path d="M 344.02 69.248563 
L 354.02 69.248563 
L 364.02 69.248563 
" style="fill: none; stroke: #ff7f0e; stroke-width: 1.5; stroke-linecap: square"/>
    </g>
    <g id="text_19">
     <!-- $M=4$ -->
     <g transform="translate(372.02 72.748563) scale(0.1 -0.1)">
      <use xlink:href="#DejaVuSans-Oblique-4d" transform="translate(0 0.09375)"/>
      <use xlink:href="#DejaVuSans-3d" transform="translate(105.761719 0.09375)"/>
      <use xlink:href="#DejaVuSans-34" transform="translate(209.033203 0.09375)"/>
     </g>
    </g>
    <g id="line2d_37">
     <path d="M 344.02 83.926688 
L 354.02 83.926688 
L 364.02 83.926688 
" style="fill: none; stroke: #2ca02c; stroke-width: 1.5; stroke-linecap: square"/>
    </g>
    <g id="text_20">
     <!-- $M=8$ -->
     <g transform="translate(372.02 87.426688) scale(0.1 -0.1)">
      <use xlink:href="#DejaVuSans-Oblique-4d" transform="translate(0 0.78125)"/>
      <use xlink:href="#DejaVuSans-3d" transform="translate(105.761719 0.78125)"/>
      <use xlink:href="#DejaVuSans-38" transform="translate(209.033203 0.78125)"/>
     </g>
    </g>
    <g id="line2d_38">
     <path d="M 344.02 98.604813 
L 354.02 98.604813 
L 364.02 98.604813 
" style="fill: none; stroke: #d62728; stroke-width: 1.5; stroke-linecap: square"/>
    </g>
    <g id="text_21">
     <!-- $M=16$ -->
     <g transform="translate(372.02 102.104813) scale(0.1 -0.1)">
      <use xlink:href="#DejaVuSans-Oblique-4d" transform="translate(0 0.78125)"/>
      <use xlink:href="#DejaVuSans-3d" transform="translate(105.761719 0.78125)"/>
      <use xlink:href="#DejaVuSans-31" transform="translate(209.033203 0.78125)"/>
      <use xlink:href="#DejaVuSans-36" transform="translate(272.65625 0.78125)"/>
     </g>
    </g>
   </g>
  </g>
 </g>
 <defs>
  <clipPath id="p2eb2a53ef2">
   <rect x="57.6" y="41.472" width="357.12" height="266.112"/>
  </clipPath>
 </defs>
</svg>
