<?xml version="1.0" encoding="utf-8" standalone="no"?>
<!DOCTYPE svg PUBLIC "-//W3C//DTD SVG 1.1//EN"
  "http://www.w3.org/Graphics/SVG/1.1/DTD/svg11.dtd">
<svg xmlns:xlink="http://www.w3.org/1999/xlink" width="460.8pt" height="345.6pt" viewBox="0 0 460.8 345.6" xmlns="http://www.w3.org/2000/svg" version="1.1">
 <metadata>
  <rdf:RDF xmlns:dc="http://purl.org/dc/elements/1.1/" xmlns:cc="http://creativecommons.org/ns#" xmlns:rdf="http://www.w3.org/1999/02/22-rdf-syntax-ns#">
   <cc:Work>
    <dc:type rdf:resource="http://purl.org/dc/dcmitype/StillImage"/>
    <dc:date>2025-04-07T21:55:18.852676</dc:date>
    <dc:format>image/svg+xml</dc:format>
    <dc:creator>
     <cc:Agent>
      <dc:title>Matplotlib v3.10.1, https://matplotlib.org/</dc:title>
     </cc:Agent>
    </dc:creator>
   </cc:Work>
  </rdf:RDF>
 </metadata>
 <defs>
  <style type="text/css">*{stroke-linejoin: round; stroke-linecap: butt}</style>
 </defs>
 <g id="figure_1">
  <g id="patch_1">
   <path d="M 0 345.6 
L 460.8 345.6 
L 460.8 0 
L 0 0 
z
" style="fill: #ffffff"/>
  </g>
  <g id="axes_1">
   <g id="patch_2">
    <path d="M 369.216 241.056 
C 369.216 205.780889 355.18807 171.914471 330.2448 146.9712 
C 305.301529 122.02793 271.435111 108 236.16 108 
C 200.884889 108 167.018471 122.02793 142.0752 146.9712 
C 117.13193 171.914471 103.104 205.780889 103.104 241.056 
L 236.16 241.056 
C 236.16 241.056 236.16 241.056 236.16 241.056 
C 236.16 241.056 236.16 241.056 236.16 241.056 
C 236.16 241.056 236.16 241.056 236.16 241.056 
C 236.16 241.056 236.16 241.056 236.16 241.056 
z
" style="fill: #ffffff"/>
   </g>
   <g id="matplotlib.axis_1">
    <g id="xtick_1">
     <g id="line2d_1">
      <path d="M 236.16 241.056 
L 103.104 241.056 
" clip-path="url(#pf20d671415)" style="fill: none; stroke: #b0b0b0; stroke-width: 0.8; stroke-linecap: square"/>
     </g>
     <g id="text_1">
      <!-- -90° -->
      <g transform="translate(78.437594 243.815375) scale(0.1 -0.1)">
       <defs>
        <path id="DejaVuSans-2d" d="M 313 2009 
L 1997 2009 
L 1997 1497 
L 313 1497 
L 313 2009 
z
" transform="scale(0.015625)"/>
        <path id="DejaVuSans-39" d="M 703 97 
L 703 672 
Q 941 559 1184 500 
Q 1428 441 1663 441 
Q 2288 441 2617 861 
Q 2947 1281 2994 2138 
Q 2813 1869 2534 1725 
Q 2256 1581 1919 1581 
Q 1219 1581 811 2004 
Q 403 2428 403 3163 
Q 403 3881 828 4315 
Q 1253 4750 1959 4750 
Q 2769 4750 3195 4129 
Q 3622 3509 3622 2328 
Q 3622 1225 3098 567 
Q 2575 -91 1691 -91 
Q 1453 -91 1209 -44 
Q 966 3 703 97 
z
M 1959 2075 
Q 2384 2075 2632 2365 
Q 2881 2656 2881 3163 
Q 2881 3666 2632 3958 
Q 2384 4250 1959 4250 
Q 1534 4250 1286 3958 
Q 1038 3666 1038 3163 
Q 1038 2656 1286 2365 
Q 1534 2075 1959 2075 
z
" transform="scale(0.015625)"/>
        <path id="DejaVuSans-30" d="M 2034 4250 
Q 1547 4250 1301 3770 
Q 1056 3291 1056 2328 
Q 1056 1369 1301 889 
Q 1547 409 2034 409 
Q 2525 409 2770 889 
Q 3016 1369 3016 2328 
Q 3016 3291 2770 3770 
Q 2525 4250 2034 4250 
z
M 2034 4750 
Q 2819 4750 3233 4129 
Q 3647 3509 3647 2328 
Q 3647 1150 3233 529 
Q 2819 -91 2034 -91 
Q 1250 -91 836 529 
Q 422 1150 422 2328 
Q 422 3509 836 4129 
Q 1250 4750 2034 4750 
z
" transform="scale(0.015625)"/>
        <path id="DejaVuSans-b0" d="M 1600 4347 
Q 1350 4347 1178 4173 
Q 1006 4000 1006 3750 
Q 1006 3503 1178 3333 
Q 1350 3163 1600 3163 
Q 1850 3163 2022 3333 
Q 2194 3503 2194 3750 
Q 2194 3997 2020 4172 
Q 1847 4347 1600 4347 
z
M 1600 4750 
Q 1800 4750 1984 4673 
Q 2169 4597 2303 4453 
Q 2447 4313 2519 4134 
Q 2591 3956 2591 3750 
Q 2591 3338 2302 3052 
Q 2013 2766 1594 2766 
Q 1172 2766 890 3047 
Q 609 3328 609 3750 
Q 609 4169 896 4459 
Q 1184 4750 1600 4750 
z
" transform="scale(0.015625)"/>
       </defs>
       <use xlink:href="#DejaVuSans-2d"/>
       <use xlink:href="#DejaVuSans-39" transform="translate(36.083984 0)"/>
       <use xlink:href="#DejaVuSans-30" transform="translate(99.707031 0)"/>
       <use xlink:href="#DejaVuSans-b0" transform="translate(163.330078 0)"/>
      </g>
     </g>
    </g>
    <g id="xtick_2">
     <g id="line2d_2">
      <path d="M 236.16 241.056 
L 120.930124 174.528 
" clip-path="url(#pf20d671415)" style="fill: none; stroke: #b0b0b0; stroke-width: 0.8; stroke-linecap: square"/>
     </g>
     <g id="text_2">
      <!-- -60° -->
      <g transform="translate(98.139362 170.287375) scale(0.1 -0.1)">
       <defs>
        <path id="DejaVuSans-36" d="M 2113 2584 
Q 1688 2584 1439 2293 
Q 1191 2003 1191 1497 
Q 1191 994 1439 701 
Q 1688 409 2113 409 
Q 2538 409 2786 701 
Q 3034 994 3034 1497 
Q 3034 2003 2786 2293 
Q 2538 2584 2113 2584 
z
M 3366 4563 
L 3366 3988 
Q 3128 4100 2886 4159 
Q 2644 4219 2406 4219 
Q 1781 4219 1451 3797 
Q 1122 3375 1075 2522 
Q 1259 2794 1537 2939 
Q 1816 3084 2150 3084 
Q 2853 3084 3261 2657 
Q 3669 2231 3669 1497 
Q 3669 778 3244 343 
Q 2819 -91 2113 -91 
Q 1303 -91 875 529 
Q 447 1150 447 2328 
Q 447 3434 972 4092 
Q 1497 4750 2381 4750 
Q 2619 4750 2861 4703 
Q 3103 4656 3366 4563 
z
" transform="scale(0.015625)"/>
       </defs>
       <use xlink:href="#DejaVuSans-2d"/>
       <use xlink:href="#DejaVuSans-36" transform="translate(36.083984 0)"/>
       <use xlink:href="#DejaVuSans-30" transform="translate(99.707031 0)"/>
       <use xlink:href="#DejaVuSans-b0" transform="translate(163.330078 0)"/>
      </g>
     </g>
    </g>
    <g id="xtick_3">
     <g id="line2d_3">
      <path d="M 236.16 241.056 
L 169.632 125.826124 
" clip-path="url(#pf20d671415)" style="fill: none; stroke: #b0b0b0; stroke-width: 0.8; stroke-linecap: square"/>
     </g>
     <g id="text_3">
      <!-- -30° -->
      <g transform="translate(151.965594 116.461143) scale(0.1 -0.1)">
       <defs>
        <path id="DejaVuSans-33" d="M 2597 2516 
Q 3050 2419 3304 2112 
Q 3559 1806 3559 1356 
Q 3559 666 3084 287 
Q 2609 -91 1734 -91 
Q 1441 -91 1130 -33 
Q 819 25 488 141 
L 488 750 
Q 750 597 1062 519 
Q 1375 441 1716 441 
Q 2309 441 2620 675 
Q 2931 909 2931 1356 
Q 2931 1769 2642 2001 
Q 2353 2234 1838 2234 
L 1294 2234 
L 1294 2753 
L 1863 2753 
Q 2328 2753 2575 2939 
Q 2822 3125 2822 3475 
Q 2822 3834 2567 4026 
Q 2313 4219 1838 4219 
Q 1578 4219 1281 4162 
Q 984 4106 628 3988 
L 628 4550 
Q 988 4650 1302 4700 
Q 1616 4750 1894 4750 
Q 2613 4750 3031 4423 
Q 3450 4097 3450 3541 
Q 3450 3153 3228 2886 
Q 3006 2619 2597 2516 
z
" transform="scale(0.015625)"/>
       </defs>
       <use xlink:href="#DejaVuSans-2d"/>
       <use xlink:href="#DejaVuSans-33" transform="translate(36.083984 0)"/>
       <use xlink:href="#DejaVuSans-30" transform="translate(99.707031 0)"/>
       <use xlink:href="#DejaVuSans-b0" transform="translate(163.330078 0)"/>
      </g>
     </g>
    </g>
    <g id="xtick_4">
     <g id="line2d_4">
      <path d="M 236.16 241.056 
L 236.16 108 
" clip-path="url(#pf20d671415)" style="fill: none; stroke: #b0b0b0; stroke-width: 0.8; stroke-linecap: square"/>
     </g>
     <g id="text_4">
      <!-- 0° -->
      <g transform="translate(230.47875 96.759375) scale(0.1 -0.1)">
       <use xlink:href="#DejaVuSans-30"/>
       <use xlink:href="#DejaVuSans-b0" transform="translate(63.623047 0)"/>
      </g>
     </g>
    </g>
    <g id="xtick_5">
     <g id="line2d_5">
      <path d="M 236.16 241.056 
L 302.688 125.826124 
" clip-path="url(#pf20d671415)" style="fill: none; stroke: #b0b0b0; stroke-width: 0.8; stroke-linecap: square"/>
     </g>
     <g id="text_5">
      <!-- 30° -->
      <g transform="translate(300.8255 116.461143) scale(0.1 -0.1)">
       <use xlink:href="#DejaVuSans-33"/>
       <use xlink:href="#DejaVuSans-30" transform="translate(63.623047 0)"/>
       <use xlink:href="#DejaVuSans-b0" transform="translate(127.246094 0)"/>
      </g>
     </g>
    </g>
    <g id="xtick_6">
     <g id="line2d_6">
      <path d="M 236.16 241.056 
L 351.389876 174.528 
" clip-path="url(#pf20d671415)" style="fill: none; stroke: #b0b0b0; stroke-width: 0.8; stroke-linecap: square"/>
     </g>
     <g id="text_6">
      <!-- 60° -->
      <g transform="translate(354.651732 170.287375) scale(0.1 -0.1)">
       <use xlink:href="#DejaVuSans-36"/>
       <use xlink:href="#DejaVuSans-30" transform="translate(63.623047 0)"/>
       <use xlink:href="#DejaVuSans-b0" transform="translate(127.246094 0)"/>
      </g>
     </g>
    </g>
    <g id="xtick_7">
     <g id="line2d_7">
      <path d="M 236.16 241.056 
L 369.216 241.056 
" clip-path="url(#pf20d671415)" style="fill: none; stroke: #b0b0b0; stroke-width: 0.8; stroke-linecap: square"/>
     </g>
     <g id="text_7">
      <!-- 90° -->
      <g transform="translate(374.3535 243.815375) scale(0.1 -0.1)">
       <use xlink:href="#DejaVuSans-39"/>
       <use xlink:href="#DejaVuSans-30" transform="translate(63.623047 0)"/>
       <use xlink:href="#DejaVuSans-b0" transform="translate(127.246094 0)"/>
      </g>
     </g>
    </g>
   </g>
   <g id="matplotlib.axis_2">
    <g id="ytick_1">
     <g id="line2d_8">
      <path d="M 236.16 241.056 
C 236.16 241.056 236.16 241.056 236.16 241.056 
C 236.16 241.056 236.16 241.056 236.16 241.056 
C 236.16 241.056 236.16 241.056 236.16 241.056 
C 236.16 241.056 236.16 241.056 236.16 241.056 
" clip-path="url(#pf20d671415)" style="fill: none; stroke: #b0b0b0; stroke-width: 0.8; stroke-linecap: square"/>
     </g>
     <g id="text_8">
      <!-- −50 -->
      <g transform="translate(225.607656 255.654437) scale(0.1 -0.1)">
       <defs>
        <path id="DejaVuSans-2212" d="M 678 2272 
L 4684 2272 
L 4684 1741 
L 678 1741 
L 678 2272 
z
" transform="scale(0.015625)"/>
        <path id="DejaVuSans-35" d="M 691 4666 
L 3169 4666 
L 3169 4134 
L 1269 4134 
L 1269 2991 
Q 1406 3038 1543 3061 
Q 1681 3084 1819 3084 
Q 2600 3084 3056 2656 
Q 3513 2228 3513 1497 
Q 3513 744 3044 326 
Q 2575 -91 1722 -91 
Q 1428 -91 1123 -41 
Q 819 9 494 109 
L 494 744 
Q 775 591 1075 516 
Q 1375 441 1709 441 
Q 2250 441 2565 725 
Q 2881 1009 2881 1497 
Q 2881 1984 2565 2268 
Q 2250 2553 1709 2553 
Q 1456 2553 1204 2497 
Q 953 2441 691 2322 
L 691 4666 
z
" transform="scale(0.015625)"/>
       </defs>
       <use xlink:href="#DejaVuSans-2212"/>
       <use xlink:href="#DejaVuSans-35" transform="translate(83.789062 0)"/>
       <use xlink:href="#DejaVuSans-30" transform="translate(147.412109 0)"/>
      </g>
     </g>
    </g>
    <g id="ytick_2">
     <g id="line2d_9">
      <path d="M 211.968 241.056 
C 211.968 234.642343 214.518533 228.484813 219.053673 223.949673 
C 223.588813 219.414533 229.746343 216.864 236.16 216.864 
C 242.573657 216.864 248.731187 219.414533 253.266327 223.949673 
C 257.801467 228.484813 260.352 234.642343 260.352 241.056 
" clip-path="url(#pf20d671415)" style="fill: none; stroke: #b0b0b0; stroke-width: 0.8; stroke-linecap: square"/>
     </g>
     <g id="text_9">
      <!-- −40 -->
      <g transform="translate(201.415656 255.654437) scale(0.1 -0.1)">
       <defs>
        <path id="DejaVuSans-34" d="M 2419 4116 
L 825 1625 
L 2419 1625 
L 2419 4116 
z
M 2253 4666 
L 3047 4666 
L 3047 1625 
L 3713 1625 
L 3713 1100 
L 3047 1100 
L 3047 0 
L 2419 0 
L 2419 1100 
L 313 1100 
L 313 1709 
L 2253 4666 
z
" transform="scale(0.015625)"/>
       </defs>
       <use xlink:href="#DejaVuSans-2212"/>
       <use xlink:href="#DejaVuSans-34" transform="translate(83.789062 0)"/>
       <use xlink:href="#DejaVuSans-30" transform="translate(147.412109 0)"/>
      </g>
     </g>
    </g>
    <g id="ytick_3">
     <g id="line2d_10">
      <path d="M 187.776 241.056 
C 187.776 228.228687 192.877065 215.913626 201.947345 206.843345 
C 211.017626 197.773065 223.332687 192.672 236.16 192.672 
C 248.987313 192.672 261.302374 197.773065 270.372655 206.843345 
C 279.442935 215.913626 284.544 228.228687 284.544 241.056 
" clip-path="url(#pf20d671415)" style="fill: none; stroke: #b0b0b0; stroke-width: 0.8; stroke-linecap: square"/>
     </g>
     <g id="text_10">
      <!-- −30 -->
      <g transform="translate(177.223656 255.654437) scale(0.1 -0.1)">
       <use xlink:href="#DejaVuSans-2212"/>
       <use xlink:href="#DejaVuSans-33" transform="translate(83.789062 0)"/>
       <use xlink:href="#DejaVuSans-30" transform="translate(147.412109 0)"/>
      </g>
     </g>
    </g>
    <g id="ytick_4">
     <g id="line2d_11">
      <path d="M 163.584 241.056 
C 163.584 221.81503 171.235598 203.342438 184.841018 189.737018 
C 198.446438 176.131598 216.91903 168.48 236.16 168.48 
C 255.40097 168.48 273.873562 176.131598 287.478982 189.737018 
C 301.084402 203.342438 308.736 221.81503 308.736 241.056 
" clip-path="url(#pf20d671415)" style="fill: none; stroke: #b0b0b0; stroke-width: 0.8; stroke-linecap: square"/>
     </g>
     <g id="text_11">
      <!-- −20 -->
      <g transform="translate(153.031656 255.654437) scale(0.1 -0.1)">
       <defs>
        <path id="DejaVuSans-32" d="M 1228 531 
L 3431 531 
L 3431 0 
L 469 0 
L 469 531 
Q 828 903 1448 1529 
Q 2069 2156 2228 2338 
Q 2531 2678 2651 2914 
Q 2772 3150 2772 3378 
Q 2772 3750 2511 3984 
Q 2250 4219 1831 4219 
Q 1534 4219 1204 4116 
Q 875 4013 500 3803 
L 500 4441 
Q 881 4594 1212 4672 
Q 1544 4750 1819 4750 
Q 2544 4750 2975 4387 
Q 3406 4025 3406 3419 
Q 3406 3131 3298 2873 
Q 3191 2616 2906 2266 
Q 2828 2175 2409 1742 
Q 1991 1309 1228 531 
z
" transform="scale(0.015625)"/>
       </defs>
       <use xlink:href="#DejaVuSans-2212"/>
       <use xlink:href="#DejaVuSans-32" transform="translate(83.789062 0)"/>
       <use xlink:href="#DejaVuSans-30" transform="translate(147.412109 0)"/>
      </g>
     </g>
    </g>
    <g id="ytick_5">
     <g id="line2d_12">
      <path d="M 139.392 241.056 
C 139.392 215.401374 149.594131 190.771251 167.734691 172.630691 
C 185.875251 154.490131 210.505374 144.288 236.16 144.288 
C 261.814626 144.288 286.444749 154.490131 304.585309 172.630691 
C 322.725869 190.771251 332.928 215.401374 332.928 241.056 
" clip-path="url(#pf20d671415)" style="fill: none; stroke: #b0b0b0; stroke-width: 0.8; stroke-linecap: square"/>
     </g>
     <g id="text_12">
      <!-- −10 -->
      <g transform="translate(128.839656 255.654437) scale(0.1 -0.1)">
       <defs>
        <path id="DejaVuSans-31" d="M 794 531 
L 1825 531 
L 1825 4091 
L 703 3866 
L 703 4441 
L 1819 4666 
L 2450 4666 
L 2450 531 
L 3481 531 
L 3481 0 
L 794 0 
L 794 531 
z
" transform="scale(0.015625)"/>
       </defs>
       <use xlink:href="#DejaVuSans-2212"/>
       <use xlink:href="#DejaVuSans-31" transform="translate(83.789062 0)"/>
       <use xlink:href="#DejaVuSans-30" transform="translate(147.412109 0)"/>
      </g>
     </g>
    </g>
    <g id="ytick_6">
     <g id="line2d_13">
      <path d="M 115.2 241.056 
C 115.2 208.987717 127.952663 178.200064 150.628364 155.524364 
C 173.304064 132.848663 204.091717 120.096 236.16 120.096 
C 268.228283 120.096 299.015936 132.848663 321.691636 155.524364 
C 344.367337 178.200064 357.12 208.987717 357.12 241.056 
" clip-path="url(#pf20d671415)" style="fill: none; stroke: #b0b0b0; stroke-width: 0.8; stroke-linecap: square"/>
     </g>
     <g id="text_13">
      <!-- 0 -->
      <g transform="translate(112.01875 255.654437) scale(0.1 -0.1)">
       <use xlink:href="#DejaVuSans-30"/>
      </g>
     </g>
    </g>
   </g>
   <g id="line2d_14">
    <path d="M 125.546209 241.056 
L 125.654715 235.49393 
L 125.98088 229.936523 
L 126.5266 224.388748 
L 127.294905 218.856164 
L 128.289764 213.345174 
L 129.473982 208.034019 
L 130.879811 202.757963 
L 132.455735 197.69397 
L 134.247746 192.680423 
L 136.259599 187.727492 
L 138.416357 183.00772 
L 140.783715 178.365788 
L 143.270582 173.968542 
L 145.955515 169.665385 
L 148.838073 165.467537 
L 151.916881 161.386505 
L 155.069396 157.572796 
L 158.399209 153.889127 
L 161.902445 150.346024 
L 165.574349 146.953908 
L 169.409304 143.723006 
L 173.250302 140.773433 
L 177.230022 137.99118 
L 181.341303 135.384483 
L 185.576345 132.961167 
L 189.926744 130.728601 
L 194.383535 128.693644 
L 198.937235 126.862609 
L 203.577892 125.241221 
L 208.295129 123.834586 
L 213.0782 122.647158 
L 217.91604 121.682716 
L 222.797319 120.944341 
L 227.7105 120.434397 
L 232.643887 120.154524 
L 237.39561 120.103225 
L 242.144597 120.265628 
L 247.06935 120.660696 
L 251.968033 121.285105 
L 256.829024 122.136855 
L 261.64088 123.213219 
L 266.392399 124.510766 
L 271.072667 126.025375 
L 275.671117 127.752264 
L 280.177579 129.686013 
L 284.582328 131.820599 
L 288.876134 134.14943 
L 293.050309 136.665388 
L 297.096746 139.360868 
L 301.007959 142.227834 
L 304.777121 145.257865 
L 308.534325 148.56765 
L 312.125666 152.033754 
L 315.545942 155.645846 
L 318.790819 159.393444 
L 321.856845 163.266001 
L 324.84477 167.402714 
L 327.635686 171.650872 
L 330.22866 175.999087 
L 332.705549 180.596292 
L 334.971012 185.277196 
L 337.026842 190.03063 
L 338.935667 195.013177 
L 340.626342 200.051471 
L 342.102824 205.135804 
L 343.407986 210.428755 
L 344.49365 215.753124 
L 345.388852 221.274412 
L 346.059338 226.814375 
L 346.508693 232.367007 
L 346.739471 237.92704 
L 346.773791 241.056 
L 346.773791 241.056 
" clip-path="url(#pf20d671415)" style="fill: none; stroke: #1f77b4; stroke-width: 1.5; stroke-linecap: square"/>
   </g>
   <g id="line2d_15">
    <path d="M 144.08495 241.056 
L 144.191518 238.308999 
L 144.512094 235.57626 
L 145.049355 232.87239 
L 145.807976 230.21272 
L 146.7372 227.748738 
L 147.879765 225.354671 
L 149.16497 223.17347 
L 150.569129 221.206825 
L 152.176362 219.340657 
L 153.884225 217.699956 
L 155.672268 216.281586 
L 157.520194 215.08013 
L 159.573167 214.010786 
L 161.677983 213.163463 
L 163.814494 212.528062 
L 166.186831 212.056058 
L 168.591262 211.800005 
L 171.288553 211.748848 
L 174.033169 211.923829 
L 176.798548 212.304672 
L 179.969155 212.962746 
L 183.193266 213.842279 
L 187.010259 215.116061 
L 190.971632 216.659236 
L 195.927757 218.842529 
L 201.32136 221.461727 
L 207.115623 224.479396 
L 215.57771 229.136841 
L 226.206398 235.229052 
L 231.799365 238.494026 
M 235.412069 240.60863 
L 216.934023 229.3914 
L 208.054568 223.761499 
L 200.99793 219.036461 
L 195.197246 214.862955 
L 190.93753 211.534698 
L 187.120824 208.268164 
L 184.113907 205.423034 
L 181.357237 202.514877 
L 178.876032 199.546699 
L 176.879908 196.808197 
L 175.094942 193.96363 
L 173.668646 191.278164 
L 172.432583 188.467545 
L 171.483697 185.777655 
L 170.722556 182.956283 
L 170.171975 180.011605 
L 169.866551 177.166789 
L 169.776428 174.201288 
L 169.905023 171.327494 
L 170.259157 168.342037 
L 170.858641 165.257664 
L 171.66531 162.271939 
L 172.729121 159.204402 
L 173.988174 156.242978 
L 175.517057 153.222244 
L 177.231916 150.319912 
L 179.228631 147.385898 
L 181.402838 144.586748 
L 183.741501 141.924749 
L 186.367742 139.273662 
L 189.149861 136.78064 
L 192.075531 134.449015 
L 195.289097 132.178161 
L 198.634793 130.092707 
L 202.099834 128.196282 
L 205.671709 126.492302 
L 209.338097 124.983923 
L 213.086821 123.674002 
L 216.905799 122.565063 
L 220.968894 121.621242 
L 225.082145 120.902424 
L 229.231824 120.410183 
L 233.404224 120.145604 
L 237.585649 120.109272 
L 241.762406 120.301266 
L 245.920801 120.721163 
L 250.04713 121.368036 
L 254.127675 122.240465 
L 258.148685 123.336552 
L 261.91871 124.589293 
L 265.609861 126.041247 
L 269.20999 127.68965 
L 272.706822 129.531429 
L 276.087907 131.563237 
L 279.340549 133.7815 
L 282.451711 136.182472 
L 285.27085 138.635458 
L 287.937252 141.247338 
L 290.438063 144.014847 
L 292.647936 146.785325 
L 294.683163 149.691116 
L 296.437424 152.567025 
L 298.008915 155.561498 
L 299.382411 158.674121 
L 300.481905 161.722832 
L 301.325294 164.690437 
L 301.965179 167.756011 
L 302.361298 170.722871 
L 302.537989 173.785328 
L 302.480758 176.737179 
L 302.210097 179.567787 
L 301.699608 182.496149 
L 300.981771 185.299792 
L 300.079763 187.970216 
L 298.900032 190.756941 
L 297.536443 193.415098 
L 295.830034 196.224403 
L 293.924714 198.920807 
L 291.853 201.495046 
L 289.312369 204.296371 
L 286.569426 207.007005 
L 283.139958 210.070539 
L 279.396415 213.121026 
L 274.475469 216.809471 
L 268.835841 220.736115 
L 262.429332 224.948193 
L 252.24206 231.333392 
L 236.907931 240.60863 
M 240.520635 238.494026 
L 256.74229 229.136841 
L 266.829327 223.615825 
L 273.341544 220.297575 
L 279.026632 217.651035 
L 283.426598 215.824298 
L 287.576666 214.331531 
L 291.478855 213.181027 
L 294.771502 212.440115 
L 297.959672 211.958672 
L 300.742774 211.756963 
L 303.473286 211.784904 
L 305.904173 212.022445 
L 308.300234 212.477922 
L 310.642017 213.163463 
L 312.746833 214.010786 
L 314.799806 215.08013 
L 316.782116 216.378864 
L 318.55608 217.80567 
L 320.250367 219.453994 
L 321.844413 221.326982 
L 323.236391 223.29933 
L 324.509486 225.485555 
L 325.639931 227.883942 
L 326.557572 230.35134 
L 327.30439 233.013735 
L 327.830149 235.719499 
L 328.139411 238.453348 
L 328.23505 241.056 
L 328.23505 241.056 
" clip-path="url(#pf20d671415)" style="fill: none; stroke: #ff7f0e; stroke-width: 1.5; stroke-linecap: square"/>
   </g>
   <g id="line2d_16">
    <path d="M 128.90293 241.056 
L 128.792943 236.835424 
L 128.446506 232.23376 
L 127.744339 226.139514 
L 126.341372 214.311818 
L 125.995225 209.220953 
L 125.915665 204.832757 
L 126.06066 200.808849 
L 126.423286 196.984521 
L 126.994364 193.38132 
L 127.75738 190.016464 
L 128.69078 186.902644 
L 129.769715 184.048055 
L 131.053801 181.287148 
L 132.453682 178.803328 
L 133.940181 176.594718 
L 135.609492 174.511276 
L 137.332249 172.707749 
L 139.231419 171.05134 
L 141.151592 169.673793 
L 143.063199 168.558747 
L 145.131828 167.606968 
L 147.161479 166.905491 
L 149.348587 166.385482 
L 151.468008 166.098508 
L 153.750621 166.013581 
L 155.937881 166.138902 
L 158.300547 166.490842 
L 160.87437 167.118872 
L 163.33989 167.949219 
L 166.057595 169.111779 
L 168.645589 170.44781 
L 171.550803 172.197831 
L 174.894859 174.515362 
L 178.166318 177.066675 
L 182.114858 180.473462 
L 186.056597 184.176208 
L 191.234587 189.403467 
L 196.689138 195.240327 
L 205.429996 205.044284 
L 217.369479 218.895174 
L 233.523197 237.936329 
L 230.136352 233.906502 
L 209.682029 209.427947 
L 199.412671 196.738308 
L 193.850476 189.537822 
L 189.082459 182.991637 
L 185.804966 178.144918 
L 182.862316 173.385344 
L 180.712413 169.506091 
L 178.813876 165.597247 
L 177.431913 162.247129 
L 176.288303 158.840033 
L 175.523128 155.83473 
L 175.051298 153.139963 
L 174.798855 150.364749 
L 174.796481 147.85777 
L 175.002524 145.578494 
L 175.445661 143.25167 
L 176.08144 141.149513 
L 176.885127 139.252875 
L 177.837434 137.548852 
L 178.922965 136.029164 
L 180.129189 134.689134 
L 181.445753 133.527066 
L 182.864007 132.543895 
L 184.376676 131.743035 
L 185.977647 131.130416 
L 187.661838 130.714695 
L 189.425137 130.507683 
L 191.264423 130.525027 
L 193.177675 130.78729 
L 194.939841 131.247763 
L 196.76052 131.948038 
L 198.641817 132.920986 
L 200.340905 134.030405 
L 202.094301 135.422299 
L 203.909495 137.151559 
L 205.798341 139.296169 
L 207.490215 141.551471 
L 209.26952 144.306949 
L 210.84157 147.107915 
L 212.526961 150.5367 
L 214.379142 154.86561 
L 216.047542 159.307707 
L 217.994349 165.167354 
L 219.775935 171.156064 
L 222.109277 179.812741 
L 224.337498 188.771477 
L 228.175833 205.22316 
L 234.800272 234.861907 
L 226.684026 197.231961 
L 223.349052 180.42611 
L 221.754848 171.255883 
L 220.591794 163.14934 
L 219.972527 157.314238 
L 219.624284 151.752408 
L 219.572565 147.366697 
L 219.769138 143.105444 
L 220.164304 139.598812 
L 220.705381 136.63978 
L 221.476954 133.712415 
L 222.366268 131.228901 
L 223.348775 129.10435 
L 224.562982 127.041925 
L 225.85549 125.312048 
L 227.210707 123.872159 
L 228.616036 122.691768 
L 230.06091 121.748784 
L 231.536156 121.027239 
L 233.03356 120.515834 
L 234.735213 120.182404 
L 236.44514 120.099453 
L 238.153419 120.265517 
L 239.662446 120.624456 
L 241.155041 121.187553 
L 242.623495 121.963235 
L 244.059389 122.963865 
L 245.453247 124.206778 
L 246.794064 125.71591 
L 248.068605 127.524354 
L 249.116556 129.388303 
L 250.086969 131.56008 
L 250.961162 134.101009 
L 251.614619 136.63978 
L 252.155696 139.598812 
L 252.550862 143.105444 
L 252.731633 146.591378 
L 252.725792 150.797875 
L 252.531562 154.909671 
L 252.08686 160.03003 
L 251.2388 166.813599 
L 250.131827 173.888999 
L 248.166669 184.670744 
L 245.635974 197.231961 
L 243.268251 208.430393 
L 237.519728 234.861907 
L 239.724523 224.939188 
L 246.413195 195.378084 
L 250.210723 179.812741 
L 252.544065 171.156064 
L 254.848035 163.523452 
L 256.710108 158.091111 
L 258.706719 153.001076 
L 260.483509 149.07586 
L 262.432952 145.364008 
L 264.247644 142.407469 
L 265.966034 140.000121 
L 267.879017 137.717734 
L 269.713797 135.879065 
L 271.483932 134.397196 
L 273.438579 133.063824 
L 275.327695 132.053964 
L 277.155801 131.321596 
L 278.92522 130.83265 
L 280.846621 130.54164 
L 282.694204 130.498202 
L 284.466081 130.681138 
L 286.159247 131.074315 
L 287.769698 131.665537 
L 289.29246 132.445822 
L 290.721541 133.40895 
L 292.049804 134.551232 
L 293.268765 135.871455 
L 294.368279 137.371009 
L 295.33609 139.054214 
L 296.15716 140.928909 
L 296.8127 143.007418 
L 297.237168 145.040741 
L 297.490198 147.267878 
L 297.543319 149.714703 
L 297.358106 152.41816 
L 296.958716 155.036173 
L 296.284524 157.945144 
L 295.431688 160.729988 
L 294.251241 163.864004 
L 292.633399 167.468411 
L 290.822095 170.97575 
L 288.397194 175.158992 
L 285.791613 179.248081 
L 282.224466 184.423308 
L 278.469524 189.537822 
L 272.907329 196.738308 
L 267.032426 204.060783 
L 255.992965 217.440937 
L 238.796803 237.936329 
L 262.163694 210.48576 
L 273.259029 197.856316 
L 279.474874 191.096822 
L 285.115698 185.302729 
L 289.30066 181.298563 
L 293.428161 177.667281 
L 296.812211 174.972954 
L 300.246597 172.539321 
L 303.214797 170.707478 
L 306.262405 169.111779 
L 308.98011 167.949219 
L 311.44563 167.118872 
L 314.019453 166.490842 
L 316.382119 166.138902 
L 318.831811 166.011929 
L 321.095134 166.121026 
L 323.197732 166.428482 
L 325.368291 166.967927 
L 327.38309 167.686096 
L 329.436873 168.653721 
L 331.334836 169.782484 
L 333.241195 171.173009 
L 335.126396 172.841539 
L 336.836017 174.655497 
L 338.491948 176.748563 
L 339.965743 178.96536 
L 341.352668 181.456559 
L 342.623618 184.223936 
L 343.690083 187.083709 
L 344.610955 190.201775 
L 345.361535 193.569853 
L 345.896714 196.984521 
L 346.246645 200.617247 
L 346.402445 204.641319 
L 346.340434 208.84085 
L 346.043986 213.563036 
L 345.446118 219.30648 
L 343.606937 235.478563 
L 343.425793 239.875913 
L 343.41707 241.056 
L 343.41707 241.056 
" clip-path="url(#pf20d671415)" style="fill: none; stroke: #2ca02c; stroke-width: 1.5; stroke-linecap: square"/>
   </g>
   <g id="patch_3">
    <path d="M 369.216 241.056 
C 369.216 205.780889 355.18807 171.914471 330.2448 146.9712 
C 305.301529 122.02793 271.435111 108 236.16 108 
C 200.884889 108 167.018471 122.02793 142.0752 146.9712 
C 117.13193 171.914471 103.104 205.780889 103.104 241.056 
" style="fill: none; stroke: #000000; stroke-width: 0.8; stroke-linejoin: miter; stroke-linecap: square"/>
   </g>
   <g id="patch_4">
    <path d="M 236.16 241.056 
L 103.104 241.056 
" style="fill: none; stroke: #000000; stroke-width: 0.8; stroke-linejoin: miter; stroke-linecap: square"/>
   </g>
   <g id="patch_5">
    <path d="M 236.16 241.056 
L 369.216 241.056 
" style="fill: none; stroke: #000000; stroke-width: 0.8; stroke-linejoin: miter; stroke-linecap: square"/>
   </g>
  </g>
 </g>
 <defs>
  <clipPath id="pf20d671415">
   <path d="M 369.216 241.056 
C 369.216 205.780889 355.18807 171.914471 330.2448 146.9712 
C 305.301529 122.02793 271.435111 108 236.16 108 
C 200.884889 108 167.018471 122.02793 142.0752 146.9712 
C 117.13193 171.914471 103.104 205.780889 103.104 241.056 
L 236.16 241.056 
C 236.16 241.056 236.16 241.056 236.16 241.056 
C 236.16 241.056 236.16 241.056 236.16 241.056 
C 236.16 241.056 236.16 241.056 236.16 241.056 
C 236.16 241.056 236.16 241.056 236.16 241.056 
z
"/>
  </clipPath>
 </defs>
</svg>
