<?xml version="1.0" encoding="utf-8" standalone="no"?>
<!DOCTYPE svg PUBLIC "-//W3C//DTD SVG 1.1//EN"
  "http://www.w3.org/Graphics/SVG/1.1/DTD/svg11.dtd">
<svg xmlns:xlink="http://www.w3.org/1999/xlink" width="460.8pt" height="345.6pt" viewBox="0 0 460.8 345.6" xmlns="http://www.w3.org/2000/svg" version="1.1">
 <metadata>
  <rdf:RDF xmlns:dc="http://purl.org/dc/elements/1.1/" xmlns:cc="http://creativecommons.org/ns#" xmlns:rdf="http://www.w3.org/1999/02/22-rdf-syntax-ns#">
   <cc:Work>
    <dc:type rdf:resource="http://purl.org/dc/dcmitype/StillImage"/>
    <dc:date>2025-04-07T21:59:34.417331</dc:date>
    <dc:format>image/svg+xml</dc:format>
    <dc:creator>
     <cc:Agent>
      <dc:title>Matplotlib v3.10.1, https://matplotlib.org/</dc:title>
     </cc:Agent>
    </dc:creator>
   </cc:Work>
  </rdf:RDF>
 </metadata>
 <defs>
  <style type="text/css">*{stroke-linejoin: round; stroke-linecap: butt}</style>
 </defs>
 <g id="figure_1">
  <g id="patch_1">
   <path d="M 0 345.6 
L 460.8 345.6 
L 460.8 0 
L 0 0 
z
" style="fill: #ffffff"/>
  </g>
  <g id="axes_1">
   <g id="patch_2">
    <path d="M 369.216 241.056 
C 369.216 205.780889 355.18807 171.914471 330.2448 146.9712 
C 305.301529 122.02793 271.435111 108 236.16 108 
C 200.884889 108 167.018471 122.02793 142.0752 146.9712 
C 117.13193 171.914471 103.104 205.780889 103.104 241.056 
L 236.16 241.056 
C 236.16 241.056 236.16 241.056 236.16 241.056 
C 236.16 241.056 236.16 241.056 236.16 241.056 
C 236.16 241.056 236.16 241.056 236.16 241.056 
C 236.16 241.056 236.16 241.056 236.16 241.056 
z
" style="fill: #ffffff"/>
   </g>
   <g id="matplotlib.axis_1">
    <g id="xtick_1">
     <g id="line2d_1">
      <path d="M 236.16 241.056 
L 103.104 241.056 
" clip-path="url(#pcffcb43529)" style="fill: none; stroke: #b0b0b0; stroke-width: 0.8; stroke-linecap: square"/>
     </g>
     <g id="text_1">
      <!-- -90° -->
      <g transform="translate(78.437594 243.815375) scale(0.1 -0.1)">
       <defs>
        <path id="DejaVuSans-2d" d="M 313 2009 
L 1997 2009 
L 1997 1497 
L 313 1497 
L 313 2009 
z
" transform="scale(0.015625)"/>
        <path id="DejaVuSans-39" d="M 703 97 
L 703 672 
Q 941 559 1184 500 
Q 1428 441 1663 441 
Q 2288 441 2617 861 
Q 2947 1281 2994 2138 
Q 2813 1869 2534 1725 
Q 2256 1581 1919 1581 
Q 1219 1581 811 2004 
Q 403 2428 403 3163 
Q 403 3881 828 4315 
Q 1253 4750 1959 4750 
Q 2769 4750 3195 4129 
Q 3622 3509 3622 2328 
Q 3622 1225 3098 567 
Q 2575 -91 1691 -91 
Q 1453 -91 1209 -44 
Q 966 3 703 97 
z
M 1959 2075 
Q 2384 2075 2632 2365 
Q 2881 2656 2881 3163 
Q 2881 3666 2632 3958 
Q 2384 4250 1959 4250 
Q 1534 4250 1286 3958 
Q 1038 3666 1038 3163 
Q 1038 2656 1286 2365 
Q 1534 2075 1959 2075 
z
" transform="scale(0.015625)"/>
        <path id="DejaVuSans-30" d="M 2034 4250 
Q 1547 4250 1301 3770 
Q 1056 3291 1056 2328 
Q 1056 1369 1301 889 
Q 1547 409 2034 409 
Q 2525 409 2770 889 
Q 3016 1369 3016 2328 
Q 3016 3291 2770 3770 
Q 2525 4250 2034 4250 
z
M 2034 4750 
Q 2819 4750 3233 4129 
Q 3647 3509 3647 2328 
Q 3647 1150 3233 529 
Q 2819 -91 2034 -91 
Q 1250 -91 836 529 
Q 422 1150 422 2328 
Q 422 3509 836 4129 
Q 1250 4750 2034 4750 
z
" transform="scale(0.015625)"/>
        <path id="DejaVuSans-b0" d="M 1600 4347 
Q 1350 4347 1178 4173 
Q 1006 4000 1006 3750 
Q 1006 3503 1178 3333 
Q 1350 3163 1600 3163 
Q 1850 3163 2022 3333 
Q 2194 3503 2194 3750 
Q 2194 3997 2020 4172 
Q 1847 4347 1600 4347 
z
M 1600 4750 
Q 1800 4750 1984 4673 
Q 2169 4597 2303 4453 
Q 2447 4313 2519 4134 
Q 2591 3956 2591 3750 
Q 2591 3338 2302 3052 
Q 2013 2766 1594 2766 
Q 1172 2766 890 3047 
Q 609 3328 609 3750 
Q 609 4169 896 4459 
Q 1184 4750 1600 4750 
z
" transform="scale(0.015625)"/>
       </defs>
       <use xlink:href="#DejaVuSans-2d"/>
       <use xlink:href="#DejaVuSans-39" transform="translate(36.083984 0)"/>
       <use xlink:href="#DejaVuSans-30" transform="translate(99.707031 0)"/>
       <use xlink:href="#DejaVuSans-b0" transform="translate(163.330078 0)"/>
      </g>
     </g>
    </g>
    <g id="xtick_2">
     <g id="line2d_2">
      <path d="M 236.16 241.056 
L 120.930124 174.528 
" clip-path="url(#pcffcb43529)" style="fill: none; stroke: #b0b0b0; stroke-width: 0.8; stroke-linecap: square"/>
     </g>
     <g id="text_2">
      <!-- -60° -->
      <g transform="translate(98.139362 170.287375) scale(0.1 -0.1)">
       <defs>
        <path id="DejaVuSans-36" d="M 2113 2584 
Q 1688 2584 1439 2293 
Q 1191 2003 1191 1497 
Q 1191 994 1439 701 
Q 1688 409 2113 409 
Q 2538 409 2786 701 
Q 3034 994 3034 1497 
Q 3034 2003 2786 2293 
Q 2538 2584 2113 2584 
z
M 3366 4563 
L 3366 3988 
Q 3128 4100 2886 4159 
Q 2644 4219 2406 4219 
Q 1781 4219 1451 3797 
Q 1122 3375 1075 2522 
Q 1259 2794 1537 2939 
Q 1816 3084 2150 3084 
Q 2853 3084 3261 2657 
Q 3669 2231 3669 1497 
Q 3669 778 3244 343 
Q 2819 -91 2113 -91 
Q 1303 -91 875 529 
Q 447 1150 447 2328 
Q 447 3434 972 4092 
Q 1497 4750 2381 4750 
Q 2619 4750 2861 4703 
Q 3103 4656 3366 4563 
z
" transform="scale(0.015625)"/>
       </defs>
       <use xlink:href="#DejaVuSans-2d"/>
       <use xlink:href="#DejaVuSans-36" transform="translate(36.083984 0)"/>
       <use xlink:href="#DejaVuSans-30" transform="translate(99.707031 0)"/>
       <use xlink:href="#DejaVuSans-b0" transform="translate(163.330078 0)"/>
      </g>
     </g>
    </g>
    <g id="xtick_3">
     <g id="line2d_3">
      <path d="M 236.16 241.056 
L 169.632 125.826124 
" clip-path="url(#pcffcb43529)" style="fill: none; stroke: #b0b0b0; stroke-width: 0.8; stroke-linecap: square"/>
     </g>
     <g id="text_3">
      <!-- -30° -->
      <g transform="translate(151.965594 116.461143) scale(0.1 -0.1)">
       <defs>
        <path id="DejaVuSans-33" d="M 2597 2516 
Q 3050 2419 3304 2112 
Q 3559 1806 3559 1356 
Q 3559 666 3084 287 
Q 2609 -91 1734 -91 
Q 1441 -91 1130 -33 
Q 819 25 488 141 
L 488 750 
Q 750 597 1062 519 
Q 1375 441 1716 441 
Q 2309 441 2620 675 
Q 2931 909 2931 1356 
Q 2931 1769 2642 2001 
Q 2353 2234 1838 2234 
L 1294 2234 
L 1294 2753 
L 1863 2753 
Q 2328 2753 2575 2939 
Q 2822 3125 2822 3475 
Q 2822 3834 2567 4026 
Q 2313 4219 1838 4219 
Q 1578 4219 1281 4162 
Q 984 4106 628 3988 
L 628 4550 
Q 988 4650 1302 4700 
Q 1616 4750 1894 4750 
Q 2613 4750 3031 4423 
Q 3450 4097 3450 3541 
Q 3450 3153 3228 2886 
Q 3006 2619 2597 2516 
z
" transform="scale(0.015625)"/>
       </defs>
       <use xlink:href="#DejaVuSans-2d"/>
       <use xlink:href="#DejaVuSans-33" transform="translate(36.083984 0)"/>
       <use xlink:href="#DejaVuSans-30" transform="translate(99.707031 0)"/>
       <use xlink:href="#DejaVuSans-b0" transform="translate(163.330078 0)"/>
      </g>
     </g>
    </g>
    <g id="xtick_4">
     <g id="line2d_4">
      <path d="M 236.16 241.056 
L 236.16 108 
" clip-path="url(#pcffcb43529)" style="fill: none; stroke: #b0b0b0; stroke-width: 0.8; stroke-linecap: square"/>
     </g>
     <g id="text_4">
      <!-- 0° -->
      <g transform="translate(230.47875 96.759375) scale(0.1 -0.1)">
       <use xlink:href="#DejaVuSans-30"/>
       <use xlink:href="#DejaVuSans-b0" transform="translate(63.623047 0)"/>
      </g>
     </g>
    </g>
    <g id="xtick_5">
     <g id="line2d_5">
      <path d="M 236.16 241.056 
L 302.688 125.826124 
" clip-path="url(#pcffcb43529)" style="fill: none; stroke: #b0b0b0; stroke-width: 0.8; stroke-linecap: square"/>
     </g>
     <g id="text_5">
      <!-- 30° -->
      <g transform="translate(300.8255 116.461143) scale(0.1 -0.1)">
       <use xlink:href="#DejaVuSans-33"/>
       <use xlink:href="#DejaVuSans-30" transform="translate(63.623047 0)"/>
       <use xlink:href="#DejaVuSans-b0" transform="translate(127.246094 0)"/>
      </g>
     </g>
    </g>
    <g id="xtick_6">
     <g id="line2d_6">
      <path d="M 236.16 241.056 
L 351.389876 174.528 
" clip-path="url(#pcffcb43529)" style="fill: none; stroke: #b0b0b0; stroke-width: 0.8; stroke-linecap: square"/>
     </g>
     <g id="text_6">
      <!-- 60° -->
      <g transform="translate(354.651732 170.287375) scale(0.1 -0.1)">
       <use xlink:href="#DejaVuSans-36"/>
       <use xlink:href="#DejaVuSans-30" transform="translate(63.623047 0)"/>
       <use xlink:href="#DejaVuSans-b0" transform="translate(127.246094 0)"/>
      </g>
     </g>
    </g>
    <g id="xtick_7">
     <g id="line2d_7">
      <path d="M 236.16 241.056 
L 369.216 241.056 
" clip-path="url(#pcffcb43529)" style="fill: none; stroke: #b0b0b0; stroke-width: 0.8; stroke-linecap: square"/>
     </g>
     <g id="text_7">
      <!-- 90° -->
      <g transform="translate(374.3535 243.815375) scale(0.1 -0.1)">
       <use xlink:href="#DejaVuSans-39"/>
       <use xlink:href="#DejaVuSans-30" transform="translate(63.623047 0)"/>
       <use xlink:href="#DejaVuSans-b0" transform="translate(127.246094 0)"/>
      </g>
     </g>
    </g>
   </g>
   <g id="matplotlib.axis_2">
    <g id="ytick_1">
     <g id="line2d_8">
      <path d="M 236.16 241.056 
C 236.16 241.056 236.16 241.056 236.16 241.056 
C 236.16 241.056 236.16 241.056 236.16 241.056 
C 236.16 241.056 236.16 241.056 236.16 241.056 
C 236.16 241.056 236.16 241.056 236.16 241.056 
" clip-path="url(#pcffcb43529)" style="fill: none; stroke: #b0b0b0; stroke-width: 0.8; stroke-linecap: square"/>
     </g>
     <g id="text_8">
      <!-- −50 -->
      <g transform="translate(225.607656 255.654437) scale(0.1 -0.1)">
       <defs>
        <path id="DejaVuSans-2212" d="M 678 2272 
L 4684 2272 
L 4684 1741 
L 678 1741 
L 678 2272 
z
" transform="scale(0.015625)"/>
        <path id="DejaVuSans-35" d="M 691 4666 
L 3169 4666 
L 3169 4134 
L 1269 4134 
L 1269 2991 
Q 1406 3038 1543 3061 
Q 1681 3084 1819 3084 
Q 2600 3084 3056 2656 
Q 3513 2228 3513 1497 
Q 3513 744 3044 326 
Q 2575 -91 1722 -91 
Q 1428 -91 1123 -41 
Q 819 9 494 109 
L 494 744 
Q 775 591 1075 516 
Q 1375 441 1709 441 
Q 2250 441 2565 725 
Q 2881 1009 2881 1497 
Q 2881 1984 2565 2268 
Q 2250 2553 1709 2553 
Q 1456 2553 1204 2497 
Q 953 2441 691 2322 
L 691 4666 
z
" transform="scale(0.015625)"/>
       </defs>
       <use xlink:href="#DejaVuSans-2212"/>
       <use xlink:href="#DejaVuSans-35" transform="translate(83.789062 0)"/>
       <use xlink:href="#DejaVuSans-30" transform="translate(147.412109 0)"/>
      </g>
     </g>
    </g>
    <g id="ytick_2">
     <g id="line2d_9">
      <path d="M 211.968 241.056 
C 211.968 234.642343 214.518533 228.484813 219.053673 223.949673 
C 223.588813 219.414533 229.746343 216.864 236.16 216.864 
C 242.573657 216.864 248.731187 219.414533 253.266327 223.949673 
C 257.801467 228.484813 260.352 234.642343 260.352 241.056 
" clip-path="url(#pcffcb43529)" style="fill: none; stroke: #b0b0b0; stroke-width: 0.8; stroke-linecap: square"/>
     </g>
     <g id="text_9">
      <!-- −40 -->
      <g transform="translate(201.415656 255.654437) scale(0.1 -0.1)">
       <defs>
        <path id="DejaVuSans-34" d="M 2419 4116 
L 825 1625 
L 2419 1625 
L 2419 4116 
z
M 2253 4666 
L 3047 4666 
L 3047 1625 
L 3713 1625 
L 3713 1100 
L 3047 1100 
L 3047 0 
L 2419 0 
L 2419 1100 
L 313 1100 
L 313 1709 
L 2253 4666 
z
" transform="scale(0.015625)"/>
       </defs>
       <use xlink:href="#DejaVuSans-2212"/>
       <use xlink:href="#DejaVuSans-34" transform="translate(83.789062 0)"/>
       <use xlink:href="#DejaVuSans-30" transform="translate(147.412109 0)"/>
      </g>
     </g>
    </g>
    <g id="ytick_3">
     <g id="line2d_10">
      <path d="M 187.776 241.056 
C 187.776 228.228687 192.877065 215.913626 201.947345 206.843345 
C 211.017626 197.773065 223.332687 192.672 236.16 192.672 
C 248.987313 192.672 261.302374 197.773065 270.372655 206.843345 
C 279.442935 215.913626 284.544 228.228687 284.544 241.056 
" clip-path="url(#pcffcb43529)" style="fill: none; stroke: #b0b0b0; stroke-width: 0.8; stroke-linecap: square"/>
     </g>
     <g id="text_10">
      <!-- −30 -->
      <g transform="translate(177.223656 255.654437) scale(0.1 -0.1)">
       <use xlink:href="#DejaVuSans-2212"/>
       <use xlink:href="#DejaVuSans-33" transform="translate(83.789062 0)"/>
       <use xlink:href="#DejaVuSans-30" transform="translate(147.412109 0)"/>
      </g>
     </g>
    </g>
    <g id="ytick_4">
     <g id="line2d_11">
      <path d="M 163.584 241.056 
C 163.584 221.81503 171.235598 203.342438 184.841018 189.737018 
C 198.446438 176.131598 216.91903 168.48 236.16 168.48 
C 255.40097 168.48 273.873562 176.131598 287.478982 189.737018 
C 301.084402 203.342438 308.736 221.81503 308.736 241.056 
" clip-path="url(#pcffcb43529)" style="fill: none; stroke: #b0b0b0; stroke-width: 0.8; stroke-linecap: square"/>
     </g>
     <g id="text_11">
      <!-- −20 -->
      <g transform="translate(153.031656 255.654437) scale(0.1 -0.1)">
       <defs>
        <path id="DejaVuSans-32" d="M 1228 531 
L 3431 531 
L 3431 0 
L 469 0 
L 469 531 
Q 828 903 1448 1529 
Q 2069 2156 2228 2338 
Q 2531 2678 2651 2914 
Q 2772 3150 2772 3378 
Q 2772 3750 2511 3984 
Q 2250 4219 1831 4219 
Q 1534 4219 1204 4116 
Q 875 4013 500 3803 
L 500 4441 
Q 881 4594 1212 4672 
Q 1544 4750 1819 4750 
Q 2544 4750 2975 4387 
Q 3406 4025 3406 3419 
Q 3406 3131 3298 2873 
Q 3191 2616 2906 2266 
Q 2828 2175 2409 1742 
Q 1991 1309 1228 531 
z
" transform="scale(0.015625)"/>
       </defs>
       <use xlink:href="#DejaVuSans-2212"/>
       <use xlink:href="#DejaVuSans-32" transform="translate(83.789062 0)"/>
       <use xlink:href="#DejaVuSans-30" transform="translate(147.412109 0)"/>
      </g>
     </g>
    </g>
    <g id="ytick_5">
     <g id="line2d_12">
      <path d="M 139.392 241.056 
C 139.392 215.401374 149.594131 190.771251 167.734691 172.630691 
C 185.875251 154.490131 210.505374 144.288 236.16 144.288 
C 261.814626 144.288 286.444749 154.490131 304.585309 172.630691 
C 322.725869 190.771251 332.928 215.401374 332.928 241.056 
" clip-path="url(#pcffcb43529)" style="fill: none; stroke: #b0b0b0; stroke-width: 0.8; stroke-linecap: square"/>
     </g>
     <g id="text_12">
      <!-- −10 -->
      <g transform="translate(128.839656 255.654437) scale(0.1 -0.1)">
       <defs>
        <path id="DejaVuSans-31" d="M 794 531 
L 1825 531 
L 1825 4091 
L 703 3866 
L 703 4441 
L 1819 4666 
L 2450 4666 
L 2450 531 
L 3481 531 
L 3481 0 
L 794 0 
L 794 531 
z
" transform="scale(0.015625)"/>
       </defs>
       <use xlink:href="#DejaVuSans-2212"/>
       <use xlink:href="#DejaVuSans-31" transform="translate(83.789062 0)"/>
       <use xlink:href="#DejaVuSans-30" transform="translate(147.412109 0)"/>
      </g>
     </g>
    </g>
    <g id="ytick_6">
     <g id="line2d_13">
      <path d="M 115.2 241.056 
C 115.2 208.987717 127.952663 178.200064 150.628364 155.524364 
C 173.304064 132.848663 204.091717 120.096 236.16 120.096 
C 268.228283 120.096 299.015936 132.848663 321.691636 155.524364 
C 344.367337 178.200064 357.12 208.987717 357.12 241.056 
" clip-path="url(#pcffcb43529)" style="fill: none; stroke: #b0b0b0; stroke-width: 0.8; stroke-linecap: square"/>
     </g>
     <g id="text_13">
      <!-- 0 -->
      <g transform="translate(112.01875 255.654437) scale(0.1 -0.1)">
       <use xlink:href="#DejaVuSans-30"/>
      </g>
     </g>
    </g>
   </g>
   <g id="line2d_14">
    <path d="M 144.08495 241.056 
L 144.191518 238.308999 
L 144.512094 235.57626 
L 145.049355 232.87239 
L 145.807976 230.21272 
L 146.7372 227.748738 
L 147.879765 225.354671 
L 149.16497 223.17347 
L 150.569129 221.206825 
L 152.176362 219.340657 
L 153.884225 217.699956 
L 155.672268 216.281586 
L 157.520194 215.08013 
L 159.573167 214.010786 
L 161.677983 213.163463 
L 163.814494 212.528062 
L 166.186831 212.056058 
L 168.591262 211.800005 
L 171.288553 211.748848 
L 174.033169 211.923829 
L 176.798548 212.304672 
L 179.969155 212.962746 
L 183.193266 213.842279 
L 187.010259 215.116061 
L 190.971632 216.659236 
L 195.927757 218.842529 
L 201.32136 221.461727 
L 207.115623 224.479396 
L 215.57771 229.136841 
L 226.206398 235.229052 
L 231.799365 238.494026 
M 235.412069 240.60863 
L 216.934023 229.3914 
L 208.054568 223.761499 
L 200.99793 219.036461 
L 195.197246 214.862955 
L 190.93753 211.534698 
L 187.120824 208.268164 
L 184.113907 205.423034 
L 181.357237 202.514877 
L 178.876032 199.546699 
L 176.879908 196.808197 
L 175.094942 193.96363 
L 173.668646 191.278164 
L 172.432583 188.467545 
L 171.483697 185.777655 
L 170.722556 182.956283 
L 170.171975 180.011605 
L 169.866551 177.166789 
L 169.776428 174.201288 
L 169.905023 171.327494 
L 170.259157 168.342037 
L 170.858641 165.257664 
L 171.66531 162.271939 
L 172.729121 159.204402 
L 173.988174 156.242978 
L 175.517057 153.222244 
L 177.231916 150.319912 
L 179.228631 147.385898 
L 181.402838 144.586748 
L 183.741501 141.924749 
L 186.367742 139.273662 
L 189.149861 136.78064 
L 192.075531 134.449015 
L 195.289097 132.178161 
L 198.634793 130.092707 
L 202.099834 128.196282 
L 205.671709 126.492302 
L 209.338097 124.983923 
L 213.086821 123.674002 
L 216.905799 122.565063 
L 220.968894 121.621242 
L 225.082145 120.902424 
L 229.231824 120.410183 
L 233.404224 120.145604 
L 237.585649 120.109272 
L 241.762406 120.301266 
L 245.920801 120.721163 
L 250.04713 121.368036 
L 254.127675 122.240465 
L 258.148685 123.336552 
L 261.91871 124.589293 
L 265.609861 126.041247 
L 269.20999 127.68965 
L 272.706822 129.531429 
L 276.087907 131.563237 
L 279.340549 133.7815 
L 282.451711 136.182472 
L 285.27085 138.635458 
L 287.937252 141.247338 
L 290.438063 144.014847 
L 292.647936 146.785325 
L 294.683163 149.691116 
L 296.437424 152.567025 
L 298.008915 155.561498 
L 299.382411 158.674121 
L 300.481905 161.722832 
L 301.325294 164.690437 
L 301.965179 167.756011 
L 302.361298 170.722871 
L 302.537989 173.785328 
L 302.480758 176.737179 
L 302.210097 179.567787 
L 301.699608 182.496149 
L 300.981771 185.299792 
L 300.079763 187.970216 
L 298.900032 190.756941 
L 297.536443 193.415098 
L 295.830034 196.224403 
L 293.924714 198.920807 
L 291.853 201.495046 
L 289.312369 204.296371 
L 286.569426 207.007005 
L 283.139958 210.070539 
L 279.396415 213.121026 
L 274.475469 216.809471 
L 268.835841 220.736115 
L 262.429332 224.948193 
L 252.24206 231.333392 
L 236.907931 240.60863 
M 240.520635 238.494026 
L 256.74229 229.136841 
L 266.829327 223.615825 
L 273.341544 220.297575 
L 279.026632 217.651035 
L 283.426598 215.824298 
L 287.576666 214.331531 
L 291.478855 213.181027 
L 294.771502 212.440115 
L 297.959672 211.958672 
L 300.742774 211.756963 
L 303.473286 211.784904 
L 305.904173 212.022445 
L 308.300234 212.477922 
L 310.642017 213.163463 
L 312.746833 214.010786 
L 314.799806 215.08013 
L 316.782116 216.378864 
L 318.55608 217.80567 
L 320.250367 219.453994 
L 321.844413 221.326982 
L 323.236391 223.29933 
L 324.509486 225.485555 
L 325.639931 227.883942 
L 326.557572 230.35134 
L 327.30439 233.013735 
L 327.830149 235.719499 
L 328.139411 238.453348 
L 328.23505 241.056 
L 328.23505 241.056 
" clip-path="url(#pcffcb43529)" style="fill: none; stroke: #1f77b4; stroke-width: 1.5; stroke-linecap: square"/>
   </g>
   <g id="line2d_15">
    <path d="M 146.96181 241.056 
L 147.077336 237.974756 
L 147.405459 235.048996 
L 147.953122 232.154002 
L 148.689147 229.441169 
L 149.59518 226.919811 
L 150.654355 224.597254 
L 151.850523 222.478919 
L 153.167673 220.568298 
L 154.691218 218.756965 
L 156.330253 217.1692 
L 158.069141 215.8048 
L 159.891159 214.661131 
L 161.778032 213.732849 
L 163.895618 212.953011 
L 166.077699 212.397252 
L 168.302727 212.054211 
L 170.809749 211.902746 
L 173.367088 211.971849 
L 176.290655 212.290649 
L 179.293322 212.847926 
L 182.815194 213.753911 
L 186.497935 214.945375 
L 190.307474 216.39365 
L 195.041616 218.437511 
L 200.132569 220.867581 
L 207.124428 224.484422 
L 215.581209 229.138867 
L 226.207485 235.229689 
L 231.799952 238.494371 
M 235.412461 240.608865 
L 216.937078 229.393254 
L 208.062848 223.766594 
L 201.016415 219.048037 
L 195.233497 214.886135 
L 190.997723 211.573991 
L 187.216963 208.332443 
L 184.254865 205.51954 
L 181.560593 202.657892 
L 179.403221 200.064592 
L 177.458776 197.383759 
L 175.91326 194.89596 
L 174.569866 192.311666 
L 173.549855 189.883816 
L 172.740513 187.367204 
L 172.211531 184.993215 
L 171.927108 182.749576 
L 171.864375 180.442169 
L 172.034396 178.276676 
L 172.417016 176.252379 
L 172.996724 174.371722 
L 173.761575 172.639955 
L 174.702513 171.065047 
L 175.812968 169.657829 
L 176.976125 168.52716 
L 178.276565 167.562938 
L 179.714551 166.782398 
L 181.143156 166.250439 
L 182.691168 165.908955 
L 184.364826 165.784399 
L 185.986442 165.886072 
L 187.728021 166.224369 
L 189.388919 166.759179 
L 191.171827 167.557735 
L 193.098927 168.677923 
L 194.929088 169.986305 
L 196.928219 171.685094 
L 199.148144 173.896786 
L 201.29013 176.347471 
L 203.748242 179.52669 
L 206.155564 182.994759 
L 209.084317 187.637101 
L 212.063707 192.764858 
L 216.138689 200.292061 
L 220.798904 209.404123 
L 225.941057 219.830051 
L 230.213228 228.654024 
M 232.222424 232.743902 
L 221.677764 210.108159 
L 216.025588 197.315561 
L 212.807612 189.473508 
L 210.202406 182.498547 
L 208.436833 177.165172 
L 206.974197 172.018858 
L 205.97949 167.746133 
L 205.225312 163.501361 
L 204.789199 159.82235 
L 204.582553 156.125015 
L 204.617814 152.840036 
L 204.886821 149.529153 
L 205.353376 146.546285 
L 206.06283 143.548146 
L 206.941033 140.830623 
L 207.96268 138.355027 
L 209.228802 135.877741 
L 210.623886 133.63116 
L 212.273044 131.41913 
L 214.037296 129.436616 
L 215.901177 127.668268 
L 218.017276 125.980688 
L 220.219469 124.5193 
L 222.49418 123.275422 
L 224.828956 122.24245 
L 227.212184 121.4154 
L 229.820314 120.750813 
L 232.458709 120.317554 
L 235.114584 120.113614 
L 237.775372 120.138072 
L 240.428564 120.391039 
L 243.061561 120.87366 
L 245.661508 121.588192 
L 248.03455 122.462393 
L 250.356523 123.54354 
L 252.615639 124.836959 
L 254.799218 126.349687 
L 256.735798 127.948656 
L 258.584054 129.751799 
L 260.330261 131.771384 
L 261.8278 133.82645 
L 263.211911 136.093054 
L 264.465344 138.59257 
L 265.473609 141.090945 
L 266.336188 143.83458 
L 266.966624 146.546285 
L 267.433179 149.529153 
L 267.683375 152.453669 
L 267.74509 155.694 
L 267.572048 159.333603 
L 267.174264 162.945361 
L 266.471796 167.097261 
L 265.539217 171.255696 
L 264.168473 176.228842 
L 262.523466 181.329765 
L 260.127929 187.89163 
L 257.242529 195.065699 
L 253.953685 202.718317 
L 248.319377 215.178015 
L 240.097576 232.743902 
M 242.106772 228.654024 
L 251.521096 209.404123 
L 257.355251 198.072735 
L 261.075638 191.318627 
L 264.48819 185.598919 
L 267.176587 181.495912 
L 269.848319 177.828059 
L 272.133475 175.046636 
L 274.471387 172.560902 
L 276.557314 170.660618 
L 278.713211 169.017206 
L 280.680981 167.804911 
L 282.497519 166.932155 
L 284.390465 166.278351 
L 286.146203 165.911278 
L 287.780562 165.785117 
L 289.467249 165.886241 
L 291.027497 166.207334 
L 292.467838 166.721258 
L 293.918412 167.484098 
L 295.231316 168.432394 
L 296.406992 169.548546 
L 297.53135 170.941202 
L 298.486633 172.502592 
L 299.266467 174.221629 
L 299.862016 176.090117 
L 300.261598 178.102578 
L 300.450032 180.256323 
L 300.42054 182.355013 
L 300.177486 184.575856 
L 299.695324 186.925401 
L 298.940143 189.414881 
L 297.978111 191.814439 
L 296.704403 194.36515 
L 295.235921 196.815855 
L 293.388566 199.449524 
L 291.343004 201.987655 
L 288.798693 204.773785 
L 286.019433 207.492484 
L 282.507074 210.59237 
L 278.630506 213.710391 
L 274.448862 216.826308 
L 268.821933 220.744763 
L 262.422601 224.95232 
L 252.239909 231.334693 
L 236.907539 240.608865 
M 240.520048 238.494371 
L 256.738791 229.138867 
L 266.818827 223.621796 
L 273.320404 220.309377 
L 278.98807 217.67209 
L 283.365708 215.856802 
L 287.483776 214.379812 
L 291.341917 213.250029 
L 294.582982 212.532156 
L 297.704705 212.078719 
L 300.413105 211.906523 
L 303.051785 211.968194 
L 305.38249 212.239615 
L 307.659898 212.731589 
L 309.689942 213.388161 
L 311.668338 214.258097 
L 313.575323 215.349585 
L 315.270863 216.569217 
L 316.890876 218.001354 
L 318.417838 219.648917 
L 319.835306 221.512433 
L 321.127554 223.590234 
L 322.2792 225.878614 
L 323.274795 228.371949 
L 324.098287 231.062752 
L 324.707262 233.803564 
L 325.12839 236.718112 
L 325.334356 239.654436 
L 325.35819 241.056 
L 325.35819 241.056 
" clip-path="url(#pcffcb43529)" style="fill: none; stroke: #ff7f0e; stroke-width: 1.5; stroke-linecap: square"/>
   </g>
   <g id="line2d_16">
    <path d="M 160.66474 241.056 
L 160.550825 236.654475 
L 160.203371 227.300086 
L 160.387637 224.609576 
L 160.750449 222.440202 
L 161.283883 220.561461 
L 161.950925 218.978035 
L 162.769501 217.579233 
L 163.723955 216.369373 
L 164.79299 215.348358 
L 166.076782 214.433323 
L 167.459835 213.715703 
L 169.083563 213.132988 
L 170.787437 212.750907 
L 172.766321 212.536341 
L 175.081069 212.532215 
L 177.491138 212.75387 
L 180.328561 213.252026 
L 183.27378 213.988617 
L 186.812904 215.110975 
L 190.519738 216.507819 
L 195.170644 218.508487 
L 200.207548 220.909596 
L 207.159666 224.504533 
L 215.595206 229.146973 
L 226.211834 235.232235 
L 231.802297 238.495749 
M 235.414028 240.609802 
L 216.949301 229.40067 
L 208.09598 223.786981 
L 201.090434 219.09439 
L 195.378803 214.979049 
L 191.239321 211.731707 
L 187.603662 208.590992 
L 184.823359 205.908755 
L 182.383878 203.236883 
L 180.53407 200.881324 
L 179.147675 198.779288 
L 178.143838 196.8937 
L 177.468564 195.202875 
L 177.085019 193.695234 
L 176.968121 192.366483 
L 177.101459 191.218155 
L 177.4158 190.366549 
L 177.911895 189.665957 
L 178.590774 189.127528 
L 179.457248 188.766387 
L 180.520563 188.602673 
L 181.795597 188.663209 
L 183.304906 188.984202 
L 185.082239 189.615727 
L 187.178763 190.629559 
L 189.289533 191.88326 
L 191.773058 193.600745 
L 194.760838 195.949932 
L 197.80105 198.597422 
L 201.609926 202.203944 
L 205.557843 206.204687 
L 210.977284 212.010371 
L 217.037273 218.788684 
L 227.985409 231.445858 
L 235.151432 239.866533 
M 233.97326 238.452254 
L 219.532447 221.067002 
L 211.213236 210.679581 
L 206.304047 204.23235 
L 202.199507 198.490497 
L 198.837256 193.360646 
L 196.477305 189.347517 
L 194.773577 186.061469 
L 193.375189 182.882147 
L 192.454939 180.240358 
L 191.912022 178.033304 
L 191.682011 176.200109 
L 191.722162 174.705379 
L 191.949634 173.679486 
L 192.342417 172.885218 
L 192.892932 172.325376 
L 193.469462 172.044286 
L 194.152942 171.941109 
L 194.945425 172.028671 
L 196.046776 172.410858 
L 197.325339 173.136624 
L 198.803882 174.268783 
L 200.519436 175.901414 
L 202.533464 178.182317 
L 204.515343 180.753286 
L 206.889367 184.195812 
L 209.870379 188.985191 
L 213.004434 194.467034 
L 216.16782 200.351374 
L 220.809615 209.426193 
L 225.944538 219.837282 
L 230.214586 228.656855 
M 232.223282 232.745713 
L 221.686773 210.127412 
L 216.058602 197.38728 
L 212.879262 189.631773 
L 210.34236 182.814269 
L 208.666721 177.69497 
L 207.339772 172.883602 
L 206.510316 169.035532 
L 206.036369 165.878263 
L 205.834474 163.257588 
L 205.872687 160.756046 
L 206.100013 159.024429 
L 206.481332 157.638561 
L 206.999565 156.581245 
L 207.52717 155.947247 
L 208.136558 155.540976 
L 208.824647 155.371252 
L 209.590116 155.453343 
L 210.433589 155.810511 
L 211.358079 156.476671 
L 212.369825 157.500904 
L 213.479821 158.955287 
L 214.706699 160.949229 
L 216.082541 163.657838 
L 217.665899 167.384612 
L 219.158115 171.479657 
L 220.985818 177.221539 
L 222.754146 183.454839 
L 225.254508 193.176829 
L 227.948849 204.475377 
L 234.546461 233.760466 
M 230.914684 216.980936 
L 226.984795 198.297748 
L 224.365299 184.798701 
L 222.583229 174.209029 
L 221.5922 166.944083 
L 220.914597 160.142378 
L 220.609499 154.803662 
L 220.560591 149.601955 
L 220.753322 145.292441 
L 221.123848 141.625855 
L 221.728352 137.964596 
L 222.478931 134.827444 
L 223.346613 132.117917 
L 224.310142 129.770411 
L 225.507785 127.47192 
L 226.789789 125.536501 
L 228.140236 123.928759 
L 229.545623 122.623035 
L 230.994102 121.600674 
L 232.474979 120.848296 
L 233.97834 120.356689 
L 235.494781 120.120105 
L 237.015176 120.135851 
L 238.530484 120.404106 
L 240.031558 120.927929 
L 241.50894 121.713473 
L 242.952637 122.770428 
L 244.351832 124.11276 
L 245.530211 125.536501 
L 246.656223 127.210977 
L 247.719347 129.159338 
L 248.707082 131.412579 
L 249.604066 134.012979 
L 250.39065 137.019753 
L 251.04047 140.518906 
L 251.460604 144.007634 
L 251.718181 148.081483 
L 251.770621 152.069515 
L 251.623151 156.805575 
L 251.189608 162.643027 
L 250.527648 168.5645 
L 249.39023 176.436086 
L 247.954701 184.798701 
L 245.335205 198.297748 
L 241.405316 216.980936 
M 237.773539 233.760466 
L 244.371151 204.475377 
L 248.026276 189.334149 
L 250.209998 181.113979 
L 252.302761 174.083237 
L 253.939585 169.276267 
L 255.633728 165.002466 
L 257.083311 161.933821 
L 258.364858 159.680223 
L 259.518795 158.025963 
L 260.56818 156.839988 
L 261.526602 156.037551 
L 262.401964 155.561578 
L 263.198439 155.372769 
L 263.917536 155.444002 
L 264.558677 155.75705 
L 265.119476 156.300643 
L 265.595808 157.06941 
L 266.047376 158.289662 
L 266.354203 159.8454 
L 266.496106 161.760913 
L 266.444723 164.078176 
L 266.159201 166.865059 
L 265.578097 170.231277 
L 264.602857 174.361521 
L 263.367761 178.621863 
L 261.554893 184.010095 
L 259.440738 189.631773 
L 256.261398 197.38728 
L 252.44918 206.103825 
L 248.314034 215.189386 
L 240.096718 232.745713 
M 242.105414 228.656855 
L 251.510385 209.426193 
L 257.317925 198.148431 
L 260.995029 191.479542 
L 264.32913 185.910304 
L 266.910839 182.006217 
L 269.415295 178.640781 
L 271.487788 176.231438 
L 273.247933 174.502974 
L 274.762911 173.295025 
L 276.072919 172.506552 
L 277.202654 172.070529 
L 278.167058 171.941109 
L 278.850538 172.044286 
L 279.427068 172.325376 
L 279.896639 172.775465 
L 280.316126 173.531024 
L 280.571856 174.518243 
L 280.652614 175.739576 
L 280.541986 177.204401 
L 280.139565 179.245517 
L 279.390788 181.691371 
L 278.411798 184.170754 
L 277.038068 187.090855 
L 275.141349 190.59062 
L 272.498442 194.918043 
L 269.419506 199.503222 
L 266.015953 204.23235 
L 261.106764 210.679581 
L 255.428767 217.81765 
L 245.035085 230.454672 
L 238.34674 238.452254 
M 237.168568 239.866533 
L 252.498771 221.969835 
L 261.342716 212.010371 
L 266.762157 206.204687 
L 271.552826 201.381995 
L 275.80908 197.445758 
L 279.127417 194.682057 
L 281.841905 192.675516 
L 284.473392 191.003285 
L 286.674152 189.86251 
L 288.536473 189.130308 
L 290.118304 188.726464 
L 291.457565 188.595708 
L 292.579565 188.698436 
L 293.501117 189.005478 
L 294.232926 189.494993 
L 294.780983 190.15055 
L 295.147355 190.959943 
L 295.330553 191.914466 
L 295.325558 193.008527 
L 295.077876 194.426574 
L 294.552243 196.024861 
L 293.718201 197.811076 
L 292.531213 199.801381 
L 290.925468 202.024267 
L 289.099291 204.197213 
L 286.772755 206.63751 
L 283.779478 209.433514 
L 280.468802 212.230349 
L 276.122586 215.590893 
L 271.229566 219.09439 
L 264.22402 223.786981 
L 255.370699 229.40067 
L 243.567615 236.609368 
L 236.905972 240.609802 
M 240.517703 238.495749 
L 256.724794 229.146973 
L 266.776803 223.645693 
L 273.235749 220.35664 
L 278.833498 217.756486 
L 283.121341 215.987249 
L 287.110344 214.573907 
L 290.370244 213.632739 
L 293.471021 212.963425 
L 296.080636 212.61295 
L 298.570819 212.505426 
L 300.690147 212.632629 
L 302.509993 212.944728 
L 304.241774 213.464784 
L 305.716507 214.131849 
L 307.086706 215.00209 
L 308.230242 215.98727 
L 309.255023 217.166206 
L 310.139118 218.539274 
L 310.866203 220.10228 
L 311.426424 221.846823 
L 311.835859 223.881765 
L 312.07003 226.196698 
L 312.126913 229.017904 
L 311.96138 233.165227 
L 311.65749 240.462735 
L 311.65526 241.056 
L 311.65526 241.056 
" clip-path="url(#pcffcb43529)" style="fill: none; stroke: #2ca02c; stroke-width: 1.5; stroke-linecap: square"/>
   </g>
   <g id="line2d_17">
    <path d="M 177.108216 241.056 
L 177.214893 239.85155 
L 177.541815 238.65946 
L 178.057204 237.581963 
L 178.807243 236.539973 
L 179.737833 235.630372 
L 180.949724 234.781941 
L 182.35136 234.083051 
L 184.111146 233.477605 
L 186.084339 233.040066 
L 188.53887 232.740541 
L 191.259267 232.632523 
L 194.683023 232.733693 
L 198.509727 233.069678 
L 203.534225 233.759507 
L 209.427913 234.812338 
L 216.396965 236.275988 
L 224.713649 238.211231 
L 234.641251 240.670932 
M 235.641386 240.916674 
L 219.851863 236.53711 
L 211.001054 233.871257 
L 203.807385 231.486083 
L 197.787672 229.244859 
L 193.2492 227.329334 
L 189.231772 225.391157 
L 186.100307 223.643363 
L 183.64605 222.046267 
L 181.545037 220.407444 
L 180.185443 219.085188 
L 179.261362 217.892753 
L 178.794065 216.963503 
L 178.644175 216.259991 
L 178.728995 215.65172 
L 178.984869 215.225833 
L 179.417347 214.88241 
L 180.185459 214.593787 
L 181.25162 214.461488 
L 182.655352 214.515623 
L 184.454218 214.797532 
L 186.734553 215.366492 
L 189.632293 216.312611 
L 193.377735 217.784304 
L 197.449296 219.603166 
L 202.912943 222.288041 
L 209.048757 225.526164 
L 218.535504 230.812673 
L 231.811681 238.501262 
M 235.420298 240.613553 
L 216.998227 229.430354 
L 208.228754 223.868683 
L 201.387751 219.280579 
L 195.964875 215.353804 
L 192.219359 212.371477 
L 189.549679 209.997996 
L 187.411493 207.793104 
L 186.239481 206.299022 
L 185.586315 205.131498 
L 185.404406 204.398823 
L 185.486693 203.971328 
L 185.770308 203.690211 
L 186.259073 203.564178 
L 186.961886 203.606058 
L 188.164948 203.922571 
L 189.773901 204.581143 
L 191.866416 205.659777 
L 194.572085 207.28307 
L 198.121166 209.666002 
L 202.972826 213.228399 
L 208.494701 217.560754 
L 217.167962 224.720068 
L 229.753989 235.49313 
M 229.278468 234.984691 
L 214.479187 221.684123 
L 207.245349 214.891935 
L 201.66318 209.344219 
L 197.978291 205.399215 
L 195.014801 201.898884 
L 193.121584 199.316728 
L 192.027713 197.440853 
L 191.624379 196.345056 
L 191.602801 195.757401 
L 191.755256 195.4846 
L 192.051171 195.359215 
L 192.492564 195.387549 
L 193.31657 195.681669 
L 194.430576 196.301188 
L 196.2901 197.616125 
L 198.792419 199.694744 
L 202.186043 202.851796 
L 205.885206 206.577505 
L 211.127039 212.183097 
L 217.099249 218.860853 
L 227.997832 231.460462 
L 235.15575 239.871626 
M 233.978349 238.458314 
L 219.575819 221.119143 
L 211.366065 210.865673 
L 206.633678 204.63891 
L 202.846897 199.301924 
L 200.391509 195.494568 
L 198.802979 192.693482 
L 197.857046 190.655154 
L 197.434056 189.258666 
L 197.428014 188.565746 
L 197.606091 188.288143 
L 197.938164 188.221494 
L 198.426084 188.374705 
L 199.330153 188.948039 
L 200.551268 189.997736 
L 202.606606 192.129884 
L 204.795879 194.700095 
L 207.678967 198.385772 
L 211.68194 203.878995 
L 216.051289 210.199348 
L 223.218069 220.990525 
L 233.176863 236.398802 
M 231.901175 234.3377 
L 220.03677 215.354416 
L 213.312728 204.12207 
L 209.499943 197.346698 
L 206.534813 191.615597 
L 204.709075 187.620793 
L 203.63549 184.789987 
L 203.128438 182.862151 
L 203.064173 181.885553 
L 203.196962 181.465236 
L 203.478791 181.311416 
L 203.90888 181.431698 
L 204.490922 181.842302 
L 205.519664 182.889493 
L 206.87622 184.606985 
L 208.638061 187.177287 
L 210.95397 190.93579 
L 214.142634 196.581859 
L 217.574225 203.064078 
L 223.05807 213.950819 
L 230.220017 228.668181 
M 232.226713 232.752955 
L 221.722849 210.204504 
L 216.191154 197.675241 
L 213.168271 190.270157 
L 210.911692 184.098618 
L 209.61302 179.875811 
L 208.946557 176.965373 
L 208.761702 175.385518 
L 208.838611 174.393652 
L 209.053373 174.018675 
L 209.268436 173.944338 
L 209.6981 174.104079 
L 210.2589 174.608201 
L 211.224867 175.878435 
L 212.476811 177.965286 
L 214.091644 181.124733 
L 216.228367 185.859844 
L 218.384482 191.094588 
L 221.44053 199.058236 
L 224.547117 207.585316 
L 230.208307 223.726313 
M 230.723205 224.979214 
L 223.280288 202.370187 
L 220.072165 191.963117 
L 217.658463 183.374751 
L 216.237541 177.575432 
L 215.235469 172.501498 
L 214.791055 169.023056 
L 214.729757 167.114821 
L 214.882231 165.876489 
L 215.12151 165.361778 
L 215.461208 165.199615 
L 215.742243 165.292648 
L 216.246225 165.751415 
L 216.853141 166.628483 
L 217.839775 168.559897 
L 219.073083 171.605201 
L 220.652815 176.273336 
L 222.199869 181.497384 
L 224.331054 189.496862 
L 226.441484 198.076268 
L 230.174976 214.19529 
L 234.546898 233.762441 
M 230.916832 216.990794 
L 226.997498 198.356948 
L 224.409704 185.010496 
L 222.698028 174.774257 
L 221.80781 168.040975 
L 221.359928 163.17877 
L 221.194995 158.79178 
L 221.288852 156.284792 
L 221.538295 154.513549 
L 221.918383 153.412656 
L 222.279701 153.016312 
L 222.554634 152.961091 
L 222.856101 153.080795 
L 223.357968 153.61288 
L 223.921385 154.619975 
L 224.552028 156.193408 
L 225.261534 158.482852 
L 226.072555 161.74699 
L 227.031561 166.479375 
L 228.249286 173.799933 
L 229.355662 181.595889 
L 231.09975 195.571482 
L 232.765237 210.099225 
M 232.643297 208.029581 
L 230.365826 184.967305 
L 229.137726 169.793534 
L 228.617469 160.630338 
L 228.383126 152.121208 
L 228.435054 145.819944 
L 228.665186 140.843382 
L 229.12392 135.869915 
L 229.719269 131.895977 
L 230.415515 128.685383 
L 231.188493 126.095737 
L 232.020368 124.035726 
L 232.897046 122.44465 
L 233.806758 121.28169 
L 234.551348 120.641106 
L 235.305619 120.248243 
L 236.064952 120.097877 
L 236.824845 120.188048 
L 237.580808 120.519928 
L 238.328262 121.097903 
L 239.06243 121.929865 
L 239.778208 123.027781 
L 240.638484 124.80059 
L 241.44866 127.06377 
L 242.193364 129.888588 
L 242.852638 133.383506 
L 243.39856 137.721292 
L 243.725604 141.990466 
L 243.917517 147.24813 
L 243.911504 153.988318 
L 243.702531 160.630338 
L 243.182274 169.793534 
L 242.498784 178.737344 
L 241.137042 193.606966 
L 239.676703 208.029581 
M 239.554763 210.099225 
L 242.22414 187.316605 
L 244.070714 173.799933 
L 245.288439 166.479375 
L 246.531204 160.527349 
L 247.541052 156.867192 
L 248.398615 154.619975 
L 248.962032 153.61288 
L 249.463899 153.080795 
L 249.906174 152.967352 
L 250.167659 153.107201 
L 250.507916 153.626621 
L 250.781705 154.513549 
L 251.031148 156.284792 
L 251.125005 158.79178 
L 251.023152 162.17114 
L 250.657598 166.683823 
L 249.899998 172.856044 
L 248.912041 179.266026 
L 247.243601 188.601061 
L 245.322502 198.356948 
L 241.403168 216.990794 
M 237.773102 233.762441 
L 244.363217 204.510723 
L 247.988946 189.496862 
L 250.120131 181.497384 
L 252.10381 174.908639 
L 253.582444 170.718113 
L 254.747607 167.985462 
L 255.681053 166.286432 
L 256.420852 165.40184 
L 256.858792 165.199615 
L 257.096237 165.268239 
L 257.369444 165.665943 
L 257.53885 166.415472 
L 257.588458 167.98083 
L 257.405818 170.255047 
L 256.93582 173.369879 
L 256.082459 177.575432 
L 254.661537 183.374751 
L 252.988244 189.429685 
L 250.329031 198.273336 
L 247.386602 207.511496 
L 241.596795 224.979214 
M 242.111693 223.726313 
L 249.492212 202.823991 
L 253.050295 193.345379 
L 256.091633 185.859844 
L 258.228356 181.124733 
L 260.186277 177.355765 
L 261.361456 175.491238 
L 262.262962 174.400103 
L 262.779468 174.013827 
L 263.166224 173.963772 
L 263.352707 174.108728 
L 263.523605 174.588525 
L 263.558298 175.385518 
L 263.373443 176.965373 
L 262.884349 179.201018 
L 262.018692 182.223218 
L 260.64927 186.276322 
L 258.529458 191.850646 
L 255.082726 200.117363 
L 250.597151 210.204504 
L 245.120698 222.063157 
L 240.093287 232.752955 
M 242.099983 228.668181 
L 251.467493 209.514574 
L 257.168017 198.45244 
L 260.669781 192.128811 
L 263.681939 187.177287 
L 265.81705 184.106583 
L 267.35249 182.289999 
L 268.234311 181.53523 
L 268.714405 181.320443 
L 269.045529 181.384141 
L 269.228348 181.71598 
L 269.259219 182.31363 
L 269.04919 183.534878 
L 268.519383 185.278154 
L 267.314283 188.314576 
L 265.301806 192.595193 
L 262.820057 197.346698 
L 259.007272 204.12207 
L 254.437327 211.818661 
L 245.918789 225.607866 
L 240.418825 234.3377 
M 239.143137 236.398802 
L 252.017223 216.555209 
L 259.360259 205.69885 
L 263.77087 199.548324 
L 267.524121 194.700095 
L 270.178255 191.618798 
L 272.106084 189.686269 
L 273.479279 188.606125 
L 274.236718 188.24753 
L 274.62034 188.242163 
L 274.849781 188.450097 
L 274.924341 188.866054 
L 274.774474 189.744851 
L 274.318441 191.008776 
L 273.255922 193.187193 
L 271.516776 196.164439 
L 268.844428 200.221696 
L 265.686322 204.63891 
L 260.953935 210.865673 
L 255.364301 217.895398 
L 245.0214 230.471019 
L 238.341651 238.458314 
M 237.16425 239.871626 
L 252.457534 222.018006 
L 261.192961 212.183097 
L 266.434794 206.577505 
L 270.903098 202.110315 
L 274.088864 199.205882 
L 276.841823 197.010212 
L 278.484589 195.947969 
L 279.647202 195.432711 
L 280.268829 195.359215 
L 280.564744 195.4846 
L 280.717199 195.757401 
L 280.695621 196.345056 
L 280.407849 197.188973 
L 279.643113 198.61942 
L 278.364404 200.509944 
L 276.455689 202.947995 
L 273.710943 206.098589 
L 269.730274 210.293164 
L 265.074651 214.891935 
L 257.840813 221.684123 
L 248.27267 230.33556 
L 243.041532 234.984691 
M 242.566011 235.49313 
L 257.808803 222.493977 
L 265.40494 216.298221 
L 271.491355 211.61913 
L 275.741366 208.60168 
L 279.454731 206.234441 
L 282.169485 204.760125 
L 284.155052 203.922571 
L 285.554586 203.578964 
L 286.331382 203.607114 
L 286.716793 203.812016 
L 286.89956 204.16718 
L 286.881168 204.665721 
L 286.570154 205.485528 
L 285.922926 206.524736 
L 284.657558 208.075919 
L 282.770321 209.997996 
L 280.100641 212.371477 
L 276.355125 215.353804 
L 271.996894 218.535382 
L 265.716317 222.804606 
L 257.970764 227.776243 
L 248.39566 233.685013 
L 236.899702 240.613553 
M 240.508319 238.501262 
L 256.66876 229.179422 
L 266.608319 223.741502 
L 272.895551 220.546572 
L 278.209937 218.096947 
L 282.13064 216.516102 
L 285.585447 215.366492 
L 288.196232 214.732503 
L 290.173159 214.474599 
L 291.640849 214.506424 
L 292.553904 214.720117 
L 293.183877 215.078041 
L 293.553538 215.560371 
L 293.67815 216.151721 
L 293.567014 216.840047 
L 293.224306 217.615954 
L 292.530674 218.622415 
L 291.337878 219.896751 
L 289.687314 221.297979 
L 287.522422 222.82748 
L 284.748937 224.496607 
L 281.208567 226.332686 
L 277.266207 228.11992 
L 272.178908 230.154891 
L 266.387649 232.217877 
L 259.8272 234.337471 
L 250.131399 237.208239 
L 236.678614 240.916674 
M 237.678749 240.670932 
L 252.20982 237.12065 
L 261.691621 235.050395 
L 267.929643 233.898529 
L 273.179047 233.142756 
L 277.636977 232.733693 
L 281.060733 232.632523 
L 284.082172 232.765562 
L 286.476283 233.082631 
L 288.59377 233.589786 
L 290.275001 234.216229 
L 291.732085 235.006077 
L 292.861563 235.873191 
L 293.791193 236.882408 
L 294.458964 237.937897 
L 294.931011 239.115663 
L 295.171519 240.314029 
L 295.211784 241.056 
L 295.211784 241.056 
" clip-path="url(#pcffcb43529)" style="fill: none; stroke: #d62728; stroke-width: 1.5; stroke-linecap: square"/>
   </g>
   <g id="patch_3">
    <path d="M 369.216 241.056 
C 369.216 205.780889 355.18807 171.914471 330.2448 146.9712 
C 305.301529 122.02793 271.435111 108 236.16 108 
C 200.884889 108 167.018471 122.02793 142.0752 146.9712 
C 117.13193 171.914471 103.104 205.780889 103.104 241.056 
" style="fill: none; stroke: #000000; stroke-width: 0.8; stroke-linejoin: miter; stroke-linecap: square"/>
   </g>
   <g id="patch_4">
    <path d="M 236.16 241.056 
L 103.104 241.056 
" style="fill: none; stroke: #000000; stroke-width: 0.8; stroke-linejoin: miter; stroke-linecap: square"/>
   </g>
   <g id="patch_5">
    <path d="M 236.16 241.056 
L 369.216 241.056 
" style="fill: none; stroke: #000000; stroke-width: 0.8; stroke-linejoin: miter; stroke-linecap: square"/>
   </g>
  </g>
 </g>
 <defs>
  <clipPath id="pcffcb43529">
   <path d="M 369.216 241.056 
C 369.216 205.780889 355.18807 171.914471 330.2448 146.9712 
C 305.301529 122.02793 271.435111 108 236.16 108 
C 200.884889 108 167.018471 122.02793 142.0752 146.9712 
C 117.13193 171.914471 103.104 205.780889 103.104 241.056 
L 236.16 241.056 
C 236.16 241.056 236.16 241.056 236.16 241.056 
C 236.16 241.056 236.16 241.056 236.16 241.056 
C 236.16 241.056 236.16 241.056 236.16 241.056 
C 236.16 241.056 236.16 241.056 236.16 241.056 
z
"/>
  </clipPath>
 </defs>
</svg>
