<?xml version="1.0" encoding="utf-8" standalone="no"?>
<!DOCTYPE svg PUBLIC "-//W3C//DTD SVG 1.1//EN"
  "http://www.w3.org/Graphics/SVG/1.1/DTD/svg11.dtd">
<svg xmlns:xlink="http://www.w3.org/1999/xlink" width="460.8pt" height="345.6pt" viewBox="0 0 460.8 345.6" xmlns="http://www.w3.org/2000/svg" version="1.1">
 <metadata>
  <rdf:RDF xmlns:dc="http://purl.org/dc/elements/1.1/" xmlns:cc="http://creativecommons.org/ns#" xmlns:rdf="http://www.w3.org/1999/02/22-rdf-syntax-ns#">
   <cc:Work>
    <dc:type rdf:resource="http://purl.org/dc/dcmitype/StillImage"/>
    <dc:date>2025-04-08T20:40:02.119033</dc:date>
    <dc:format>image/svg+xml</dc:format>
    <dc:creator>
     <cc:Agent>
      <dc:title>Matplotlib v3.10.1, https://matplotlib.org/</dc:title>
     </cc:Agent>
    </dc:creator>
   </cc:Work>
  </rdf:RDF>
 </metadata>
 <defs>
  <style type="text/css">*{stroke-linejoin: round; stroke-linecap: butt}</style>
 </defs>
 <g id="figure_1">
  <g id="patch_1">
   <path d="M 0 345.6 
L 460.8 345.6 
L 460.8 0 
L 0 0 
z
" style="fill: #ffffff"/>
  </g>
  <g id="axes_1">
   <g id="patch_2">
    <path d="M 57.6 307.584 
L 414.72 307.584 
L 414.72 41.472 
L 57.6 41.472 
z
" style="fill: #ffffff"/>
   </g>
   <g id="matplotlib.axis_1">
    <g id="xtick_1">
     <g id="line2d_1">
      <path d="M 77.44 307.584 
L 77.44 41.472 
" clip-path="url(#p5e4080a5c7)" style="fill: none; stroke: #b0b0b0; stroke-width: 0.8; stroke-linecap: square"/>
     </g>
     <g id="line2d_2">
      <defs>
       <path id="me8f61ac0f7" d="M 0 0 
L 0 3.5 
" style="stroke: #000000; stroke-width: 0.8"/>
      </defs>
      <g>
       <use xlink:href="#me8f61ac0f7" x="77.44" y="307.584" style="stroke: #000000; stroke-width: 0.8"/>
      </g>
     </g>
     <g id="text_1">
      <!-- −80 -->
      <g transform="translate(66.887656 322.182437) scale(0.1 -0.1)">
       <defs>
        <path id="DejaVuSans-2212" d="M 678 2272 
L 4684 2272 
L 4684 1741 
L 678 1741 
L 678 2272 
z
" transform="scale(0.015625)"/>
        <path id="DejaVuSans-38" d="M 2034 2216 
Q 1584 2216 1326 1975 
Q 1069 1734 1069 1313 
Q 1069 891 1326 650 
Q 1584 409 2034 409 
Q 2484 409 2743 651 
Q 3003 894 3003 1313 
Q 3003 1734 2745 1975 
Q 2488 2216 2034 2216 
z
M 1403 2484 
Q 997 2584 770 2862 
Q 544 3141 544 3541 
Q 544 4100 942 4425 
Q 1341 4750 2034 4750 
Q 2731 4750 3128 4425 
Q 3525 4100 3525 3541 
Q 3525 3141 3298 2862 
Q 3072 2584 2669 2484 
Q 3125 2378 3379 2068 
Q 3634 1759 3634 1313 
Q 3634 634 3220 271 
Q 2806 -91 2034 -91 
Q 1263 -91 848 271 
Q 434 634 434 1313 
Q 434 1759 690 2068 
Q 947 2378 1403 2484 
z
M 1172 3481 
Q 1172 3119 1398 2916 
Q 1625 2713 2034 2713 
Q 2441 2713 2670 2916 
Q 2900 3119 2900 3481 
Q 2900 3844 2670 4047 
Q 2441 4250 2034 4250 
Q 1625 4250 1398 4047 
Q 1172 3844 1172 3481 
z
" transform="scale(0.015625)"/>
        <path id="DejaVuSans-30" d="M 2034 4250 
Q 1547 4250 1301 3770 
Q 1056 3291 1056 2328 
Q 1056 1369 1301 889 
Q 1547 409 2034 409 
Q 2525 409 2770 889 
Q 3016 1369 3016 2328 
Q 3016 3291 2770 3770 
Q 2525 4250 2034 4250 
z
M 2034 4750 
Q 2819 4750 3233 4129 
Q 3647 3509 3647 2328 
Q 3647 1150 3233 529 
Q 2819 -91 2034 -91 
Q 1250 -91 836 529 
Q 422 1150 422 2328 
Q 422 3509 836 4129 
Q 1250 4750 2034 4750 
z
" transform="scale(0.015625)"/>
       </defs>
       <use xlink:href="#DejaVuSans-2212"/>
       <use xlink:href="#DejaVuSans-38" transform="translate(83.789062 0)"/>
       <use xlink:href="#DejaVuSans-30" transform="translate(147.412109 0)"/>
      </g>
     </g>
    </g>
    <g id="xtick_2">
     <g id="line2d_3">
      <path d="M 117.12 307.584 
L 117.12 41.472 
" clip-path="url(#p5e4080a5c7)" style="fill: none; stroke: #b0b0b0; stroke-width: 0.8; stroke-linecap: square"/>
     </g>
     <g id="line2d_4">
      <g>
       <use xlink:href="#me8f61ac0f7" x="117.12" y="307.584" style="stroke: #000000; stroke-width: 0.8"/>
      </g>
     </g>
     <g id="text_2">
      <!-- −60 -->
      <g transform="translate(106.567656 322.182437) scale(0.1 -0.1)">
       <defs>
        <path id="DejaVuSans-36" d="M 2113 2584 
Q 1688 2584 1439 2293 
Q 1191 2003 1191 1497 
Q 1191 994 1439 701 
Q 1688 409 2113 409 
Q 2538 409 2786 701 
Q 3034 994 3034 1497 
Q 3034 2003 2786 2293 
Q 2538 2584 2113 2584 
z
M 3366 4563 
L 3366 3988 
Q 3128 4100 2886 4159 
Q 2644 4219 2406 4219 
Q 1781 4219 1451 3797 
Q 1122 3375 1075 2522 
Q 1259 2794 1537 2939 
Q 1816 3084 2150 3084 
Q 2853 3084 3261 2657 
Q 3669 2231 3669 1497 
Q 3669 778 3244 343 
Q 2819 -91 2113 -91 
Q 1303 -91 875 529 
Q 447 1150 447 2328 
Q 447 3434 972 4092 
Q 1497 4750 2381 4750 
Q 2619 4750 2861 4703 
Q 3103 4656 3366 4563 
z
" transform="scale(0.015625)"/>
       </defs>
       <use xlink:href="#DejaVuSans-2212"/>
       <use xlink:href="#DejaVuSans-36" transform="translate(83.789062 0)"/>
       <use xlink:href="#DejaVuSans-30" transform="translate(147.412109 0)"/>
      </g>
     </g>
    </g>
    <g id="xtick_3">
     <g id="line2d_5">
      <path d="M 156.8 307.584 
L 156.8 41.472 
" clip-path="url(#p5e4080a5c7)" style="fill: none; stroke: #b0b0b0; stroke-width: 0.8; stroke-linecap: square"/>
     </g>
     <g id="line2d_6">
      <g>
       <use xlink:href="#me8f61ac0f7" x="156.8" y="307.584" style="stroke: #000000; stroke-width: 0.8"/>
      </g>
     </g>
     <g id="text_3">
      <!-- −40 -->
      <g transform="translate(146.247656 322.182437) scale(0.1 -0.1)">
       <defs>
        <path id="DejaVuSans-34" d="M 2419 4116 
L 825 1625 
L 2419 1625 
L 2419 4116 
z
M 2253 4666 
L 3047 4666 
L 3047 1625 
L 3713 1625 
L 3713 1100 
L 3047 1100 
L 3047 0 
L 2419 0 
L 2419 1100 
L 313 1100 
L 313 1709 
L 2253 4666 
z
" transform="scale(0.015625)"/>
       </defs>
       <use xlink:href="#DejaVuSans-2212"/>
       <use xlink:href="#DejaVuSans-34" transform="translate(83.789062 0)"/>
       <use xlink:href="#DejaVuSans-30" transform="translate(147.412109 0)"/>
      </g>
     </g>
    </g>
    <g id="xtick_4">
     <g id="line2d_7">
      <path d="M 196.48 307.584 
L 196.48 41.472 
" clip-path="url(#p5e4080a5c7)" style="fill: none; stroke: #b0b0b0; stroke-width: 0.8; stroke-linecap: square"/>
     </g>
     <g id="line2d_8">
      <g>
       <use xlink:href="#me8f61ac0f7" x="196.48" y="307.584" style="stroke: #000000; stroke-width: 0.8"/>
      </g>
     </g>
     <g id="text_4">
      <!-- −20 -->
      <g transform="translate(185.927656 322.182437) scale(0.1 -0.1)">
       <defs>
        <path id="DejaVuSans-32" d="M 1228 531 
L 3431 531 
L 3431 0 
L 469 0 
L 469 531 
Q 828 903 1448 1529 
Q 2069 2156 2228 2338 
Q 2531 2678 2651 2914 
Q 2772 3150 2772 3378 
Q 2772 3750 2511 3984 
Q 2250 4219 1831 4219 
Q 1534 4219 1204 4116 
Q 875 4013 500 3803 
L 500 4441 
Q 881 4594 1212 4672 
Q 1544 4750 1819 4750 
Q 2544 4750 2975 4387 
Q 3406 4025 3406 3419 
Q 3406 3131 3298 2873 
Q 3191 2616 2906 2266 
Q 2828 2175 2409 1742 
Q 1991 1309 1228 531 
z
" transform="scale(0.015625)"/>
       </defs>
       <use xlink:href="#DejaVuSans-2212"/>
       <use xlink:href="#DejaVuSans-32" transform="translate(83.789062 0)"/>
       <use xlink:href="#DejaVuSans-30" transform="translate(147.412109 0)"/>
      </g>
     </g>
    </g>
    <g id="xtick_5">
     <g id="line2d_9">
      <path d="M 236.16 307.584 
L 236.16 41.472 
" clip-path="url(#p5e4080a5c7)" style="fill: none; stroke: #b0b0b0; stroke-width: 0.8; stroke-linecap: square"/>
     </g>
     <g id="line2d_10">
      <g>
       <use xlink:href="#me8f61ac0f7" x="236.16" y="307.584" style="stroke: #000000; stroke-width: 0.8"/>
      </g>
     </g>
     <g id="text_5">
      <!-- 0 -->
      <g transform="translate(232.97875 322.182437) scale(0.1 -0.1)">
       <use xlink:href="#DejaVuSans-30"/>
      </g>
     </g>
    </g>
    <g id="xtick_6">
     <g id="line2d_11">
      <path d="M 275.84 307.584 
L 275.84 41.472 
" clip-path="url(#p5e4080a5c7)" style="fill: none; stroke: #b0b0b0; stroke-width: 0.8; stroke-linecap: square"/>
     </g>
     <g id="line2d_12">
      <g>
       <use xlink:href="#me8f61ac0f7" x="275.84" y="307.584" style="stroke: #000000; stroke-width: 0.8"/>
      </g>
     </g>
     <g id="text_6">
      <!-- 20 -->
      <g transform="translate(269.4775 322.182437) scale(0.1 -0.1)">
       <use xlink:href="#DejaVuSans-32"/>
       <use xlink:href="#DejaVuSans-30" transform="translate(63.623047 0)"/>
      </g>
     </g>
    </g>
    <g id="xtick_7">
     <g id="line2d_13">
      <path d="M 315.52 307.584 
L 315.52 41.472 
" clip-path="url(#p5e4080a5c7)" style="fill: none; stroke: #b0b0b0; stroke-width: 0.8; stroke-linecap: square"/>
     </g>
     <g id="line2d_14">
      <g>
       <use xlink:href="#me8f61ac0f7" x="315.52" y="307.584" style="stroke: #000000; stroke-width: 0.8"/>
      </g>
     </g>
     <g id="text_7">
      <!-- 40 -->
      <g transform="translate(309.1575 322.182437) scale(0.1 -0.1)">
       <use xlink:href="#DejaVuSans-34"/>
       <use xlink:href="#DejaVuSans-30" transform="translate(63.623047 0)"/>
      </g>
     </g>
    </g>
    <g id="xtick_8">
     <g id="line2d_15">
      <path d="M 355.2 307.584 
L 355.2 41.472 
" clip-path="url(#p5e4080a5c7)" style="fill: none; stroke: #b0b0b0; stroke-width: 0.8; stroke-linecap: square"/>
     </g>
     <g id="line2d_16">
      <g>
       <use xlink:href="#me8f61ac0f7" x="355.2" y="307.584" style="stroke: #000000; stroke-width: 0.8"/>
      </g>
     </g>
     <g id="text_8">
      <!-- 60 -->
      <g transform="translate(348.8375 322.182437) scale(0.1 -0.1)">
       <use xlink:href="#DejaVuSans-36"/>
       <use xlink:href="#DejaVuSans-30" transform="translate(63.623047 0)"/>
      </g>
     </g>
    </g>
    <g id="xtick_9">
     <g id="line2d_17">
      <path d="M 394.88 307.584 
L 394.88 41.472 
" clip-path="url(#p5e4080a5c7)" style="fill: none; stroke: #b0b0b0; stroke-width: 0.8; stroke-linecap: square"/>
     </g>
     <g id="line2d_18">
      <g>
       <use xlink:href="#me8f61ac0f7" x="394.88" y="307.584" style="stroke: #000000; stroke-width: 0.8"/>
      </g>
     </g>
     <g id="text_9">
      <!-- 80 -->
      <g transform="translate(388.5175 322.182437) scale(0.1 -0.1)">
       <use xlink:href="#DejaVuSans-38"/>
       <use xlink:href="#DejaVuSans-30" transform="translate(63.623047 0)"/>
      </g>
     </g>
    </g>
    <g id="text_10">
     <!-- Einfallswinkel (in °) -->
     <g transform="translate(188.271719 335.860562) scale(0.1 -0.1)">
      <defs>
       <path id="DejaVuSans-45" d="M 628 4666 
L 3578 4666 
L 3578 4134 
L 1259 4134 
L 1259 2753 
L 3481 2753 
L 3481 2222 
L 1259 2222 
L 1259 531 
L 3634 531 
L 3634 0 
L 628 0 
L 628 4666 
z
" transform="scale(0.015625)"/>
       <path id="DejaVuSans-69" d="M 603 3500 
L 1178 3500 
L 1178 0 
L 603 0 
L 603 3500 
z
M 603 4863 
L 1178 4863 
L 1178 4134 
L 603 4134 
L 603 4863 
z
" transform="scale(0.015625)"/>
       <path id="DejaVuSans-6e" d="M 3513 2113 
L 3513 0 
L 2938 0 
L 2938 2094 
Q 2938 2591 2744 2837 
Q 2550 3084 2163 3084 
Q 1697 3084 1428 2787 
Q 1159 2491 1159 1978 
L 1159 0 
L 581 0 
L 581 3500 
L 1159 3500 
L 1159 2956 
Q 1366 3272 1645 3428 
Q 1925 3584 2291 3584 
Q 2894 3584 3203 3211 
Q 3513 2838 3513 2113 
z
" transform="scale(0.015625)"/>
       <path id="DejaVuSans-66" d="M 2375 4863 
L 2375 4384 
L 1825 4384 
Q 1516 4384 1395 4259 
Q 1275 4134 1275 3809 
L 1275 3500 
L 2222 3500 
L 2222 3053 
L 1275 3053 
L 1275 0 
L 697 0 
L 697 3053 
L 147 3053 
L 147 3500 
L 697 3500 
L 697 3744 
Q 697 4328 969 4595 
Q 1241 4863 1831 4863 
L 2375 4863 
z
" transform="scale(0.015625)"/>
       <path id="DejaVuSans-61" d="M 2194 1759 
Q 1497 1759 1228 1600 
Q 959 1441 959 1056 
Q 959 750 1161 570 
Q 1363 391 1709 391 
Q 2188 391 2477 730 
Q 2766 1069 2766 1631 
L 2766 1759 
L 2194 1759 
z
M 3341 1997 
L 3341 0 
L 2766 0 
L 2766 531 
Q 2569 213 2275 61 
Q 1981 -91 1556 -91 
Q 1019 -91 701 211 
Q 384 513 384 1019 
Q 384 1609 779 1909 
Q 1175 2209 1959 2209 
L 2766 2209 
L 2766 2266 
Q 2766 2663 2505 2880 
Q 2244 3097 1772 3097 
Q 1472 3097 1187 3025 
Q 903 2953 641 2809 
L 641 3341 
Q 956 3463 1253 3523 
Q 1550 3584 1831 3584 
Q 2591 3584 2966 3190 
Q 3341 2797 3341 1997 
z
" transform="scale(0.015625)"/>
       <path id="DejaVuSans-6c" d="M 603 4863 
L 1178 4863 
L 1178 0 
L 603 0 
L 603 4863 
z
" transform="scale(0.015625)"/>
       <path id="DejaVuSans-73" d="M 2834 3397 
L 2834 2853 
Q 2591 2978 2328 3040 
Q 2066 3103 1784 3103 
Q 1356 3103 1142 2972 
Q 928 2841 928 2578 
Q 928 2378 1081 2264 
Q 1234 2150 1697 2047 
L 1894 2003 
Q 2506 1872 2764 1633 
Q 3022 1394 3022 966 
Q 3022 478 2636 193 
Q 2250 -91 1575 -91 
Q 1294 -91 989 -36 
Q 684 19 347 128 
L 347 722 
Q 666 556 975 473 
Q 1284 391 1588 391 
Q 1994 391 2212 530 
Q 2431 669 2431 922 
Q 2431 1156 2273 1281 
Q 2116 1406 1581 1522 
L 1381 1569 
Q 847 1681 609 1914 
Q 372 2147 372 2553 
Q 372 3047 722 3315 
Q 1072 3584 1716 3584 
Q 2034 3584 2315 3537 
Q 2597 3491 2834 3397 
z
" transform="scale(0.015625)"/>
       <path id="DejaVuSans-77" d="M 269 3500 
L 844 3500 
L 1563 769 
L 2278 3500 
L 2956 3500 
L 3675 769 
L 4391 3500 
L 4966 3500 
L 4050 0 
L 3372 0 
L 2619 2869 
L 1863 0 
L 1184 0 
L 269 3500 
z
" transform="scale(0.015625)"/>
       <path id="DejaVuSans-6b" d="M 581 4863 
L 1159 4863 
L 1159 1991 
L 2875 3500 
L 3609 3500 
L 1753 1863 
L 3688 0 
L 2938 0 
L 1159 1709 
L 1159 0 
L 581 0 
L 581 4863 
z
" transform="scale(0.015625)"/>
       <path id="DejaVuSans-65" d="M 3597 1894 
L 3597 1613 
L 953 1613 
Q 991 1019 1311 708 
Q 1631 397 2203 397 
Q 2534 397 2845 478 
Q 3156 559 3463 722 
L 3463 178 
Q 3153 47 2828 -22 
Q 2503 -91 2169 -91 
Q 1331 -91 842 396 
Q 353 884 353 1716 
Q 353 2575 817 3079 
Q 1281 3584 2069 3584 
Q 2775 3584 3186 3129 
Q 3597 2675 3597 1894 
z
M 3022 2063 
Q 3016 2534 2758 2815 
Q 2500 3097 2075 3097 
Q 1594 3097 1305 2825 
Q 1016 2553 972 2059 
L 3022 2063 
z
" transform="scale(0.015625)"/>
       <path id="DejaVuSans-20" transform="scale(0.015625)"/>
       <path id="DejaVuSans-28" d="M 1984 4856 
Q 1566 4138 1362 3434 
Q 1159 2731 1159 2009 
Q 1159 1288 1364 580 
Q 1569 -128 1984 -844 
L 1484 -844 
Q 1016 -109 783 600 
Q 550 1309 550 2009 
Q 550 2706 781 3412 
Q 1013 4119 1484 4856 
L 1984 4856 
z
" transform="scale(0.015625)"/>
       <path id="DejaVuSans-b0" d="M 1600 4347 
Q 1350 4347 1178 4173 
Q 1006 4000 1006 3750 
Q 1006 3503 1178 3333 
Q 1350 3163 1600 3163 
Q 1850 3163 2022 3333 
Q 2194 3503 2194 3750 
Q 2194 3997 2020 4172 
Q 1847 4347 1600 4347 
z
M 1600 4750 
Q 1800 4750 1984 4673 
Q 2169 4597 2303 4453 
Q 2447 4313 2519 4134 
Q 2591 3956 2591 3750 
Q 2591 3338 2302 3052 
Q 2013 2766 1594 2766 
Q 1172 2766 890 3047 
Q 609 3328 609 3750 
Q 609 4169 896 4459 
Q 1184 4750 1600 4750 
z
" transform="scale(0.015625)"/>
       <path id="DejaVuSans-29" d="M 513 4856 
L 1013 4856 
Q 1481 4119 1714 3412 
Q 1947 2706 1947 2009 
Q 1947 1309 1714 600 
Q 1481 -109 1013 -844 
L 513 -844 
Q 928 -128 1133 580 
Q 1338 1288 1338 2009 
Q 1338 2731 1133 3434 
Q 928 4138 513 4856 
z
" transform="scale(0.015625)"/>
      </defs>
      <use xlink:href="#DejaVuSans-45"/>
      <use xlink:href="#DejaVuSans-69" transform="translate(63.183594 0)"/>
      <use xlink:href="#DejaVuSans-6e" transform="translate(90.966797 0)"/>
      <use xlink:href="#DejaVuSans-66" transform="translate(154.345703 0)"/>
      <use xlink:href="#DejaVuSans-61" transform="translate(189.550781 0)"/>
      <use xlink:href="#DejaVuSans-6c" transform="translate(250.830078 0)"/>
      <use xlink:href="#DejaVuSans-6c" transform="translate(278.613281 0)"/>
      <use xlink:href="#DejaVuSans-73" transform="translate(306.396484 0)"/>
      <use xlink:href="#DejaVuSans-77" transform="translate(358.496094 0)"/>
      <use xlink:href="#DejaVuSans-69" transform="translate(440.283203 0)"/>
      <use xlink:href="#DejaVuSans-6e" transform="translate(468.066406 0)"/>
      <use xlink:href="#DejaVuSans-6b" transform="translate(531.445312 0)"/>
      <use xlink:href="#DejaVuSans-65" transform="translate(585.730469 0)"/>
      <use xlink:href="#DejaVuSans-6c" transform="translate(647.253906 0)"/>
      <use xlink:href="#DejaVuSans-20" transform="translate(675.037109 0)"/>
      <use xlink:href="#DejaVuSans-28" transform="translate(706.824219 0)"/>
      <use xlink:href="#DejaVuSans-69" transform="translate(745.837891 0)"/>
      <use xlink:href="#DejaVuSans-6e" transform="translate(773.621094 0)"/>
      <use xlink:href="#DejaVuSans-20" transform="translate(837 0)"/>
      <use xlink:href="#DejaVuSans-b0" transform="translate(868.787109 0)"/>
      <use xlink:href="#DejaVuSans-29" transform="translate(918.787109 0)"/>
     </g>
    </g>
   </g>
   <g id="matplotlib.axis_2">
    <g id="ytick_1">
     <g id="line2d_19">
      <path d="M 57.6 307.584 
L 414.72 307.584 
" clip-path="url(#p5e4080a5c7)" style="fill: none; stroke: #b0b0b0; stroke-width: 0.8; stroke-linecap: square"/>
     </g>
     <g id="line2d_20">
      <defs>
       <path id="m60d9785a78" d="M 0 0 
L -3.5 0 
" style="stroke: #000000; stroke-width: 0.8"/>
      </defs>
      <g>
       <use xlink:href="#m60d9785a78" x="57.6" y="307.584" style="stroke: #000000; stroke-width: 0.8"/>
      </g>
     </g>
     <g id="text_11">
      <!-- −50 -->
      <g transform="translate(29.495313 311.383219) scale(0.1 -0.1)">
       <defs>
        <path id="DejaVuSans-35" d="M 691 4666 
L 3169 4666 
L 3169 4134 
L 1269 4134 
L 1269 2991 
Q 1406 3038 1543 3061 
Q 1681 3084 1819 3084 
Q 2600 3084 3056 2656 
Q 3513 2228 3513 1497 
Q 3513 744 3044 326 
Q 2575 -91 1722 -91 
Q 1428 -91 1123 -41 
Q 819 9 494 109 
L 494 744 
Q 775 591 1075 516 
Q 1375 441 1709 441 
Q 2250 441 2565 725 
Q 2881 1009 2881 1497 
Q 2881 1984 2565 2268 
Q 2250 2553 1709 2553 
Q 1456 2553 1204 2497 
Q 953 2441 691 2322 
L 691 4666 
z
" transform="scale(0.015625)"/>
       </defs>
       <use xlink:href="#DejaVuSans-2212"/>
       <use xlink:href="#DejaVuSans-35" transform="translate(83.789062 0)"/>
       <use xlink:href="#DejaVuSans-30" transform="translate(147.412109 0)"/>
      </g>
     </g>
    </g>
    <g id="ytick_2">
     <g id="line2d_21">
      <path d="M 57.6 259.2 
L 414.72 259.2 
" clip-path="url(#p5e4080a5c7)" style="fill: none; stroke: #b0b0b0; stroke-width: 0.8; stroke-linecap: square"/>
     </g>
     <g id="line2d_22">
      <g>
       <use xlink:href="#m60d9785a78" x="57.6" y="259.2" style="stroke: #000000; stroke-width: 0.8"/>
      </g>
     </g>
     <g id="text_12">
      <!-- −40 -->
      <g transform="translate(29.495313 262.999219) scale(0.1 -0.1)">
       <use xlink:href="#DejaVuSans-2212"/>
       <use xlink:href="#DejaVuSans-34" transform="translate(83.789062 0)"/>
       <use xlink:href="#DejaVuSans-30" transform="translate(147.412109 0)"/>
      </g>
     </g>
    </g>
    <g id="ytick_3">
     <g id="line2d_23">
      <path d="M 57.6 210.816 
L 414.72 210.816 
" clip-path="url(#p5e4080a5c7)" style="fill: none; stroke: #b0b0b0; stroke-width: 0.8; stroke-linecap: square"/>
     </g>
     <g id="line2d_24">
      <g>
       <use xlink:href="#m60d9785a78" x="57.6" y="210.816" style="stroke: #000000; stroke-width: 0.8"/>
      </g>
     </g>
     <g id="text_13">
      <!-- −30 -->
      <g transform="translate(29.495313 214.615219) scale(0.1 -0.1)">
       <defs>
        <path id="DejaVuSans-33" d="M 2597 2516 
Q 3050 2419 3304 2112 
Q 3559 1806 3559 1356 
Q 3559 666 3084 287 
Q 2609 -91 1734 -91 
Q 1441 -91 1130 -33 
Q 819 25 488 141 
L 488 750 
Q 750 597 1062 519 
Q 1375 441 1716 441 
Q 2309 441 2620 675 
Q 2931 909 2931 1356 
Q 2931 1769 2642 2001 
Q 2353 2234 1838 2234 
L 1294 2234 
L 1294 2753 
L 1863 2753 
Q 2328 2753 2575 2939 
Q 2822 3125 2822 3475 
Q 2822 3834 2567 4026 
Q 2313 4219 1838 4219 
Q 1578 4219 1281 4162 
Q 984 4106 628 3988 
L 628 4550 
Q 988 4650 1302 4700 
Q 1616 4750 1894 4750 
Q 2613 4750 3031 4423 
Q 3450 4097 3450 3541 
Q 3450 3153 3228 2886 
Q 3006 2619 2597 2516 
z
" transform="scale(0.015625)"/>
       </defs>
       <use xlink:href="#DejaVuSans-2212"/>
       <use xlink:href="#DejaVuSans-33" transform="translate(83.789062 0)"/>
       <use xlink:href="#DejaVuSans-30" transform="translate(147.412109 0)"/>
      </g>
     </g>
    </g>
    <g id="ytick_4">
     <g id="line2d_25">
      <path d="M 57.6 162.432 
L 414.72 162.432 
" clip-path="url(#p5e4080a5c7)" style="fill: none; stroke: #b0b0b0; stroke-width: 0.8; stroke-linecap: square"/>
     </g>
     <g id="line2d_26">
      <g>
       <use xlink:href="#m60d9785a78" x="57.6" y="162.432" style="stroke: #000000; stroke-width: 0.8"/>
      </g>
     </g>
     <g id="text_14">
      <!-- −20 -->
      <g transform="translate(29.495313 166.231219) scale(0.1 -0.1)">
       <use xlink:href="#DejaVuSans-2212"/>
       <use xlink:href="#DejaVuSans-32" transform="translate(83.789062 0)"/>
       <use xlink:href="#DejaVuSans-30" transform="translate(147.412109 0)"/>
      </g>
     </g>
    </g>
    <g id="ytick_5">
     <g id="line2d_27">
      <path d="M 57.6 114.048 
L 414.72 114.048 
" clip-path="url(#p5e4080a5c7)" style="fill: none; stroke: #b0b0b0; stroke-width: 0.8; stroke-linecap: square"/>
     </g>
     <g id="line2d_28">
      <g>
       <use xlink:href="#m60d9785a78" x="57.6" y="114.048" style="stroke: #000000; stroke-width: 0.8"/>
      </g>
     </g>
     <g id="text_15">
      <!-- −10 -->
      <g transform="translate(29.495313 117.847219) scale(0.1 -0.1)">
       <defs>
        <path id="DejaVuSans-31" d="M 794 531 
L 1825 531 
L 1825 4091 
L 703 3866 
L 703 4441 
L 1819 4666 
L 2450 4666 
L 2450 531 
L 3481 531 
L 3481 0 
L 794 0 
L 794 531 
z
" transform="scale(0.015625)"/>
       </defs>
       <use xlink:href="#DejaVuSans-2212"/>
       <use xlink:href="#DejaVuSans-31" transform="translate(83.789062 0)"/>
       <use xlink:href="#DejaVuSans-30" transform="translate(147.412109 0)"/>
      </g>
     </g>
    </g>
    <g id="ytick_6">
     <g id="line2d_29">
      <path d="M 57.6 65.664 
L 414.72 65.664 
" clip-path="url(#p5e4080a5c7)" style="fill: none; stroke: #b0b0b0; stroke-width: 0.8; stroke-linecap: square"/>
     </g>
     <g id="line2d_30">
      <g>
       <use xlink:href="#m60d9785a78" x="57.6" y="65.664" style="stroke: #000000; stroke-width: 0.8"/>
      </g>
     </g>
     <g id="text_16">
      <!-- 0 -->
      <g transform="translate(44.2375 69.463219) scale(0.1 -0.1)">
       <use xlink:href="#DejaVuSans-30"/>
      </g>
     </g>
    </g>
    <g id="text_17">
     <!-- Verstärkung (in dB) -->
     <g transform="translate(23.415625 222.870187) rotate(-90) scale(0.1 -0.1)">
      <defs>
       <path id="DejaVuSans-56" d="M 1831 0 
L 50 4666 
L 709 4666 
L 2188 738 
L 3669 4666 
L 4325 4666 
L 2547 0 
L 1831 0 
z
" transform="scale(0.015625)"/>
       <path id="DejaVuSans-72" d="M 2631 2963 
Q 2534 3019 2420 3045 
Q 2306 3072 2169 3072 
Q 1681 3072 1420 2755 
Q 1159 2438 1159 1844 
L 1159 0 
L 581 0 
L 581 3500 
L 1159 3500 
L 1159 2956 
Q 1341 3275 1631 3429 
Q 1922 3584 2338 3584 
Q 2397 3584 2469 3576 
Q 2541 3569 2628 3553 
L 2631 2963 
z
" transform="scale(0.015625)"/>
       <path id="DejaVuSans-74" d="M 1172 4494 
L 1172 3500 
L 2356 3500 
L 2356 3053 
L 1172 3053 
L 1172 1153 
Q 1172 725 1289 603 
Q 1406 481 1766 481 
L 2356 481 
L 2356 0 
L 1766 0 
Q 1100 0 847 248 
Q 594 497 594 1153 
L 594 3053 
L 172 3053 
L 172 3500 
L 594 3500 
L 594 4494 
L 1172 4494 
z
" transform="scale(0.015625)"/>
       <path id="DejaVuSans-e4" d="M 2194 1759 
Q 1497 1759 1228 1600 
Q 959 1441 959 1056 
Q 959 750 1161 570 
Q 1363 391 1709 391 
Q 2188 391 2477 730 
Q 2766 1069 2766 1631 
L 2766 1759 
L 2194 1759 
z
M 3341 1997 
L 3341 0 
L 2766 0 
L 2766 531 
Q 2569 213 2275 61 
Q 1981 -91 1556 -91 
Q 1019 -91 701 211 
Q 384 513 384 1019 
Q 384 1609 779 1909 
Q 1175 2209 1959 2209 
L 2766 2209 
L 2766 2266 
Q 2766 2663 2505 2880 
Q 2244 3097 1772 3097 
Q 1472 3097 1187 3025 
Q 903 2953 641 2809 
L 641 3341 
Q 956 3463 1253 3523 
Q 1550 3584 1831 3584 
Q 2591 3584 2966 3190 
Q 3341 2797 3341 1997 
z
M 2150 4850 
L 2784 4850 
L 2784 4219 
L 2150 4219 
L 2150 4850 
z
M 928 4850 
L 1562 4850 
L 1562 4219 
L 928 4219 
L 928 4850 
z
" transform="scale(0.015625)"/>
       <path id="DejaVuSans-75" d="M 544 1381 
L 544 3500 
L 1119 3500 
L 1119 1403 
Q 1119 906 1312 657 
Q 1506 409 1894 409 
Q 2359 409 2629 706 
Q 2900 1003 2900 1516 
L 2900 3500 
L 3475 3500 
L 3475 0 
L 2900 0 
L 2900 538 
Q 2691 219 2414 64 
Q 2138 -91 1772 -91 
Q 1169 -91 856 284 
Q 544 659 544 1381 
z
M 1991 3584 
L 1991 3584 
z
" transform="scale(0.015625)"/>
       <path id="DejaVuSans-67" d="M 2906 1791 
Q 2906 2416 2648 2759 
Q 2391 3103 1925 3103 
Q 1463 3103 1205 2759 
Q 947 2416 947 1791 
Q 947 1169 1205 825 
Q 1463 481 1925 481 
Q 2391 481 2648 825 
Q 2906 1169 2906 1791 
z
M 3481 434 
Q 3481 -459 3084 -895 
Q 2688 -1331 1869 -1331 
Q 1566 -1331 1297 -1286 
Q 1028 -1241 775 -1147 
L 775 -588 
Q 1028 -725 1275 -790 
Q 1522 -856 1778 -856 
Q 2344 -856 2625 -561 
Q 2906 -266 2906 331 
L 2906 616 
Q 2728 306 2450 153 
Q 2172 0 1784 0 
Q 1141 0 747 490 
Q 353 981 353 1791 
Q 353 2603 747 3093 
Q 1141 3584 1784 3584 
Q 2172 3584 2450 3431 
Q 2728 3278 2906 2969 
L 2906 3500 
L 3481 3500 
L 3481 434 
z
" transform="scale(0.015625)"/>
       <path id="DejaVuSans-64" d="M 2906 2969 
L 2906 4863 
L 3481 4863 
L 3481 0 
L 2906 0 
L 2906 525 
Q 2725 213 2448 61 
Q 2172 -91 1784 -91 
Q 1150 -91 751 415 
Q 353 922 353 1747 
Q 353 2572 751 3078 
Q 1150 3584 1784 3584 
Q 2172 3584 2448 3432 
Q 2725 3281 2906 2969 
z
M 947 1747 
Q 947 1113 1208 752 
Q 1469 391 1925 391 
Q 2381 391 2643 752 
Q 2906 1113 2906 1747 
Q 2906 2381 2643 2742 
Q 2381 3103 1925 3103 
Q 1469 3103 1208 2742 
Q 947 2381 947 1747 
z
" transform="scale(0.015625)"/>
       <path id="DejaVuSans-42" d="M 1259 2228 
L 1259 519 
L 2272 519 
Q 2781 519 3026 730 
Q 3272 941 3272 1375 
Q 3272 1813 3026 2020 
Q 2781 2228 2272 2228 
L 1259 2228 
z
M 1259 4147 
L 1259 2741 
L 2194 2741 
Q 2656 2741 2882 2914 
Q 3109 3088 3109 3444 
Q 3109 3797 2882 3972 
Q 2656 4147 2194 4147 
L 1259 4147 
z
M 628 4666 
L 2241 4666 
Q 2963 4666 3353 4366 
Q 3744 4066 3744 3513 
Q 3744 3084 3544 2831 
Q 3344 2578 2956 2516 
Q 3422 2416 3680 2098 
Q 3938 1781 3938 1306 
Q 3938 681 3513 340 
Q 3088 0 2303 0 
L 628 0 
L 628 4666 
z
" transform="scale(0.015625)"/>
      </defs>
      <use xlink:href="#DejaVuSans-56"/>
      <use xlink:href="#DejaVuSans-65" transform="translate(60.658203 0)"/>
      <use xlink:href="#DejaVuSans-72" transform="translate(122.181641 0)"/>
      <use xlink:href="#DejaVuSans-73" transform="translate(163.294922 0)"/>
      <use xlink:href="#DejaVuSans-74" transform="translate(215.394531 0)"/>
      <use xlink:href="#DejaVuSans-e4" transform="translate(254.603516 0)"/>
      <use xlink:href="#DejaVuSans-72" transform="translate(315.882812 0)"/>
      <use xlink:href="#DejaVuSans-6b" transform="translate(356.996094 0)"/>
      <use xlink:href="#DejaVuSans-75" transform="translate(411.78125 0)"/>
      <use xlink:href="#DejaVuSans-6e" transform="translate(475.160156 0)"/>
      <use xlink:href="#DejaVuSans-67" transform="translate(538.539062 0)"/>
      <use xlink:href="#DejaVuSans-20" transform="translate(602.015625 0)"/>
      <use xlink:href="#DejaVuSans-28" transform="translate(633.802734 0)"/>
      <use xlink:href="#DejaVuSans-69" transform="translate(672.816406 0)"/>
      <use xlink:href="#DejaVuSans-6e" transform="translate(700.599609 0)"/>
      <use xlink:href="#DejaVuSans-20" transform="translate(763.978516 0)"/>
      <use xlink:href="#DejaVuSans-64" transform="translate(795.765625 0)"/>
      <use xlink:href="#DejaVuSans-42" transform="translate(859.242188 0)"/>
      <use xlink:href="#DejaVuSans-29" transform="translate(927.845703 0)"/>
     </g>
    </g>
   </g>
   <g id="line2d_31">
    <path d="M 57.6 86.356417 
L 65.281921 86.243211 
L 72.963842 85.907006 
L 80.824412 85.342646 
L 89.22093 84.513082 
L 98.153397 83.404247 
L 108.157759 81.934127 
L 120.305913 79.911894 
L 139.421391 76.466692 
L 160.323362 72.764147 
L 173.186113 70.713267 
L 184.262371 69.166235 
L 194.624032 67.942435 
L 204.449745 67.007001 
L 213.918159 66.329929 
L 223.207924 65.890945 
L 232.31904 65.684004 
L 241.430155 65.701654 
L 250.541271 65.943628 
L 259.652386 66.406269 
L 268.942151 67.097794 
L 278.589215 68.038667 
L 288.772226 69.258976 
L 299.669835 70.79371 
L 311.817989 72.734122 
L 327.181831 75.427544 
L 360.946553 81.420064 
L 372.022811 83.107645 
L 381.491226 84.329675 
L 390.066393 85.217331 
L 398.105613 85.831764 
L 405.966183 86.209525 
L 413.648104 86.354208 
L 414.72 86.356417 
L 414.72 86.356417 
" clip-path="url(#p5e4080a5c7)" style="fill: none; stroke: #1f77b4; stroke-width: 1.5; stroke-linecap: square"/>
   </g>
   <g id="line2d_32">
    <path d="M 57.6 123.433901 
L 60.637039 123.538824 
L 63.674077 123.855205 
L 66.711116 124.387965 
L 69.748154 125.145575 
L 72.785193 126.140505 
L 75.643582 127.308993 
L 78.501971 128.721746 
L 81.181711 130.289702 
L 83.861451 132.119579 
L 86.362541 134.092703 
L 88.863632 136.356761 
L 91.186073 138.757715 
L 93.508514 141.492397 
L 95.652306 144.363555 
L 97.796098 147.629893 
L 99.761241 151.040001 
L 101.547734 154.557584 
L 103.334227 158.560765 
L 104.942071 162.675602 
L 106.549915 167.399592 
L 107.97911 172.248534 
L 109.408304 177.893017 
L 110.658849 183.693889 
L 111.909395 190.591222 
L 112.981291 197.718722 
L 114.053187 206.481853 
L 114.946433 215.669438 
L 115.661031 224.944508 
L 116.375628 237.02148 
L 116.911576 249.231608 
L 117.447524 266.690321 
L 117.804822 284.516489 
L 118.162121 316.352303 
L 118.314989 346.6 
M 118.656628 346.6 
L 118.698069 330.694504 
L 119.055368 290.294929 
L 119.591316 262.608403 
L 120.127264 245.954811 
L 120.841861 230.626653 
L 121.735108 216.898404 
L 122.628354 206.455167 
L 123.70025 196.492578 
L 124.950795 187.115851 
L 126.201341 179.343543 
L 127.630535 171.817055 
L 129.238379 164.585585 
L 131.024872 157.665402 
L 132.811366 151.61969 
L 134.776508 145.739665 
L 136.9203 140.041662 
L 139.242741 134.533225 
L 141.565183 129.578011 
L 144.066273 124.744722 
L 146.746013 120.043823 
L 149.604402 115.482876 
L 152.641441 111.067727 
L 155.857129 106.803377 
L 159.072816 102.901731 
L 162.467154 99.125357 
L 166.04014 95.483845 
L 169.791776 91.986836 
L 173.543412 88.789621 
L 177.473697 85.731226 
L 181.582631 82.824883 
L 185.691566 80.192968 
L 189.8005 77.816609 
L 194.088084 75.592914 
L 198.375668 73.61682 
L 202.663252 71.87695 
L 207.129485 70.305869 
L 211.595718 68.972752 
L 216.061951 67.870954 
L 220.528184 66.995284 
L 224.994417 66.341801 
L 229.46065 65.90767 
L 233.926883 65.691056 
L 238.393117 65.691056 
L 242.85935 65.90767 
L 247.325583 66.341801 
L 251.791816 66.995284 
L 256.258049 67.870954 
L 260.724282 68.972752 
L 265.190515 70.305869 
L 269.656748 71.87695 
L 273.944332 73.61682 
L 278.231916 75.592914 
L 282.5195 77.816609 
L 286.628434 80.192968 
L 290.737369 82.824883 
L 294.667654 85.598857 
L 298.597939 88.644348 
L 302.349575 91.828037 
L 306.101211 95.310034 
L 309.674197 98.9355 
L 313.068534 102.694615 
L 316.284222 106.577589 
L 319.49991 110.820345 
L 322.536948 115.211585 
L 325.395338 119.745894 
L 328.075078 124.416949 
L 330.576168 129.216646 
L 332.898609 134.13391 
L 335.221051 139.595376 
L 337.364842 145.238688 
L 339.329985 151.054754 
L 341.116478 157.025486 
L 342.724322 163.1187 
L 344.332166 170.111165 
L 345.761361 177.344399 
L 347.011906 184.757489 
L 348.262451 193.609462 
L 349.334347 202.88163 
L 350.227594 212.420708 
L 351.12084 224.608551 
L 351.835438 237.614843 
L 352.371386 250.820968 
L 352.907334 269.998803 
L 353.264632 290.294929 
L 353.621931 330.694504 
L 353.663372 346.6 
M 354.005011 346.6 
L 354.336528 297.468894 
L 354.693827 274.653365 
L 355.229775 254.27114 
L 355.944372 237.02148 
L 356.658969 224.944508 
L 357.552216 213.652787 
L 358.624112 203.335344 
L 359.696008 195.191224 
L 360.946553 187.476885 
L 362.197099 181.092923 
L 363.626293 174.957203 
L 365.055488 169.737375 
L 366.663332 164.691158 
L 368.271176 160.32304 
L 370.057669 156.094844 
L 372.022811 152.049883 
L 373.987954 148.517166 
L 376.131746 145.140328 
L 378.275538 142.176746 
L 380.597979 139.357285 
L 382.92042 136.883755 
L 385.421511 134.55204 
L 387.922601 132.519735 
L 390.602341 130.633785 
L 393.282081 129.015709 
L 396.14047 127.554625 
L 398.998859 126.341926 
L 402.035898 125.303483 
L 405.072936 124.505022 
L 408.109975 123.933305 
L 411.147014 123.579194 
L 414.184052 123.437164 
L 414.72 123.433901 
L 414.72 123.433901 
" clip-path="url(#p5e4080a5c7)" style="fill: none; stroke: #ff7f0e; stroke-width: 1.5; stroke-linecap: square"/>
   </g>
   <g id="line2d_33">
    <path d="M 57.6 71.41772 
L 63.316778 71.309375 
L 69.212206 70.978512 
L 75.643582 70.391897 
L 83.146853 69.476806 
L 109.051006 66.098722 
L 114.410485 65.751871 
L 119.055368 65.665914 
L 123.342951 65.807765 
L 127.273237 66.161221 
L 130.846223 66.69913 
L 134.24056 67.429709 
L 137.456248 68.346377 
L 140.493287 69.439165 
L 143.351676 70.694884 
L 146.210065 72.199108 
L 148.889805 73.864169 
L 151.390895 75.669985 
L 153.891986 77.751639 
L 156.214427 79.965845 
L 158.536868 82.490763 
L 160.68066 85.1394 
L 162.824452 88.143308 
L 164.789595 91.262445 
L 166.754737 94.795997 
L 168.541231 98.43785 
L 170.327724 102.57545 
L 172.114217 107.324459 
L 173.722061 112.255973 
L 175.151256 117.305978 
L 176.58045 123.168429 
L 177.830995 129.175284 
L 179.081541 136.294833 
L 180.153437 143.62826 
L 181.225333 152.615927 
L 182.118579 162.011259 
L 182.833177 171.474587 
L 183.547774 183.776606 
L 184.083722 196.206663 
L 184.61967 214.001686 
L 184.976968 232.253148 
L 185.334267 265.328517 
L 185.691566 333.227002 
L 186.048864 251.209024 
L 186.406163 225.148682 
L 186.942111 202.991687 
L 187.656708 184.64598 
L 188.371306 171.900125 
L 189.264552 159.996961 
L 190.336448 149.094615 
L 191.408344 140.448838 
L 192.658889 132.210658 
L 193.909435 125.347243 
L 195.338629 118.703841 
L 196.946473 112.354548 
L 198.554317 106.900878 
L 200.34081 101.649553 
L 202.127304 97.071847 
L 204.092446 92.663122 
L 206.057589 88.795284 
L 208.201381 85.091479 
L 210.345173 81.845989 
L 212.488964 78.997455 
L 214.632756 76.499297 
L 216.955198 74.146828 
L 219.277639 72.128022 
L 221.60008 70.415463 
L 223.922521 68.987873 
L 226.244962 67.828796 
L 228.567404 66.925669 
L 230.889845 66.269176 
L 233.212286 65.852792 
L 235.534727 65.672484 
L 237.857169 65.726531 
L 240.17961 66.015446 
L 242.502051 66.542002 
L 244.824492 67.311355 
L 247.146933 68.331271 
L 249.469375 69.612499 
L 251.791816 71.169301 
L 253.935608 72.866898 
L 256.0794 74.833659 
L 258.223192 77.093108 
L 260.366983 79.675129 
L 262.510775 82.618042 
L 264.654567 85.971662 
L 266.61971 89.462552 
L 268.584852 93.421483 
L 270.371346 97.50328 
L 272.157839 102.141858 
L 273.765683 106.900878 
L 275.373527 112.354548 
L 276.802721 117.945763 
L 278.231916 124.454539 
L 279.482461 131.157049 
L 280.733007 139.167096 
L 281.804902 147.523897 
L 282.698149 156.040498 
L 283.591396 166.729432 
L 284.305993 177.793867 
L 285.02059 192.829833 
L 285.556538 209.167424 
L 285.913837 225.148682 
L 286.271136 251.209024 
L 286.449785 274.768385 
L 286.628434 333.227002 
L 287.343032 232.253148 
L 287.878979 207.192126 
L 288.414927 191.637958 
L 289.129525 177.170018 
L 290.022771 164.180618 
L 290.916018 154.329471 
L 291.987914 144.993485 
L 293.05981 137.426575 
L 294.310355 130.115886 
L 295.73955 123.168429 
L 297.168744 117.305978 
L 298.776588 111.672195 
L 300.384432 106.81785 
L 302.170925 102.136395 
L 303.957419 98.052951 
L 305.922561 94.119271 
L 307.887704 90.666585 
L 310.031496 87.355869 
L 312.175288 84.446049 
L 314.497729 81.678058 
L 316.82017 79.253438 
L 319.321261 76.974232 
L 321.822351 74.995186 
L 324.502091 73.166525 
L 327.181831 71.603946 
L 330.04022 70.196453 
L 333.077259 68.960707 
L 336.114297 67.962126 
L 339.329985 67.133817 
L 342.724322 66.485469 
L 346.297309 66.023355 
L 350.227594 65.741944 
L 354.515178 65.66652 
L 359.16006 65.811411 
L 364.51954 66.210785 
L 370.950915 66.927262 
L 380.41933 68.237164 
L 393.818029 70.067772 
L 400.964002 70.807158 
L 407.216728 71.231838 
L 413.112156 71.409105 
L 414.72 71.41772 
L 414.72 71.41772 
" clip-path="url(#p5e4080a5c7)" style="fill: none; stroke: #2ca02c; stroke-width: 1.5; stroke-linecap: square"/>
   </g>
   <g id="patch_3">
    <path d="M 57.6 307.584 
L 57.6 41.472 
" style="fill: none; stroke: #000000; stroke-width: 0.8; stroke-linejoin: miter; stroke-linecap: square"/>
   </g>
   <g id="patch_4">
    <path d="M 414.72 307.584 
L 414.72 41.472 
" style="fill: none; stroke: #000000; stroke-width: 0.8; stroke-linejoin: miter; stroke-linecap: square"/>
   </g>
   <g id="patch_5">
    <path d="M 57.6 307.584 
L 414.72 307.584 
" style="fill: none; stroke: #000000; stroke-width: 0.8; stroke-linejoin: miter; stroke-linecap: square"/>
   </g>
   <g id="patch_6">
    <path d="M 57.6 41.472 
L 414.72 41.472 
" style="fill: none; stroke: #000000; stroke-width: 0.8; stroke-linejoin: miter; stroke-linecap: square"/>
   </g>
   <g id="legend_1">
    <g id="patch_7">
     <path d="M 196.41 302.584 
L 275.91 302.584 
Q 277.91 302.584 277.91 300.584 
L 277.91 257.549625 
Q 277.91 255.549625 275.91 255.549625 
L 196.41 255.549625 
Q 194.41 255.549625 194.41 257.549625 
L 194.41 300.584 
Q 194.41 302.584 196.41 302.584 
z
" style="fill: #ffffff; opacity: 0.8; stroke: #cccccc; stroke-linejoin: miter"/>
    </g>
    <g id="line2d_34">
     <path d="M 198.41 263.648062 
L 208.41 263.648062 
L 218.41 263.648062 
" style="fill: none; stroke: #1f77b4; stroke-width: 1.5; stroke-linecap: square"/>
    </g>
    <g id="text_18">
     <!-- $d=0.1$ m -->
     <g transform="translate(226.41 267.148062) scale(0.1 -0.1)">
      <defs>
       <path id="DejaVuSans-Oblique-64" d="M 2675 525 
Q 2444 222 2128 65 
Q 1813 -91 1428 -91 
Q 903 -91 598 267 
Q 294 625 294 1247 
Q 294 1766 478 2236 
Q 663 2706 1013 3078 
Q 1244 3325 1534 3454 
Q 1825 3584 2144 3584 
Q 2481 3584 2739 3421 
Q 2997 3259 3138 2956 
L 3513 4863 
L 4091 4863 
L 3144 0 
L 2566 0 
L 2675 525 
z
M 891 1350 
Q 891 897 1095 644 
Q 1300 391 1663 391 
Q 1931 391 2161 520 
Q 2391 650 2566 903 
Q 2750 1166 2856 1509 
Q 2963 1853 2963 2188 
Q 2963 2622 2758 2865 
Q 2553 3109 2194 3109 
Q 1922 3109 1687 2981 
Q 1453 2853 1288 2613 
Q 1106 2353 998 2009 
Q 891 1666 891 1350 
z
" transform="scale(0.015625)"/>
       <path id="DejaVuSans-3d" d="M 678 2906 
L 4684 2906 
L 4684 2381 
L 678 2381 
L 678 2906 
z
M 678 1631 
L 4684 1631 
L 4684 1100 
L 678 1100 
L 678 1631 
z
" transform="scale(0.015625)"/>
       <path id="DejaVuSans-2e" d="M 684 794 
L 1344 794 
L 1344 0 
L 684 0 
L 684 794 
z
" transform="scale(0.015625)"/>
       <path id="DejaVuSans-6d" d="M 3328 2828 
Q 3544 3216 3844 3400 
Q 4144 3584 4550 3584 
Q 5097 3584 5394 3201 
Q 5691 2819 5691 2113 
L 5691 0 
L 5113 0 
L 5113 2094 
Q 5113 2597 4934 2840 
Q 4756 3084 4391 3084 
Q 3944 3084 3684 2787 
Q 3425 2491 3425 1978 
L 3425 0 
L 2847 0 
L 2847 2094 
Q 2847 2600 2669 2842 
Q 2491 3084 2119 3084 
Q 1678 3084 1418 2786 
Q 1159 2488 1159 1978 
L 1159 0 
L 581 0 
L 581 3500 
L 1159 3500 
L 1159 2956 
Q 1356 3278 1631 3431 
Q 1906 3584 2284 3584 
Q 2666 3584 2933 3390 
Q 3200 3197 3328 2828 
z
" transform="scale(0.015625)"/>
      </defs>
      <use xlink:href="#DejaVuSans-Oblique-64" transform="translate(0 0.015625)"/>
      <use xlink:href="#DejaVuSans-3d" transform="translate(82.958984 0.015625)"/>
      <use xlink:href="#DejaVuSans-30" transform="translate(186.230469 0.015625)"/>
      <use xlink:href="#DejaVuSans-2e" transform="translate(249.853516 0.015625)"/>
      <use xlink:href="#DejaVuSans-31" transform="translate(281.640625 0.015625)"/>
      <use xlink:href="#DejaVuSans-20" transform="translate(345.263672 0.015625)"/>
      <use xlink:href="#DejaVuSans-6d" transform="translate(377.050781 0.015625)"/>
     </g>
    </g>
    <g id="line2d_35">
     <path d="M 198.41 278.326188 
L 208.41 278.326188 
L 218.41 278.326188 
" style="fill: none; stroke: #ff7f0e; stroke-width: 1.5; stroke-linecap: square"/>
    </g>
    <g id="text_19">
     <!-- $d=0.2$ m -->
     <g transform="translate(226.41 281.826188) scale(0.1 -0.1)">
      <use xlink:href="#DejaVuSans-Oblique-64" transform="translate(0 0.015625)"/>
      <use xlink:href="#DejaVuSans-3d" transform="translate(82.958984 0.015625)"/>
      <use xlink:href="#DejaVuSans-30" transform="translate(186.230469 0.015625)"/>
      <use xlink:href="#DejaVuSans-2e" transform="translate(249.853516 0.015625)"/>
      <use xlink:href="#DejaVuSans-32" transform="translate(276.140625 0.015625)"/>
      <use xlink:href="#DejaVuSans-20" transform="translate(339.763672 0.015625)"/>
      <use xlink:href="#DejaVuSans-6d" transform="translate(371.550781 0.015625)"/>
     </g>
    </g>
    <g id="line2d_36">
     <path d="M 198.41 293.004312 
L 208.41 293.004312 
L 218.41 293.004312 
" style="fill: none; stroke: #2ca02c; stroke-width: 1.5; stroke-linecap: square"/>
    </g>
    <g id="text_20">
     <!-- $d=0.4$ m -->
     <g transform="translate(226.41 296.504312) scale(0.1 -0.1)">
      <use xlink:href="#DejaVuSans-Oblique-64" transform="translate(0 0.015625)"/>
      <use xlink:href="#DejaVuSans-3d" transform="translate(82.958984 0.015625)"/>
      <use xlink:href="#DejaVuSans-30" transform="translate(186.230469 0.015625)"/>
      <use xlink:href="#DejaVuSans-2e" transform="translate(249.853516 0.015625)"/>
      <use xlink:href="#DejaVuSans-34" transform="translate(281.640625 0.015625)"/>
      <use xlink:href="#DejaVuSans-20" transform="translate(345.263672 0.015625)"/>
      <use xlink:href="#DejaVuSans-6d" transform="translate(377.050781 0.015625)"/>
     </g>
    </g>
   </g>
  </g>
 </g>
 <defs>
  <clipPath id="p5e4080a5c7">
   <rect x="57.6" y="41.472" width="357.12" height="266.112"/>
  </clipPath>
 </defs>
</svg>
