<?xml version="1.0" encoding="utf-8" standalone="no"?>
<!DOCTYPE svg PUBLIC "-//W3C//DTD SVG 1.1//EN"
  "http://www.w3.org/Graphics/SVG/1.1/DTD/svg11.dtd">
<svg xmlns:xlink="http://www.w3.org/1999/xlink" width="460.8pt" height="345.6pt" viewBox="0 0 460.8 345.6" xmlns="http://www.w3.org/2000/svg" version="1.1">
 <metadata>
  <rdf:RDF xmlns:dc="http://purl.org/dc/elements/1.1/" xmlns:cc="http://creativecommons.org/ns#" xmlns:rdf="http://www.w3.org/1999/02/22-rdf-syntax-ns#">
   <cc:Work>
    <dc:type rdf:resource="http://purl.org/dc/dcmitype/StillImage"/>
    <dc:date>2025-03-30T14:00:23.035683</dc:date>
    <dc:format>image/svg+xml</dc:format>
    <dc:creator>
     <cc:Agent>
      <dc:title>Matplotlib v3.10.1, https://matplotlib.org/</dc:title>
     </cc:Agent>
    </dc:creator>
   </cc:Work>
  </rdf:RDF>
 </metadata>
 <defs>
  <style type="text/css">*{stroke-linejoin: round; stroke-linecap: butt}</style>
 </defs>
 <g id="figure_1">
  <g id="patch_1">
   <path d="M 0 345.6 
L 460.8 345.6 
L 460.8 0 
L 0 0 
z
" style="fill: #ffffff"/>
  </g>
  <g id="axes_1">
   <g id="patch_2">
    <path d="M 369.216 241.056 
C 369.216 205.780889 355.18807 171.914471 330.2448 146.9712 
C 305.301529 122.02793 271.435111 108 236.16 108 
C 200.884889 108 167.018471 122.02793 142.0752 146.9712 
C 117.13193 171.914471 103.104 205.780889 103.104 241.056 
L 236.16 241.056 
C 236.16 241.056 236.16 241.056 236.16 241.056 
C 236.16 241.056 236.16 241.056 236.16 241.056 
C 236.16 241.056 236.16 241.056 236.16 241.056 
C 236.16 241.056 236.16 241.056 236.16 241.056 
z
" style="fill: #ffffff"/>
   </g>
   <g id="matplotlib.axis_1">
    <g id="xtick_1">
     <g id="line2d_1">
      <path d="M 236.16 241.056 
L 369.216 241.056 
" clip-path="url(#pa6b7f2247c)" style="fill: none; stroke: #b0b0b0; stroke-width: 0.8; stroke-linecap: square"/>
     </g>
     <g id="text_1">
      <!-- 90° -->
      <g transform="translate(374.3535 243.815375) scale(0.1 -0.1)">
       <defs>
        <path id="DejaVuSans-39" d="M 703 97 
L 703 672 
Q 941 559 1184 500 
Q 1428 441 1663 441 
Q 2288 441 2617 861 
Q 2947 1281 2994 2138 
Q 2813 1869 2534 1725 
Q 2256 1581 1919 1581 
Q 1219 1581 811 2004 
Q 403 2428 403 3163 
Q 403 3881 828 4315 
Q 1253 4750 1959 4750 
Q 2769 4750 3195 4129 
Q 3622 3509 3622 2328 
Q 3622 1225 3098 567 
Q 2575 -91 1691 -91 
Q 1453 -91 1209 -44 
Q 966 3 703 97 
z
M 1959 2075 
Q 2384 2075 2632 2365 
Q 2881 2656 2881 3163 
Q 2881 3666 2632 3958 
Q 2384 4250 1959 4250 
Q 1534 4250 1286 3958 
Q 1038 3666 1038 3163 
Q 1038 2656 1286 2365 
Q 1534 2075 1959 2075 
z
" transform="scale(0.015625)"/>
        <path id="DejaVuSans-30" d="M 2034 4250 
Q 1547 4250 1301 3770 
Q 1056 3291 1056 2328 
Q 1056 1369 1301 889 
Q 1547 409 2034 409 
Q 2525 409 2770 889 
Q 3016 1369 3016 2328 
Q 3016 3291 2770 3770 
Q 2525 4250 2034 4250 
z
M 2034 4750 
Q 2819 4750 3233 4129 
Q 3647 3509 3647 2328 
Q 3647 1150 3233 529 
Q 2819 -91 2034 -91 
Q 1250 -91 836 529 
Q 422 1150 422 2328 
Q 422 3509 836 4129 
Q 1250 4750 2034 4750 
z
" transform="scale(0.015625)"/>
        <path id="DejaVuSans-b0" d="M 1600 4347 
Q 1350 4347 1178 4173 
Q 1006 4000 1006 3750 
Q 1006 3503 1178 3333 
Q 1350 3163 1600 3163 
Q 1850 3163 2022 3333 
Q 2194 3503 2194 3750 
Q 2194 3997 2020 4172 
Q 1847 4347 1600 4347 
z
M 1600 4750 
Q 1800 4750 1984 4673 
Q 2169 4597 2303 4453 
Q 2447 4313 2519 4134 
Q 2591 3956 2591 3750 
Q 2591 3338 2302 3052 
Q 2013 2766 1594 2766 
Q 1172 2766 890 3047 
Q 609 3328 609 3750 
Q 609 4169 896 4459 
Q 1184 4750 1600 4750 
z
" transform="scale(0.015625)"/>
       </defs>
       <use xlink:href="#DejaVuSans-39"/>
       <use xlink:href="#DejaVuSans-30" transform="translate(63.623047 0)"/>
       <use xlink:href="#DejaVuSans-b0" transform="translate(127.246094 0)"/>
      </g>
     </g>
    </g>
    <g id="xtick_2">
     <g id="line2d_2">
      <path d="M 236.16 241.056 
L 351.389876 174.528 
" clip-path="url(#pa6b7f2247c)" style="fill: none; stroke: #b0b0b0; stroke-width: 0.8; stroke-linecap: square"/>
     </g>
     <g id="text_2">
      <!-- 60° -->
      <g transform="translate(354.651732 170.287375) scale(0.1 -0.1)">
       <defs>
        <path id="DejaVuSans-36" d="M 2113 2584 
Q 1688 2584 1439 2293 
Q 1191 2003 1191 1497 
Q 1191 994 1439 701 
Q 1688 409 2113 409 
Q 2538 409 2786 701 
Q 3034 994 3034 1497 
Q 3034 2003 2786 2293 
Q 2538 2584 2113 2584 
z
M 3366 4563 
L 3366 3988 
Q 3128 4100 2886 4159 
Q 2644 4219 2406 4219 
Q 1781 4219 1451 3797 
Q 1122 3375 1075 2522 
Q 1259 2794 1537 2939 
Q 1816 3084 2150 3084 
Q 2853 3084 3261 2657 
Q 3669 2231 3669 1497 
Q 3669 778 3244 343 
Q 2819 -91 2113 -91 
Q 1303 -91 875 529 
Q 447 1150 447 2328 
Q 447 3434 972 4092 
Q 1497 4750 2381 4750 
Q 2619 4750 2861 4703 
Q 3103 4656 3366 4563 
z
" transform="scale(0.015625)"/>
       </defs>
       <use xlink:href="#DejaVuSans-36"/>
       <use xlink:href="#DejaVuSans-30" transform="translate(63.623047 0)"/>
       <use xlink:href="#DejaVuSans-b0" transform="translate(127.246094 0)"/>
      </g>
     </g>
    </g>
    <g id="xtick_3">
     <g id="line2d_3">
      <path d="M 236.16 241.056 
L 330.2448 146.9712 
" clip-path="url(#pa6b7f2247c)" style="fill: none; stroke: #b0b0b0; stroke-width: 0.8; stroke-linecap: square"/>
     </g>
     <g id="text_3">
      <!-- 45° -->
      <g transform="translate(331.281795 139.83108) scale(0.1 -0.1)">
       <defs>
        <path id="DejaVuSans-34" d="M 2419 4116 
L 825 1625 
L 2419 1625 
L 2419 4116 
z
M 2253 4666 
L 3047 4666 
L 3047 1625 
L 3713 1625 
L 3713 1100 
L 3047 1100 
L 3047 0 
L 2419 0 
L 2419 1100 
L 313 1100 
L 313 1709 
L 2253 4666 
z
" transform="scale(0.015625)"/>
        <path id="DejaVuSans-35" d="M 691 4666 
L 3169 4666 
L 3169 4134 
L 1269 4134 
L 1269 2991 
Q 1406 3038 1543 3061 
Q 1681 3084 1819 3084 
Q 2600 3084 3056 2656 
Q 3513 2228 3513 1497 
Q 3513 744 3044 326 
Q 2575 -91 1722 -91 
Q 1428 -91 1123 -41 
Q 819 9 494 109 
L 494 744 
Q 775 591 1075 516 
Q 1375 441 1709 441 
Q 2250 441 2565 725 
Q 2881 1009 2881 1497 
Q 2881 1984 2565 2268 
Q 2250 2553 1709 2553 
Q 1456 2553 1204 2497 
Q 953 2441 691 2322 
L 691 4666 
z
" transform="scale(0.015625)"/>
       </defs>
       <use xlink:href="#DejaVuSans-34"/>
       <use xlink:href="#DejaVuSans-35" transform="translate(63.623047 0)"/>
       <use xlink:href="#DejaVuSans-b0" transform="translate(127.246094 0)"/>
      </g>
     </g>
    </g>
    <g id="xtick_4">
     <g id="line2d_4">
      <path d="M 236.16 241.056 
L 302.688 125.826124 
" clip-path="url(#pa6b7f2247c)" style="fill: none; stroke: #b0b0b0; stroke-width: 0.8; stroke-linecap: square"/>
     </g>
     <g id="text_4">
      <!-- 30° -->
      <g transform="translate(300.8255 116.461143) scale(0.1 -0.1)">
       <defs>
        <path id="DejaVuSans-33" d="M 2597 2516 
Q 3050 2419 3304 2112 
Q 3559 1806 3559 1356 
Q 3559 666 3084 287 
Q 2609 -91 1734 -91 
Q 1441 -91 1130 -33 
Q 819 25 488 141 
L 488 750 
Q 750 597 1062 519 
Q 1375 441 1716 441 
Q 2309 441 2620 675 
Q 2931 909 2931 1356 
Q 2931 1769 2642 2001 
Q 2353 2234 1838 2234 
L 1294 2234 
L 1294 2753 
L 1863 2753 
Q 2328 2753 2575 2939 
Q 2822 3125 2822 3475 
Q 2822 3834 2567 4026 
Q 2313 4219 1838 4219 
Q 1578 4219 1281 4162 
Q 984 4106 628 3988 
L 628 4550 
Q 988 4650 1302 4700 
Q 1616 4750 1894 4750 
Q 2613 4750 3031 4423 
Q 3450 4097 3450 3541 
Q 3450 3153 3228 2886 
Q 3006 2619 2597 2516 
z
" transform="scale(0.015625)"/>
       </defs>
       <use xlink:href="#DejaVuSans-33"/>
       <use xlink:href="#DejaVuSans-30" transform="translate(63.623047 0)"/>
       <use xlink:href="#DejaVuSans-b0" transform="translate(127.246094 0)"/>
      </g>
     </g>
    </g>
    <g id="xtick_5">
     <g id="line2d_5">
      <path d="M 236.16 241.056 
L 236.16 108 
" clip-path="url(#pa6b7f2247c)" style="fill: none; stroke: #b0b0b0; stroke-width: 0.8; stroke-linecap: square"/>
     </g>
     <g id="text_5">
      <!-- 0° (Vorne) -->
      <g transform="translate(210.682656 96.759375) scale(0.1 -0.1)">
       <defs>
        <path id="DejaVuSans-20" transform="scale(0.015625)"/>
        <path id="DejaVuSans-28" d="M 1984 4856 
Q 1566 4138 1362 3434 
Q 1159 2731 1159 2009 
Q 1159 1288 1364 580 
Q 1569 -128 1984 -844 
L 1484 -844 
Q 1016 -109 783 600 
Q 550 1309 550 2009 
Q 550 2706 781 3412 
Q 1013 4119 1484 4856 
L 1984 4856 
z
" transform="scale(0.015625)"/>
        <path id="DejaVuSans-56" d="M 1831 0 
L 50 4666 
L 709 4666 
L 2188 738 
L 3669 4666 
L 4325 4666 
L 2547 0 
L 1831 0 
z
" transform="scale(0.015625)"/>
        <path id="DejaVuSans-6f" d="M 1959 3097 
Q 1497 3097 1228 2736 
Q 959 2375 959 1747 
Q 959 1119 1226 758 
Q 1494 397 1959 397 
Q 2419 397 2687 759 
Q 2956 1122 2956 1747 
Q 2956 2369 2687 2733 
Q 2419 3097 1959 3097 
z
M 1959 3584 
Q 2709 3584 3137 3096 
Q 3566 2609 3566 1747 
Q 3566 888 3137 398 
Q 2709 -91 1959 -91 
Q 1206 -91 779 398 
Q 353 888 353 1747 
Q 353 2609 779 3096 
Q 1206 3584 1959 3584 
z
" transform="scale(0.015625)"/>
        <path id="DejaVuSans-72" d="M 2631 2963 
Q 2534 3019 2420 3045 
Q 2306 3072 2169 3072 
Q 1681 3072 1420 2755 
Q 1159 2438 1159 1844 
L 1159 0 
L 581 0 
L 581 3500 
L 1159 3500 
L 1159 2956 
Q 1341 3275 1631 3429 
Q 1922 3584 2338 3584 
Q 2397 3584 2469 3576 
Q 2541 3569 2628 3553 
L 2631 2963 
z
" transform="scale(0.015625)"/>
        <path id="DejaVuSans-6e" d="M 3513 2113 
L 3513 0 
L 2938 0 
L 2938 2094 
Q 2938 2591 2744 2837 
Q 2550 3084 2163 3084 
Q 1697 3084 1428 2787 
Q 1159 2491 1159 1978 
L 1159 0 
L 581 0 
L 581 3500 
L 1159 3500 
L 1159 2956 
Q 1366 3272 1645 3428 
Q 1925 3584 2291 3584 
Q 2894 3584 3203 3211 
Q 3513 2838 3513 2113 
z
" transform="scale(0.015625)"/>
        <path id="DejaVuSans-65" d="M 3597 1894 
L 3597 1613 
L 953 1613 
Q 991 1019 1311 708 
Q 1631 397 2203 397 
Q 2534 397 2845 478 
Q 3156 559 3463 722 
L 3463 178 
Q 3153 47 2828 -22 
Q 2503 -91 2169 -91 
Q 1331 -91 842 396 
Q 353 884 353 1716 
Q 353 2575 817 3079 
Q 1281 3584 2069 3584 
Q 2775 3584 3186 3129 
Q 3597 2675 3597 1894 
z
M 3022 2063 
Q 3016 2534 2758 2815 
Q 2500 3097 2075 3097 
Q 1594 3097 1305 2825 
Q 1016 2553 972 2059 
L 3022 2063 
z
" transform="scale(0.015625)"/>
        <path id="DejaVuSans-29" d="M 513 4856 
L 1013 4856 
Q 1481 4119 1714 3412 
Q 1947 2706 1947 2009 
Q 1947 1309 1714 600 
Q 1481 -109 1013 -844 
L 513 -844 
Q 928 -128 1133 580 
Q 1338 1288 1338 2009 
Q 1338 2731 1133 3434 
Q 928 4138 513 4856 
z
" transform="scale(0.015625)"/>
       </defs>
       <use xlink:href="#DejaVuSans-30"/>
       <use xlink:href="#DejaVuSans-b0" transform="translate(63.623047 0)"/>
       <use xlink:href="#DejaVuSans-20" transform="translate(113.623047 0)"/>
       <use xlink:href="#DejaVuSans-28" transform="translate(145.410156 0)"/>
       <use xlink:href="#DejaVuSans-56" transform="translate(184.423828 0)"/>
       <use xlink:href="#DejaVuSans-6f" transform="translate(245.082031 0)"/>
       <use xlink:href="#DejaVuSans-72" transform="translate(306.263672 0)"/>
       <use xlink:href="#DejaVuSans-6e" transform="translate(345.626953 0)"/>
       <use xlink:href="#DejaVuSans-65" transform="translate(409.005859 0)"/>
       <use xlink:href="#DejaVuSans-29" transform="translate(470.529297 0)"/>
      </g>
     </g>
    </g>
    <g id="xtick_6">
     <g id="line2d_6">
      <path d="M 236.16 241.056 
L 169.632 125.826124 
" clip-path="url(#pa6b7f2247c)" style="fill: none; stroke: #b0b0b0; stroke-width: 0.8; stroke-linecap: square"/>
     </g>
     <g id="text_6">
      <!-- -30° -->
      <g transform="translate(151.965594 116.461143) scale(0.1 -0.1)">
       <defs>
        <path id="DejaVuSans-2d" d="M 313 2009 
L 1997 2009 
L 1997 1497 
L 313 1497 
L 313 2009 
z
" transform="scale(0.015625)"/>
       </defs>
       <use xlink:href="#DejaVuSans-2d"/>
       <use xlink:href="#DejaVuSans-33" transform="translate(36.083984 0)"/>
       <use xlink:href="#DejaVuSans-30" transform="translate(99.707031 0)"/>
       <use xlink:href="#DejaVuSans-b0" transform="translate(163.330078 0)"/>
      </g>
     </g>
    </g>
    <g id="xtick_7">
     <g id="line2d_7">
      <path d="M 236.16 241.056 
L 120.930124 174.528 
" clip-path="url(#pa6b7f2247c)" style="fill: none; stroke: #b0b0b0; stroke-width: 0.8; stroke-linecap: square"/>
     </g>
     <g id="text_7">
      <!-- -60° -->
      <g transform="translate(98.139362 170.287375) scale(0.1 -0.1)">
       <use xlink:href="#DejaVuSans-2d"/>
       <use xlink:href="#DejaVuSans-36" transform="translate(36.083984 0)"/>
       <use xlink:href="#DejaVuSans-30" transform="translate(99.707031 0)"/>
       <use xlink:href="#DejaVuSans-b0" transform="translate(163.330078 0)"/>
      </g>
     </g>
    </g>
    <g id="xtick_8">
     <g id="line2d_8">
      <path d="M 236.16 241.056 
L 103.104 241.056 
" clip-path="url(#pa6b7f2247c)" style="fill: none; stroke: #b0b0b0; stroke-width: 0.8; stroke-linecap: square"/>
     </g>
     <g id="text_8">
      <!-- -90 -->
      <g transform="translate(80.937594 243.815375) scale(0.1 -0.1)">
       <use xlink:href="#DejaVuSans-2d"/>
       <use xlink:href="#DejaVuSans-39" transform="translate(36.083984 0)"/>
       <use xlink:href="#DejaVuSans-30" transform="translate(99.707031 0)"/>
      </g>
     </g>
    </g>
   </g>
   <g id="matplotlib.axis_2">
    <g id="ytick_1">
     <g id="line2d_9">
      <path d="M 236.16 241.056 
C 236.16 241.056 236.16 241.056 236.16 241.056 
C 236.16 241.056 236.16 241.056 236.16 241.056 
C 236.16 241.056 236.16 241.056 236.16 241.056 
C 236.16 241.056 236.16 241.056 236.16 241.056 
" clip-path="url(#pa6b7f2247c)" style="fill: none; stroke: #b0b0b0; stroke-width: 0.8; stroke-linecap: square"/>
     </g>
     <g id="text_9">
      <!-- −50 -->
      <g transform="translate(225.607656 255.654437) scale(0.1 -0.1)">
       <defs>
        <path id="DejaVuSans-2212" d="M 678 2272 
L 4684 2272 
L 4684 1741 
L 678 1741 
L 678 2272 
z
" transform="scale(0.015625)"/>
       </defs>
       <use xlink:href="#DejaVuSans-2212"/>
       <use xlink:href="#DejaVuSans-35" transform="translate(83.789062 0)"/>
       <use xlink:href="#DejaVuSans-30" transform="translate(147.412109 0)"/>
      </g>
     </g>
    </g>
    <g id="ytick_2">
     <g id="line2d_10">
      <path d="M 211.968 241.056 
C 211.968 234.642343 214.518533 228.484813 219.053673 223.949673 
C 223.588813 219.414533 229.746343 216.864 236.16 216.864 
C 242.573657 216.864 248.731187 219.414533 253.266327 223.949673 
C 257.801467 228.484813 260.352 234.642343 260.352 241.056 
" clip-path="url(#pa6b7f2247c)" style="fill: none; stroke: #b0b0b0; stroke-width: 0.8; stroke-linecap: square"/>
     </g>
     <g id="text_10">
      <!-- −40 -->
      <g transform="translate(201.415656 255.654437) scale(0.1 -0.1)">
       <use xlink:href="#DejaVuSans-2212"/>
       <use xlink:href="#DejaVuSans-34" transform="translate(83.789062 0)"/>
       <use xlink:href="#DejaVuSans-30" transform="translate(147.412109 0)"/>
      </g>
     </g>
    </g>
    <g id="ytick_3">
     <g id="line2d_11">
      <path d="M 187.776 241.056 
C 187.776 228.228687 192.877065 215.913626 201.947345 206.843345 
C 211.017626 197.773065 223.332687 192.672 236.16 192.672 
C 248.987313 192.672 261.302374 197.773065 270.372655 206.843345 
C 279.442935 215.913626 284.544 228.228687 284.544 241.056 
" clip-path="url(#pa6b7f2247c)" style="fill: none; stroke: #b0b0b0; stroke-width: 0.8; stroke-linecap: square"/>
     </g>
     <g id="text_11">
      <!-- −30 -->
      <g transform="translate(177.223656 255.654437) scale(0.1 -0.1)">
       <use xlink:href="#DejaVuSans-2212"/>
       <use xlink:href="#DejaVuSans-33" transform="translate(83.789062 0)"/>
       <use xlink:href="#DejaVuSans-30" transform="translate(147.412109 0)"/>
      </g>
     </g>
    </g>
    <g id="ytick_4">
     <g id="line2d_12">
      <path d="M 163.584 241.056 
C 163.584 221.81503 171.235598 203.342438 184.841018 189.737018 
C 198.446438 176.131598 216.91903 168.48 236.16 168.48 
C 255.40097 168.48 273.873562 176.131598 287.478982 189.737018 
C 301.084402 203.342438 308.736 221.81503 308.736 241.056 
" clip-path="url(#pa6b7f2247c)" style="fill: none; stroke: #b0b0b0; stroke-width: 0.8; stroke-linecap: square"/>
     </g>
     <g id="text_12">
      <!-- −20 -->
      <g transform="translate(153.031656 255.654437) scale(0.1 -0.1)">
       <defs>
        <path id="DejaVuSans-32" d="M 1228 531 
L 3431 531 
L 3431 0 
L 469 0 
L 469 531 
Q 828 903 1448 1529 
Q 2069 2156 2228 2338 
Q 2531 2678 2651 2914 
Q 2772 3150 2772 3378 
Q 2772 3750 2511 3984 
Q 2250 4219 1831 4219 
Q 1534 4219 1204 4116 
Q 875 4013 500 3803 
L 500 4441 
Q 881 4594 1212 4672 
Q 1544 4750 1819 4750 
Q 2544 4750 2975 4387 
Q 3406 4025 3406 3419 
Q 3406 3131 3298 2873 
Q 3191 2616 2906 2266 
Q 2828 2175 2409 1742 
Q 1991 1309 1228 531 
z
" transform="scale(0.015625)"/>
       </defs>
       <use xlink:href="#DejaVuSans-2212"/>
       <use xlink:href="#DejaVuSans-32" transform="translate(83.789062 0)"/>
       <use xlink:href="#DejaVuSans-30" transform="translate(147.412109 0)"/>
      </g>
     </g>
    </g>
    <g id="ytick_5">
     <g id="line2d_13">
      <path d="M 139.392 241.056 
C 139.392 215.401374 149.594131 190.771251 167.734691 172.630691 
C 185.875251 154.490131 210.505374 144.288 236.16 144.288 
C 261.814626 144.288 286.444749 154.490131 304.585309 172.630691 
C 322.725869 190.771251 332.928 215.401374 332.928 241.056 
" clip-path="url(#pa6b7f2247c)" style="fill: none; stroke: #b0b0b0; stroke-width: 0.8; stroke-linecap: square"/>
     </g>
     <g id="text_13">
      <!-- −10 -->
      <g transform="translate(128.839656 255.654437) scale(0.1 -0.1)">
       <defs>
        <path id="DejaVuSans-31" d="M 794 531 
L 1825 531 
L 1825 4091 
L 703 3866 
L 703 4441 
L 1819 4666 
L 2450 4666 
L 2450 531 
L 3481 531 
L 3481 0 
L 794 0 
L 794 531 
z
" transform="scale(0.015625)"/>
       </defs>
       <use xlink:href="#DejaVuSans-2212"/>
       <use xlink:href="#DejaVuSans-31" transform="translate(83.789062 0)"/>
       <use xlink:href="#DejaVuSans-30" transform="translate(147.412109 0)"/>
      </g>
     </g>
    </g>
    <g id="ytick_6">
     <g id="line2d_14">
      <path d="M 115.2 241.056 
C 115.2 208.987717 127.952663 178.200064 150.628364 155.524364 
C 173.304064 132.848663 204.091717 120.096 236.16 120.096 
C 268.228283 120.096 299.015936 132.848663 321.691636 155.524364 
C 344.367337 178.200064 357.12 208.987717 357.12 241.056 
" clip-path="url(#pa6b7f2247c)" style="fill: none; stroke: #b0b0b0; stroke-width: 0.8; stroke-linecap: square"/>
     </g>
     <g id="text_14">
      <!-- 0 -->
      <g transform="translate(112.01875 255.654437) scale(0.1 -0.1)">
       <use xlink:href="#DejaVuSans-30"/>
      </g>
     </g>
    </g>
   </g>
   <g id="line2d_15">
    <path d="M 193.14169 241.056 
L 193.016584 240.513273 
L 192.646059 239.96105 
L 191.859574 239.243919 
L 190.500005 238.324564 
L 187.475727 236.603772 
L 181.635487 233.28814 
L 177.876325 230.873482 
L 174.622365 228.500755 
L 171.898227 226.251926 
L 169.363508 223.887662 
L 167.033157 221.422269 
L 164.913176 218.868772 
L 163.004111 216.238956 
L 161.303297 213.543492 
L 159.806273 210.792086 
L 158.358992 207.640917 
L 157.154587 204.441779 
L 156.18476 201.205365 
L 155.441429 197.941617 
L 154.916867 194.659848 
L 154.603752 191.368853 
L 154.495163 188.076986 
L 154.606439 184.428031 
L 154.953645 180.798332 
L 155.528707 177.197953 
L 156.323895 173.636586 
L 157.331745 170.123595 
L 158.544988 166.668037 
L 159.95649 163.27869 
L 161.55919 159.964063 
L 163.534603 156.414115 
L 165.723476 152.975182 
L 168.116351 149.657518 
L 170.703643 146.471005 
L 173.475602 143.425146 
L 176.422283 140.529051 
L 179.533522 137.791435 
L 182.798913 135.220597 
L 186.207799 132.824415 
L 189.749261 130.610327 
L 193.412113 128.585326 
L 197.184899 126.75594 
L 201.055891 125.128231 
L 205.013096 123.70778 
L 209.044253 122.499685 
L 213.136842 121.508557 
L 217.278081 120.73852 
L 221.454932 120.193214 
L 225.654099 119.875805 
L 229.862024 119.788998 
L 234.064876 119.935054 
L 238.248537 120.315825 
L 242.398573 120.932784 
L 246.5002 121.787075 
L 250.174168 122.770399 
L 253.783819 123.951125 
L 257.316996 125.32972 
L 260.761061 126.906677 
L 264.102772 128.68262 
L 267.328127 130.658445 
L 270.422152 132.835507 
L 273.081098 134.968601 
L 275.607559 137.268564 
L 277.987144 139.738564 
L 280.203593 142.383107 
L 282.021723 144.885441 
L 283.680789 147.536879 
L 285.162556 150.345868 
L 286.296383 152.942002 
L 287.259424 155.67813 
L 288.029115 158.568485 
L 288.513373 161.183296 
L 288.81134 163.942367 
L 288.89286 166.868481 
L 288.766755 169.4571 
L 288.431262 172.20914 
L 287.84393 175.160248 
L 286.944973 178.361939 
L 285.943487 181.15477 
L 284.619997 184.217173 
L 282.873391 187.641519 
L 281.191022 190.535084 
L 279.069844 193.819677 
L 276.326001 197.669718 
L 272.620242 202.410401 
L 269.283303 206.386804 
L 264.740773 211.515567 
L 257.828698 218.939788 
L 252.450409 224.533414 
L 243.780158 233.375697 
M 236.173645 241.042419 
L 255.597465 221.951853 
L 263.90969 214.123191 
L 269.359723 209.236642 
L 275.210738 204.329413 
L 279.619411 200.949014 
L 283.206348 198.453557 
L 287.192064 195.999542 
L 290.576689 194.216013 
L 293.547927 192.901811 
L 296.216263 191.936777 
L 299.230599 191.1056 
L 301.969618 190.599592 
L 304.491724 190.351713 
L 306.836949 190.314945 
L 309.457363 190.501741 
L 311.899233 190.899602 
L 314.187958 191.475974 
L 316.689304 192.341083 
L 319.029583 193.384802 
L 321.527708 194.765928 
L 323.854782 196.321158 
L 326.024289 198.028041 
L 328.289277 200.106814 
L 330.378791 202.332692 
L 332.301233 204.687516 
L 334.249151 207.436388 
L 336.005598 210.306828 
L 337.575818 213.282632 
L 339.092784 216.660482 
L 340.393467 220.130931 
L 341.481027 223.67806 
L 342.357853 227.287078 
L 343.025718 230.944043 
L 343.485888 234.635635 
L 343.739195 238.348962 
L 343.793757 241.056 
L 343.793757 241.056 
" clip-path="url(#pa6b7f2247c)" style="fill: none; stroke: #1f77b4; stroke-width: 1.5; stroke-linecap: square"/>
   </g>
   <g id="LineCollection_1">
    <path d="M 236.16 241.056 
L 236.16 108 
" clip-path="url(#pa6b7f2247c)" style="fill: none; stroke-dasharray: 5.55,2.4; stroke-dashoffset: 0; stroke: #008000; stroke-width: 1.5"/>
   </g>
   <g id="LineCollection_2">
    <path d="M 236.16 241.056 
L 330.2448 146.9712 
" clip-path="url(#pa6b7f2247c)" style="fill: none; stroke-dasharray: 5.55,2.4; stroke-dashoffset: 0; stroke: #ff0000; stroke-width: 1.5"/>
   </g>
   <g id="patch_3">
    <path d="M 369.216 241.056 
C 369.216 205.780889 355.18807 171.914471 330.2448 146.9712 
C 305.301529 122.02793 271.435111 108 236.16 108 
C 200.884889 108 167.018471 122.02793 142.0752 146.9712 
C 117.13193 171.914471 103.104 205.780889 103.104 241.056 
" style="fill: none; stroke: #000000; stroke-width: 0.8; stroke-linejoin: miter; stroke-linecap: square"/>
   </g>
   <g id="patch_4">
    <path d="M 236.16 241.056 
L 103.104 241.056 
" style="fill: none; stroke: #000000; stroke-width: 0.8; stroke-linejoin: miter; stroke-linecap: square"/>
   </g>
   <g id="patch_5">
    <path d="M 236.16 241.056 
L 369.216 241.056 
" style="fill: none; stroke: #000000; stroke-width: 0.8; stroke-linejoin: miter; stroke-linecap: square"/>
   </g>
  </g>
 </g>
 <defs>
  <clipPath id="pa6b7f2247c">
   <path d="M 369.216 241.056 
C 369.216 205.780889 355.18807 171.914471 330.2448 146.9712 
C 305.301529 122.02793 271.435111 108 236.16 108 
C 200.884889 108 167.018471 122.02793 142.0752 146.9712 
C 117.13193 171.914471 103.104 205.780889 103.104 241.056 
L 236.16 241.056 
C 236.16 241.056 236.16 241.056 236.16 241.056 
C 236.16 241.056 236.16 241.056 236.16 241.056 
C 236.16 241.056 236.16 241.056 236.16 241.056 
C 236.16 241.056 236.16 241.056 236.16 241.056 
z
"/>
  </clipPath>
 </defs>
</svg>
